<svg width="309" height="306" viewBox="0 0 309 306" fill="none" xmlns="http://www.w3.org/2000/svg">
<path d="M177.642 211.113L177.022 211.239L176.588 211.698L121.296 270.164L140.623 203.256L141.528 200.121L138.324 200.737L52.9122 217.149L118.37 177.471L123.023 174.65L117.651 173.786L31.6821 159.951L102.369 148.792L105.978 148.222L103.553 145.489L43.4272 77.7258L118.094 106.011L120.296 106.845L120.762 104.536L136.105 28.5852L148.83 110.911L149.468 115.042L152.284 111.953L206.249 52.7506L176.893 124.379L174.434 130.377L179.845 126.806L246.098 83.0802L190.7 141.827L186.552 146.227L192.505 145.168L263.938 132.472L185.148 171.687L179.93 174.284L185.643 175.438L269.641 192.406L177.642 211.113Z" fill="#B2D4F3" stroke="#13120F" stroke-width="4"/>
</svg>
