<svg width="1728" height="1004" viewBox="0 0 1728 1004" fill="none" xmlns="http://www.w3.org/2000/svg">
<rect width="1728" height="1004" fill="#EAB6C1"/>
<path d="M1677.36 369.377C1657.38 375.365 1641.79 394.217 1636.47 417.988C1631.1 394.334 1615.55 375.591 1595.64 369.623C1615.62 363.635 1631.21 344.783 1636.53 321.012C1641.9 344.666 1657.45 363.409 1677.36 369.377Z" fill="#F1ED94" stroke="#13120F" stroke-width="4"/>
<path d="M1768.36 843.377C1748.38 849.365 1732.79 868.217 1727.47 891.988C1722.1 868.334 1706.55 849.591 1686.64 843.623C1706.62 837.635 1722.21 818.783 1727.53 795.012C1732.9 818.666 1748.45 837.409 1768.36 843.377Z" fill="#F1ED94" stroke="#13120F" stroke-width="4"/>
<path d="M40.363 434.377C20.3819 440.365 4.79036 459.217 -0.527565 482.988C-5.89789 459.334 -21.451 440.591 -41.3631 434.623C-21.3822 428.635 -5.7906 409.783 -0.472538 386.012C4.89771 409.666 20.451 428.409 40.363 434.377Z" fill="#F1ED94" stroke="#13120F" stroke-width="4"/>
<path d="M337.363 810.377C317.382 816.365 301.79 835.217 296.472 858.988C291.102 835.334 275.549 816.591 255.637 810.623C275.618 804.635 291.209 785.783 296.527 762.012C301.898 785.666 317.451 804.409 337.363 810.377Z" fill="#F1ED94" stroke="#13120F" stroke-width="4"/>
<path d="M1297.36 676.377C1277.38 682.365 1261.79 701.217 1256.47 724.988C1251.1 701.334 1235.55 682.591 1215.64 676.623C1235.62 670.635 1251.21 651.783 1256.53 628.012C1261.9 651.666 1277.45 670.409 1297.36 676.377Z" fill="#F1ED94" stroke="#13120F" stroke-width="4"/>
<path d="M746.363 526.377C726.382 532.365 710.79 551.217 705.472 574.988C700.102 551.334 684.549 532.591 664.637 526.623C684.618 520.635 700.209 501.783 705.527 478.012C710.898 501.666 726.451 520.409 746.363 526.377Z" fill="#F1ED94" stroke="#13120F" stroke-width="4"/>
</svg>
