<svg width="1728" height="2044" viewBox="0 0 1728 2044" fill="none" xmlns="http://www.w3.org/2000/svg">
<path d="M1740.05 1121.63C1742.08 1119.14 1743.69 1117.11 1744.85 1115.64L1780.35 1207.66C1780.01 1208.11 1779.53 1208.71 1778.92 1209.47C1777.52 1211.24 1775.43 1213.82 1772.72 1217.1C1767.29 1223.66 1759.33 1232.98 1749.22 1244.05C1729.02 1266.19 1700.25 1295.28 1666.01 1323.1C1597.39 1378.84 1507.39 1428.98 1420.37 1408.92C1388.07 1401.46 1366.84 1389.04 1351.34 1374.11C1335.82 1359.15 1325.95 1341.58 1316.48 1323.59C1315.59 1321.9 1314.71 1320.22 1313.82 1318.52C1305.3 1302.23 1296.67 1285.74 1284.1 1271.13C1270.15 1254.95 1251.39 1241.1 1222.58 1232.06C1177.79 1218.01 1125.94 1231.54 1071.88 1256.58C1028.35 1276.75 983.049 1304.55 938.468 1331.91C927.655 1338.55 916.885 1345.16 906.192 1351.63C851.291 1384.84 798.49 1414.3 752.1 1424.99C728.942 1430.32 707.521 1430.94 688.305 1425.11C669.127 1419.3 651.971 1407 637.392 1386.19C610.289 1347.5 605.572 1302.65 612.621 1255.97C619.676 1209.25 638.486 1160.91 658.22 1115.44C663.074 1104.26 667.989 1093.24 672.796 1082.46C687.478 1049.54 701.158 1018.87 709.056 992.6C714.303 975.146 717.072 959.414 715.815 946.094C714.549 932.684 709.189 921.666 698.225 913.911C676.552 898.581 648.523 901.227 616.191 914.273C583.808 927.339 546.495 951.079 505.724 978.938C492.867 987.723 479.661 996.921 466.146 1006.33C393.778 1056.74 312.555 1113.31 228.761 1145.64C108.218 1192.14 -42.1828 1202.52 -162.592 1201.23C-222.769 1200.59 -275.399 1197.03 -312.983 1193.64C-331.775 1191.94 -346.803 1190.28 -357.13 1189.05C-362.293 1188.43 -366.281 1187.92 -368.977 1187.57C-370.244 1187.4 -371.226 1187.27 -371.91 1187.17L-549.534 726.774C-546.584 728.394 -542.326 730.709 -536.873 733.616C-525.564 739.645 -509.115 748.219 -488.548 758.403C-447.415 778.771 -389.797 805.588 -323.858 831.379C-192.076 882.924 -26.6923 930.526 106.779 914.053C173.608 905.805 239.707 878.137 304.165 843.778C345.236 821.885 385.772 797.199 425.433 773.045C447.964 759.324 470.213 745.775 492.117 733.006C552.703 697.692 610.75 668.293 665.544 657.137C720.225 646.003 771.586 653.049 819.038 690.588C866.555 728.178 885.978 773.984 889.536 822.97C893.101 872.061 880.733 924.386 864.504 974.86C857.427 996.872 849.631 1018.49 842.122 1039.3C841.026 1042.34 839.935 1045.37 838.855 1048.37C830.378 1071.93 822.466 1094.38 816.68 1115.02C810.899 1135.64 807.205 1154.57 807.229 1171.08C807.253 1187.6 811.005 1201.87 820.283 1212.96C829.586 1224.07 841.142 1228.53 854.392 1227.87C867.505 1227.22 882.2 1221.57 898.049 1212.74C925.477 1197.45 957.025 1172.23 990.757 1145.26C995.995 1141.08 1001.29 1136.85 1006.62 1132.61C1046.42 1100.97 1088.84 1068.63 1131.24 1047.75C1173.65 1026.88 1215.71 1017.66 1254.97 1031.77C1319.37 1054.93 1342.64 1113.97 1365.23 1171.29L1365.48 1171.93C1387.99 1229.05 1410.07 1284.65 1473.49 1296.48C1502.9 1301.97 1534.75 1293.01 1565.79 1276.78C1596.86 1260.53 1627.35 1236.88 1654.17 1212.61C1681 1188.34 1704.21 1163.41 1720.71 1144.54C1728.96 1135.11 1735.54 1127.19 1740.05 1121.63Z" fill="#B2D4F3" stroke="black" stroke-width="4"/>
<path d="M1751.01 1149.72C1752.87 1146.98 1754.36 1144.74 1755.44 1143.08L1783.14 1214.89C1782.79 1215.32 1782.32 1215.9 1781.72 1216.62C1780.3 1218.33 1778.18 1220.84 1775.43 1224.02C1769.92 1230.38 1761.85 1239.42 1751.62 1250.15C1731.15 1271.61 1702.03 1299.79 1667.44 1326.7C1598.13 1380.63 1507.42 1428.99 1420.37 1408.92C1388.07 1401.47 1367.09 1389.08 1351.68 1374.22C1336.22 1359.31 1326.27 1341.81 1316.11 1323.85L1315.87 1323.44C1305.82 1305.67 1295.53 1287.47 1279.48 1271.48C1263.26 1255.32 1241.25 1241.5 1207.82 1232.4C1167.87 1221.52 1119.62 1236.4 1068.25 1261.67C1030.87 1280.05 991.504 1304.11 952.106 1328.18C937.287 1337.24 922.463 1346.3 907.738 1355.06C853.741 1387.18 801.086 1415.3 754.361 1425.16C731.032 1430.08 709.303 1430.42 689.683 1424.53C670.095 1418.64 652.462 1406.48 637.361 1386.15C610.103 1349.45 605.284 1305.61 612.298 1259.29C619.316 1212.95 638.151 1164.36 657.935 1118.39C662.64 1107.46 667.402 1096.67 672.069 1086.1C686.978 1052.32 700.921 1020.73 708.951 993.702C714.226 975.942 717.021 959.938 715.785 946.423C714.541 932.823 709.2 921.674 698.226 913.912C676.591 898.609 650.376 900.511 620.196 912.729C590.026 924.941 555.372 947.663 516.394 974.827C507.09 981.311 497.535 988.051 487.727 994.97C415.21 1046.12 328.905 1107 228.762 1145.64C108.219 1192.14 -42.182 1202.52 -162.591 1201.23C-222.768 1200.59 -275.398 1197.03 -312.983 1193.64C-331.774 1191.94 -346.802 1190.28 -357.129 1189.05C-362.292 1188.44 -366.28 1187.93 -368.976 1187.57C-370.243 1187.4 -371.225 1187.27 -371.909 1187.18L-483.376 898.253C-480.605 899.393 -476.542 901.043 -471.299 903.117C-460.678 907.319 -445.212 913.261 -425.817 920.23C-387.029 934.166 -332.517 952.208 -269.615 968.636C-143.88 1001.48 15.6464 1027.94 150.129 1002.03C211.525 990.209 272.74 961.982 332.209 928.146C373.55 904.624 414.149 878.329 453.411 852.9C470.606 841.764 487.544 830.793 504.175 820.295C558.873 785.767 610.254 756.343 656.937 742.474C703.551 728.626 745.175 730.366 780.734 757.75C817.633 786.166 832.398 824.305 832.583 869.584C832.767 914.974 818.29 967.454 796.698 1024.23C790.601 1040.27 784.43 1055.8 778.473 1070.79C763.376 1108.79 749.653 1143.33 741.999 1173.78C731.314 1216.31 732.225 1251.72 758.351 1277.97C784.591 1304.33 828.644 1303.31 876.915 1286.68C925.363 1269.99 978.909 1237.32 1025.11 1198.97C1029.88 1195.01 1034.6 1191.07 1039.27 1187.18C1073.06 1158.99 1104.4 1132.84 1134.92 1114.82C1169.62 1094.34 1202.9 1084.58 1237.15 1094.1C1260.15 1100.5 1276.61 1117.28 1290.57 1139.67C1301.5 1157.2 1310.76 1177.94 1320.4 1199.53C1323.11 1205.59 1325.85 1211.72 1328.66 1217.87C1354.21 1273.68 1385.83 1330.43 1457.13 1343.74C1496.01 1350.99 1534.27 1341.72 1569.69 1323.9C1605.1 1306.07 1637.77 1279.64 1665.57 1252.39C1693.39 1225.12 1716.38 1196.98 1732.42 1175.65C1740.44 1164.98 1746.73 1156.02 1751.01 1149.72Z" fill="#F1ED94" stroke="black" stroke-width="4"/>
<path d="M1761.41 1182.52C1763.93 1178.71 1765.86 1175.67 1767.19 1173.54L1783.94 1216.95C1783.56 1217.47 1783.03 1218.21 1782.33 1219.17C1780.85 1221.18 1778.67 1224.12 1775.85 1227.82C1770.2 1235.23 1761.97 1245.69 1751.67 1257.89C1731.07 1282.31 1702.21 1313.66 1669.15 1341.5C1598.95 1400.61 1538.49 1443.46 1470.82 1448.32C1403.26 1453.18 1345.21 1418.25 1308.37 1367.67C1296.36 1351.18 1287.84 1334.09 1279.67 1317.67C1277.34 1313 1275.05 1308.38 1272.7 1303.85C1262.17 1283.49 1250.74 1264.91 1231.84 1251.71C1215.65 1240.41 1197.45 1239.37 1177.92 1244.9C1158.46 1250.41 1137.52 1262.48 1115.54 1277.63C1098.86 1289.12 1081.48 1302.47 1063.6 1316.19C1057.91 1320.56 1052.16 1324.97 1046.37 1329.38C1022.38 1347.62 997.624 1365.72 972.436 1380.45C908.715 1417.71 838.18 1444.89 774.706 1450.29C711.267 1455.69 655.169 1439.33 619.666 1389.89C592.016 1351.38 586.411 1308.14 592.748 1263.53C599.093 1218.87 617.393 1172.96 637.419 1129.28C643.851 1115.26 650.47 1101.44 656.922 1087.98C670.497 1059.65 683.329 1032.87 692.111 1008.92C698.599 991.214 702.947 974.88 703.749 960.428C704.554 945.949 701.804 933.219 693.947 922.922C686.148 912.701 676.358 907.192 664.805 905.653C653.337 904.126 640.271 906.527 625.841 911.812C597.007 922.369 561.985 944.725 522.011 972.084C511.212 979.474 500.043 987.236 488.524 995.241C414.577 1046.63 326.202 1108.05 228.763 1145.64C108.22 1192.14 -42.1813 1202.52 -162.59 1201.23C-222.767 1200.59 -275.398 1197.03 -312.982 1193.64C-331.773 1191.94 -346.801 1190.28 -357.128 1189.05C-362.292 1188.44 -366.28 1187.93 -368.975 1187.57C-370.243 1187.4 -371.224 1187.27 -371.908 1187.18L-426.825 1044.83C-426.772 1044.85 -426.719 1044.86 -426.665 1044.88C-424.006 1045.64 -420.077 1046.74 -414.984 1048.12C-404.798 1050.88 -389.958 1054.74 -371.331 1059.16C-334.079 1067.99 -281.67 1079.04 -221.029 1087.91C-99.7989 1105.65 54.5425 1114.71 186.45 1079.79C239.991 1065.62 294.671 1036.08 348.193 1001.62C383.608 978.809 418.622 953.772 452.498 929.548C469.795 917.18 486.795 905.024 503.401 893.485C552.633 859.275 598.397 830.49 638.59 817.182C678.697 803.902 712.794 806.159 739.355 833.348C767.175 861.825 770.998 907.661 761.388 960.983C751.798 1014.19 728.944 1074.2 704.298 1130.32C684.348 1175.74 672.564 1218.42 671.619 1255.7C670.674 1293.01 680.592 1325.03 704.163 1348.83C716.184 1360.97 735.04 1367.55 758.045 1369.48C781.087 1371.41 808.549 1368.69 838.108 1361.96C897.229 1348.51 965.055 1318.93 1023.27 1277.83C1041.87 1264.69 1059.79 1250.48 1077.08 1236.76C1079.48 1234.86 1081.87 1232.97 1084.24 1231.09C1103.76 1215.64 1122.47 1201.12 1140.6 1189.73C1176.9 1166.93 1210.23 1157.03 1242.59 1176.53C1257.41 1185.45 1268.97 1201.52 1279.93 1221.37C1285.41 1231.27 1290.69 1242.03 1296.15 1253.21L1297.08 1255.12C1302.24 1265.7 1307.57 1276.63 1313.34 1287.46C1337.81 1333.4 1370.5 1378.2 1433.59 1389.98C1470.54 1396.87 1510.49 1389.18 1548.98 1372.95C1587.49 1356.71 1624.68 1331.87 1656.22 1304.27C1691.01 1273.83 1719.28 1240.29 1738.84 1214.37C1748.63 1201.41 1756.24 1190.35 1761.41 1182.52Z" fill="#E07A5F" stroke="black" stroke-width="4"/>
</svg>
