<svg width="118" height="120" viewBox="0 0 118 120" fill="none" xmlns="http://www.w3.org/2000/svg">
<path d="M33.5955 33.5183L69.3445 23.9963L95.4653 50.1948L85.8371 85.9154L50.0881 95.4374L23.9673 69.2388L33.5955 33.5183Z" fill="#F1ED94" stroke="#13120F" stroke-width="1.4364"/>
<path d="M56.7532 75.9216C69.9284 72.7668 74.4661 59.8879 72.1509 50.2191C72.0758 49.9055 71.9922 49.5866 71.9035 49.2764C73.0577 47.9047 73.9606 46.3319 74.5697 44.6318C73.4059 45.538 72.1122 46.2576 70.7327 46.7661C72.0085 45.4928 72.7835 43.7867 72.9141 41.9643C71.7116 43.1524 70.3174 44.1213 68.7912 44.8294C67.4298 43.9153 65.8151 43.4808 64.1969 43.5932C62.5786 43.7055 61.0469 44.3584 59.8385 45.451C58.6301 46.5435 57.8123 48.0148 57.5117 49.6374C57.211 51.2599 57.4441 52.9434 58.1751 54.4275C55.2924 54.9634 52.3256 54.8749 49.4669 54.1675C46.6082 53.4602 43.9215 52.1499 41.581 50.3216C41.052 52.1515 41.2286 54.1247 42.0747 55.8401C42.9209 57.5556 44.3731 58.8847 46.1363 59.5572C44.9899 59.7927 43.8023 59.7462 42.6717 59.4217L42.6934 59.5123C43.0972 61.203 44.0616 62.7047 45.4229 63.762C46.7842 64.8194 48.4582 65.3672 50.1604 65.3123C49.1772 65.8591 48.0815 66.1669 46.9581 66.2117C47.764 67.5559 48.9592 68.6142 50.3768 69.2388C51.7944 69.8635 53.3638 70.0233 54.8659 69.6961C52.8158 72.3399 49.9456 74.1949 46.7175 74.9624C46.145 75.0985 45.5647 75.1996 44.9798 75.265C48.7723 76.6284 52.8589 76.8563 56.7532 75.9216Z" fill="#13120F"/>
</svg>
