<svg width="84" height="84" viewBox="0 0 84 84" fill="none" xmlns="http://www.w3.org/2000/svg">
<path d="M73.3758 46.5605C70.6468 64.0996 54.2163 76.1056 36.6772 73.3766C19.1381 70.6476 7.13212 54.2171 9.8611 36.678C12.5901 19.1389 29.0206 7.13294 46.5597 9.86193C64.0988 12.5909 76.1048 29.0214 73.3758 46.5605Z" fill="#F1ED94" stroke="#13120F" stroke-width="1.4364"/>
<path d="M57.3943 44.1747C58.7902 35.2037 52.8523 26.8313 44.1318 25.4744C35.4112 24.1175 27.2102 30.29 25.8144 39.261C24.5529 47.3685 29.2815 54.987 36.6405 57.3801L38.4066 46.0294L34.3974 45.4055L35.128 40.7102L39.1372 41.334L39.694 37.7553C40.3274 33.6843 43.0347 31.8024 46.6414 32.3636C48.3684 32.6323 50.1266 33.2308 50.1266 33.2308L49.5046 37.2282L47.5136 36.9184C45.5522 36.6133 44.7455 37.7703 44.5454 39.0561L44.0715 42.1017L48.4508 42.7831L47.0202 47.3696L43.341 46.7971L41.5749 58.1479C49.3131 58.1038 56.1328 52.2821 57.3943 44.1747Z" fill="#13120F"/>
</svg>
