<svg width="92" height="92" viewBox="0 0 92 92" fill="none" xmlns="http://www.w3.org/2000/svg">
<rect x="22.336" y="5.27756" width="65.9097" height="65.9097" transform="rotate(15 22.336 5.27756)" fill="#F1ED94" stroke="#13120F" stroke-width="1.4364"/>
<path d="M49.2184 32.2277C53.5768 33.3956 54.0878 33.553 55.7814 34.0887C57.3556 34.5856 58.1441 35.0838 58.6578 35.4604C59.3376 35.9567 59.7899 36.4604 60.2051 37.1794C60.6249 37.9066 60.8302 38.5421 60.9202 39.3789C60.9895 40.0121 61.0249 40.9504 60.6699 42.5558C60.2854 44.2967 60.1662 44.818 59.0001 49.17C57.8322 53.5284 57.6748 54.0394 57.1391 55.733C56.6421 57.3072 56.144 58.0957 55.7674 58.6094C55.2711 59.2891 54.7674 59.7415 54.0483 60.1566C53.3212 60.5765 52.6857 60.7818 51.8489 60.8717C51.2157 60.9411 50.2774 60.9765 48.672 60.6215C46.9311 60.2369 46.4098 60.1178 42.0578 58.9516C37.6994 57.7838 37.1884 57.6264 35.4948 57.0906C33.9206 56.5937 33.1321 56.0956 32.6184 55.7189C31.9387 55.2226 31.4863 54.719 31.0711 53.9999C30.6513 53.2728 30.446 52.6373 30.3561 51.8005C30.2867 51.1672 30.2513 50.2289 30.6063 48.6236C30.9908 46.8826 31.11 46.3614 32.2762 42.0094C33.444 37.651 33.6014 37.1399 34.1371 35.4464C34.6341 33.8722 35.1322 33.0837 35.5089 32.57C36.0051 31.8902 36.5088 31.4379 37.2279 31.0227C37.955 30.6029 38.5905 30.3976 39.4273 30.3076C40.0606 30.2383 40.9988 30.2029 42.6042 30.5579C44.3388 30.9407 44.86 31.0599 49.2184 32.2277ZM50.0055 29.2903C45.577 28.1037 45.0175 27.9742 43.2575 27.5846C41.5039 27.1966 40.2372 27.1577 39.0974 27.2826C37.9078 27.4146 36.8481 27.7248 35.6991 28.3935C34.5455 29.0542 33.747 29.8168 33.0396 30.7746C32.3599 31.7057 31.7619 32.8158 31.2211 34.5284C30.6768 36.2539 30.5091 36.8031 29.3225 41.2316C28.1359 45.6601 28.0065 46.2196 27.6168 47.9796C27.2289 49.7333 27.19 50.9999 27.3148 52.1397C27.4468 53.3293 27.7571 54.389 28.4258 55.538C29.0882 56.6852 29.8491 57.4901 30.8086 58.1911C31.7397 58.8709 32.8497 59.4688 34.5624 60.0097C36.2815 60.5522 36.8307 60.7199 41.2592 61.9065C45.6877 63.0931 46.2472 63.2225 48.0072 63.6122C49.7609 64.0001 51.0275 64.039 52.1674 63.9142C53.3488 63.7869 54.4103 63.4703 55.5575 62.8079C56.7048 62.1455 57.5097 61.3846 58.2107 60.4251C58.8904 59.494 59.4883 58.384 60.0292 56.6713C60.5718 54.9522 60.7394 54.403 61.926 49.9745C63.1126 45.546 63.2421 44.9865 63.6317 43.2265C64.0197 41.4728 64.0586 40.2062 63.9337 39.0664C63.8225 37.8756 63.5123 36.8158 62.8436 35.6669C62.1812 34.5196 61.4203 33.7147 60.4608 33.0137C59.5297 32.334 58.4197 31.736 56.707 31.1952C54.9833 30.6445 54.434 30.4769 50.0055 29.2903Z" fill="#13120F"/>
<path d="M47.883 37.2237C43.257 35.9841 38.4983 38.7316 37.2587 43.3576C36.0192 47.9836 38.7666 52.7423 43.3927 53.9819C48.0187 55.2214 52.7774 52.474 54.0169 47.848C55.2565 43.2219 52.509 38.4632 47.883 37.2237ZM44.1815 51.038C41.1803 50.2339 39.3984 47.1476 40.2026 44.1464C41.0067 41.1452 44.093 39.3634 47.0942 40.1675C50.0954 40.9717 51.8773 44.058 51.0731 47.0592C50.2689 50.0603 47.1826 51.8422 44.1815 51.038Z" fill="#13120F"/>
<path d="M58.6363 39.7496C58.346 40.8329 57.2328 41.4702 56.1559 41.1817C55.0727 40.8914 54.4353 39.7782 54.7239 38.7013C55.0141 37.6181 56.1274 36.9807 57.2042 37.2693C58.2811 37.5578 58.9248 38.6728 58.6363 39.7496Z" fill="#13120F"/>
</svg>
