<svg width="115" height="99" viewBox="0 0 115 99" fill="none" xmlns="http://www.w3.org/2000/svg">
<path d="M7.94693 37.1635C8.05538 37.0725 8.18449 36.9654 8.33369 36.8437C8.86998 36.406 9.66554 35.779 10.6945 35.0287C12.753 33.5277 15.7417 31.536 19.4535 29.5809C26.8857 25.6661 37.1653 21.9247 48.6587 22.5054C61.8836 23.1736 72.7241 20.223 80.26 17.1039C84.0281 15.5443 86.9726 13.9415 88.9795 12.7252C89.8679 12.1868 90.5729 11.7239 91.0848 11.3737L107.294 63.1846C107.218 63.2385 107.133 63.2982 107.039 63.3632C106.545 63.7066 105.805 64.1995 104.834 64.7886C102.891 65.967 100.025 67.5296 96.3485 69.0526C88.9948 72.0988 78.4095 74.9825 65.4894 74.3268C53.5808 73.7227 42.9847 77.5849 35.3916 81.5702C31.5909 83.5651 28.5296 85.5976 26.4163 87.1331C25.4483 87.8364 24.6784 88.4361 24.1265 88.881L7.94693 37.1635Z" fill="#F1ED94" stroke="#13120F" stroke-width="1.72368"/>
<path d="M65.2609 30.3342L40.0279 38.2282C38.8192 38.6063 38.1403 39.8664 38.5094 41.0462L46.436 66.3833C46.8051 67.5631 48.0829 68.2173 49.2916 67.8392L74.5246 59.9452C75.7333 59.567 76.4161 58.2994 76.0489 57.1254L68.1204 31.7825C67.7513 30.6027 66.4696 29.956 65.2609 30.3342ZM54.5208 61.3967L50.1254 62.7718L45.7035 48.6372L50.0989 47.2621L54.5208 61.3967ZM47.2987 46.0238C45.8875 46.4652 44.3917 45.6824 43.9521 44.277C43.5124 42.8716 44.2953 41.3759 45.7065 40.9344C47.1118 40.4947 48.6076 41.2776 49.0473 42.683C49.4851 44.0826 48.704 45.5841 47.2987 46.0238ZM70.9688 56.251L66.5792 57.6243L64.4297 50.7536C63.9177 49.1169 63.2284 47.015 60.9729 47.7207C58.6884 48.4354 58.9005 50.331 59.4777 52.1759L61.6633 59.1622L57.2795 60.5337L52.8575 46.3991L57.0678 45.0819L57.6722 47.0135L57.73 46.9954C57.9667 45.7023 59.0337 44.0796 61.1678 43.4119C65.6152 42.0206 67.352 44.69 68.5425 48.4955L70.9688 56.251Z" fill="#13120F"/>
</svg>
