<svg width="97" height="109" viewBox="0 0 97 109" fill="none" xmlns="http://www.w3.org/2000/svg">
<g id="Group">
<path id="Vector" d="M5.49495 50.1102L87.5097 4.05607C90.5002 2.3778 94.187 4.56423 94.1464 7.99109L93.0333 102.025C92.9927 105.452 89.2553 107.551 86.3053 105.802L5.40369 57.8193C2.45655 56.0735 2.50728 51.7886 5.49495 50.1102Z" fill="#B2D4F3"/>
<path id="Vector_2" d="M88.5038 108.482C89.618 108.496 90.7357 108.216 91.7631 107.64C93.8121 106.491 95.0535 104.399 95.0813 102.052L96.1944 8.01824C96.2223 5.66831 95.0306 3.5512 93.0094 2.35356C90.991 1.15312 88.5608 1.12435 86.5118 2.27665L4.49418 48.328C2.44518 49.4774 1.20666 51.5686 1.17887 53.9157C1.15109 56.2628 2.33977 58.3827 4.36098 59.5803L85.2655 107.56C86.2732 108.163 87.3868 108.469 88.5038 108.482ZM89.7084 5.523C90.2655 5.5296 90.7008 5.73936 90.9239 5.86705C91.2824 6.08159 92.1164 6.711 92.1015 7.96695L90.9884 102.001C90.9735 103.257 90.1248 103.869 89.7585 104.072C89.3979 104.278 88.4323 104.688 87.3511 104.044L6.44663 56.0612C5.36829 55.4203 5.26119 54.3789 5.26614 53.9612C5.27108 53.5435 5.4 52.5021 6.49601 51.8898L88.5137 5.83568C88.9429 5.59919 89.3503 5.51877 89.7084 5.523Z" fill="#13120F"/>
</g>
</svg>
