<svg width="97" height="109" viewBox="0 0 97 109" fill="none" xmlns="http://www.w3.org/2000/svg">
<g id="Group">
<path id="Vector" d="M5.72346 50.4149L87.7383 4.36075C90.7288 2.68248 94.4155 4.86892 94.375 8.29578L93.2618 102.33C93.2213 105.757 89.4838 107.855 86.5338 106.107L5.6322 58.1239C2.68222 56.3782 2.73294 52.0932 5.72346 50.4149Z" fill="#E07A5F"/>
<path id="Vector_2" d="M88.7313 108.787C89.8455 108.8 90.9632 108.521 91.9905 107.945C94.0395 106.795 95.2781 104.704 95.3059 102.357L96.4191 8.32293C96.4469 5.973 95.2552 3.85588 93.2369 2.65828C91.2185 1.45784 88.7883 1.42908 86.7393 2.58137L4.72173 48.6327C2.67273 49.7821 1.43412 51.8733 1.40634 54.2204C1.37855 56.5675 2.56732 58.6874 4.58853 59.8851L85.493 107.865C86.5035 108.468 87.6143 108.774 88.7313 108.787ZM89.9359 5.82773C90.493 5.83432 90.9283 6.04408 91.1485 6.17173C91.507 6.38628 92.341 7.01569 92.3261 8.27164L91.213 102.306C91.1981 103.562 90.3494 104.174 89.9831 104.377C89.6197 104.583 88.6569 104.992 87.5757 104.349L6.67114 56.3658C5.58997 55.725 5.48588 54.6836 5.49083 54.2659C5.49577 53.8482 5.62451 52.8068 6.72052 52.1945L88.7383 6.14036C89.1703 5.90392 89.5777 5.82349 89.9359 5.82773Z" fill="#13120F"/>
</g>
</svg>
