<svg width="97" height="109" viewBox="0 0 97 109" fill="none" xmlns="http://www.w3.org/2000/svg">
<g id="Group">
<path id="Vector" d="M5.26552 49.8065L87.2832 3.75236C90.2737 2.07409 93.9604 4.26052 93.9199 7.68738L92.8068 101.721C92.7662 105.148 89.0287 107.247 86.0788 105.498L5.17426 57.5155C2.22428 55.7698 2.275 51.4848 5.26552 49.8065Z" fill="#F4ECE9"/>
<path id="Vector_2" d="M88.2734 108.179C89.3876 108.192 90.5052 107.912 91.5326 107.336C93.5816 106.187 94.8231 104.096 94.8508 101.749L95.964 7.71453C95.9918 5.3646 94.8001 3.24749 92.7789 2.04985C90.7606 0.84941 88.3304 0.820643 86.2813 1.97294L4.2638 48.0242C2.2148 49.1737 0.976189 51.2649 0.948405 53.612C0.920622 55.9591 2.10939 58.079 4.1306 59.2766L85.035 107.257C86.0456 107.86 87.1592 108.165 88.2734 108.179ZM89.4808 5.21933C90.0379 5.22592 90.4732 5.43568 90.6934 5.56334C91.0519 5.77788 91.8859 6.40729 91.871 7.66324L90.7579 101.697C90.7431 102.953 89.8943 103.566 89.5281 103.769C89.1646 103.975 88.2018 104.384 87.1207 103.74L6.21616 55.7574C5.13498 55.1166 5.03073 54.0752 5.03567 53.6575C5.04061 53.2398 5.16953 52.1984 6.26554 51.5861L88.2832 5.53196C88.7124 5.29548 89.1198 5.21505 89.4808 5.21933Z" fill="#13120F"/>
</g>
</svg>
