<svg width="96" height="109" viewBox="0 0 96 109" fill="none" xmlns="http://www.w3.org/2000/svg">
<g id="Group">
<path id="Vector" d="M4.95393 49.7186L86.9687 3.66446C89.9592 1.9862 93.646 4.17263 93.6054 7.59949L92.4923 101.634C92.4517 105.06 88.7143 107.159 85.7643 105.41L4.86267 57.4277C1.91269 55.6819 1.96341 51.3969 4.95393 49.7186Z" fill="#F1ED94"/>
<path id="Vector_2" d="M87.9609 108.091C89.0779 108.104 90.1956 107.825 91.2201 107.248C93.2719 106.099 94.5106 104.008 94.5383 101.661L95.6515 7.62664C95.6793 5.27955 94.4876 3.15959 92.4664 1.96196C90.4424 0.761453 88.0151 0.732719 85.9661 1.88501L3.95131 47.9364C1.90231 49.0858 0.660748 51.177 0.632964 53.524C0.605181 55.8711 1.79689 57.9911 3.81811 59.1887L84.7198 107.169C85.7332 107.772 86.8467 108.078 87.9609 108.091ZM89.1684 5.13144C89.7255 5.13803 90.1635 5.34783 90.3837 5.47832C90.745 5.69005 91.579 6.32231 91.5642 7.57825L90.451 101.612C90.4362 102.868 89.5846 103.478 89.2212 103.684C88.8577 103.89 87.895 104.299 86.811 103.655L5.90936 55.6725C4.82818 55.0316 4.72098 53.9902 4.72592 53.5725C4.73086 53.1548 4.85985 52.1162 5.95874 51.5011L87.9735 5.44695C88.3999 5.20759 88.8074 5.12716 89.1684 5.13144Z" fill="#13120F"/>
</g>
</svg>
