<svg width="340" height="340" viewBox="0 0 340 340" fill="none" xmlns="http://www.w3.org/2000/svg">
<path d="M138.269 119.875C197.157 95.4306 237.811 58.6872 229.073 37.8066C220.334 16.9261 165.513 19.8154 106.625 44.2602C47.7378 68.7051 7.08369 105.449 15.8218 126.329C24.56 147.21 79.3815 144.32 138.269 119.875Z" fill="#EC4239" stroke="black" stroke-width="3" stroke-miterlimit="10"/>
<path d="M154.337 29.0736C140.148 31.9708 123.584 37.2507 106.656 44.2737C89.1489 51.5396 74.402 59.123 61.5295 67.4842C56.1198 45.5691 70.8348 22.1745 95.9549 13.31C118.861 5.21546 142.945 12.2702 154.337 29.0736Z" fill="#EC4239" stroke="black" stroke-width="3" stroke-miterlimit="10"/>
<path d="M226.659 322.937C226.659 322.937 216.07 321.161 230.328 312.536C245.614 303.289 239.517 315.322 239.517 315.322L242.599 315.309C242.599 315.309 251.812 292.659 265.541 302.125C279.269 311.591 262.523 324.107 251.584 330.603C240.644 337.101 230.22 346.368 226.659 322.937Z" fill="#A782F9" stroke="black" stroke-width="3" stroke-miterlimit="10"/>
<path d="M226.66 322.936C226.66 322.936 229.821 322.81 233.493 320.258L226.66 322.936Z" fill="white"/>
<path d="M226.66 322.936C226.66 322.936 229.821 322.81 233.493 320.258" stroke="black" stroke-width="3" stroke-miterlimit="10"/>
<path d="M237.398 317.53C237.398 317.53 238.304 317.122 239.514 315.322L237.398 317.53Z" fill="white"/>
<path d="M237.398 317.53C237.398 317.53 238.304 317.122 239.514 315.322" stroke="black" stroke-width="3" stroke-miterlimit="10"/>
<path d="M242.597 315.309L240.23 322.874" stroke="black" stroke-width="3" stroke-miterlimit="10"/>
<path d="M242.6 315.309L245.422 321.247" stroke="black" stroke-width="3" stroke-miterlimit="10"/>
<path d="M255.463 303.259C256.689 302.714 258.055 302.551 259.416 302.627C260.782 302.711 262.13 303.176 263.34 303.864C264.476 304.651 265.562 305.586 266.219 306.791C266.608 307.353 266.807 308.01 267.089 308.61C267.271 309.255 267.427 309.902 267.53 310.548L267.454 310.574C267.204 309.982 266.988 309.374 266.71 308.794C266.373 308.248 266.133 307.64 265.712 307.15C265.002 306.075 264 305.223 262.924 304.543C260.742 303.17 257.994 302.849 255.48 303.337L255.463 303.259Z" fill="white"/>
<path d="M199.822 259.635C210.897 261.671 218.67 267.107 224.4 276.994C230.124 286.871 233.344 300.372 234.472 311.663C235.199 318.927 223.878 320.565 223.146 313.244C222.285 304.627 219.913 295.059 216.627 287.066C213.117 278.535 207.585 272.623 198.447 270.941C191.245 269.617 192.56 258.3 199.822 259.635Z" fill="black" stroke="black" stroke-width="3" stroke-miterlimit="10"/>
<path d="M94.8831 297.984C94.8831 297.984 104.101 293.68 97.6565 308.066C90.7485 323.49 88.9824 310.831 88.9824 310.831L86.5867 312.498C86.5867 312.498 91.6745 335.108 75.8422 335.105C60.0098 335.102 66.2867 316.345 71.2963 305.402C76.306 294.456 79.4125 281.63 94.8831 297.984Z" fill="#A782F9" stroke="black" stroke-width="3" stroke-miterlimit="10"/>
<path d="M94.8842 297.982C94.8842 297.982 92.487 299.779 91.0078 303.742L94.8842 297.982Z" fill="white"/>
<path d="M94.8842 297.982C94.8842 297.982 92.487 299.779 91.0078 303.742" stroke="black" stroke-width="3" stroke-miterlimit="10"/>
<path d="M89.4347 307.973C89.4347 307.973 88.9501 308.776 88.982 310.832L89.4347 307.973Z" fill="white"/>
<path d="M89.4347 307.973C89.4347 307.973 88.9501 308.776 88.982 310.832" stroke="black" stroke-width="3" stroke-miterlimit="10"/>
<path d="M86.5858 312.495L84.332 305.326" stroke="black" stroke-width="3" stroke-miterlimit="10"/>
<path d="M86.5857 312.498L81.168 309.385" stroke="black" stroke-width="3" stroke-miterlimit="10"/>
<path d="M83.0825 328.807C82.4322 329.9 81.4567 330.769 80.3537 331.448C79.2411 332.125 77.9341 332.486 76.6128 332.604C75.2946 332.599 73.9366 332.452 72.7699 331.858C72.161 331.626 71.6493 331.216 71.1058 330.897C70.6165 330.486 70.1463 330.062 69.7207 329.608L69.7685 329.545C70.2849 329.872 70.7823 330.231 71.3114 330.532C71.8693 330.778 72.3857 331.123 72.9803 331.278C74.1151 331.736 75.3584 331.861 76.565 331.812C79.0084 331.712 81.3244 330.486 83.0203 328.756L83.0825 328.807Z" fill="white"/>
<path d="M139.174 271.582C137.134 263.527 127.336 268.319 129.364 276.325C131.329 284.08 131.193 297.538 126.664 303.531C118.622 314.169 105.337 305.668 100.984 302.423C99.7775 301.523 98.1724 301.291 96.7984 301.91C95.1631 302.647 93.8545 304.006 93.2344 305.725C92.3658 308.135 92.9874 310.865 94.8268 312.723C97.5492 315.136 104.688 320.404 114.636 321.382C121.627 322.07 128.458 320.104 133.492 314.132C141.906 304.145 142.598 285.088 139.174 271.582Z" fill="black" stroke="black" stroke-width="3" stroke-miterlimit="10"/>
<path d="M289.844 129.152C268.895 140.933 246.703 149.731 223.38 155.548C216.076 157.371 218.853 168.688 226.17 166.862C250.457 160.803 273.74 151.583 295.554 139.316C302.108 135.632 296.426 125.451 289.844 129.152Z" fill="black"/>
<path d="M312.755 124.611C312.755 124.611 334.841 111.68 329.069 105.747C324.594 101.15 305.475 116.745 305.475 116.745C305.475 116.745 290.52 109.45 285.017 128.634C285.017 128.634 279.195 127.11 279.058 131.929C279.007 133.734 280.265 143.223 285.321 148.418C287.435 150.589 290.802 150.969 293.438 149.456L295.386 148.337C295.386 148.337 300.239 153.581 306.609 149.301C306.609 149.301 325.733 149.236 319.53 136.301C320.163 135.808 321.672 134.49 322.32 132.255C322.458 131.783 323.49 128.004 321.04 125.481C319.081 123.468 315.668 123.048 312.755 124.611Z" fill="white" stroke="black" stroke-width="3" stroke-miterlimit="10"/>
<path d="M319.532 136.305C316.539 138.181 312.595 139.889 309.003 139.369C307.038 139.085 305.434 137.972 304.462 136.247C303.238 134.075 302.687 131.636 304.413 129.616C306.832 126.782 311.041 125.1 314.517 124.026" fill="white"/>
<path d="M319.532 136.305C316.539 138.181 312.595 139.889 309.003 139.369C307.038 139.085 305.434 137.972 304.462 136.247C303.238 134.075 302.687 131.636 304.413 129.616C306.832 126.782 311.041 125.1 314.517 124.026" stroke="black" stroke-width="3" stroke-miterlimit="10"/>
<path d="M307.389 149.26C306.917 149.117 305.226 148.339 304.17 146.911C303.909 146.557 303.06 145.324 303.067 143.65C303.08 140.465 306.179 138.662 306.32 138.583" fill="white"/>
<path d="M307.389 149.26C306.917 149.117 305.226 148.339 304.17 146.911C303.909 146.557 303.06 145.324 303.067 143.65C303.08 140.465 306.179 138.662 306.32 138.583" stroke="black" stroke-width="3" stroke-miterlimit="10"/>
<path d="M305.476 116.745C307.084 118.204 308.572 119.819 309.925 121.514C312.672 124.955 317.304 130.811 312.994 134.715C308.766 138.545 302.868 132.151 299.119 127.497C299.119 127.497 303.666 134.44 295.909 139.576" fill="white"/>
<path d="M305.476 116.745C307.084 118.204 308.572 119.819 309.925 121.514C312.672 124.955 317.304 130.811 312.994 134.715C308.766 138.545 302.868 132.151 299.119 127.497C299.119 127.497 303.666 134.44 295.909 139.576" stroke="black" stroke-width="3" stroke-miterlimit="10"/>
<path d="M295.383 148.34C295.383 148.34 293.436 148.333 290.803 144.4L295.383 148.34Z" fill="white"/>
<path d="M295.383 148.34C295.383 148.34 293.436 148.333 290.803 144.4" stroke="black" stroke-width="3" stroke-miterlimit="10"/>
<path d="M286.168 136.4C286.168 136.4 284.475 133.605 285.016 128.636L286.168 136.4Z" fill="white"/>
<path d="M286.168 136.4C286.168 136.4 284.475 133.605 285.016 128.636" stroke="black" stroke-width="3" stroke-miterlimit="10"/>
<path d="M163.64 281.193C162.934 281.39 162.21 281.572 161.483 281.741C85.1605 299.866 44.1268 232.488 58.6203 177.367C58.6203 177.367 58.9486 156.884 56.8287 134.647C54.7072 112.409 66.0463 74.0623 109.667 59.4813C112.987 58.3638 116.479 57.4351 120.067 56.6953C118.382 57.1493 116.72 57.6462 115.097 58.1986C71.4768 72.778 60.1265 111.144 62.2448 133.366C64.3663 155.603 64.0396 176.102 64.0396 176.102C49.7549 230.421 89.4003 296.653 163.64 281.193Z" fill="#F9DD06" stroke="black" stroke-width="3" stroke-miterlimit="10"/>
<path d="M64.0316 176.097C64.0316 176.097 64.3647 155.606 62.2432 133.373C60.1233 111.141 71.4688 72.7872 115.088 58.1983C155.152 44.7984 217.827 56.7188 229.808 127.996C242.21 201.784 243.232 262.354 166.906 280.469C90.5782 298.585 49.5461 231.217 64.0316 176.097Z" fill="#F9DD06" stroke="black" stroke-width="3" stroke-miterlimit="10"/>
<path d="M68.877 133.606C78.4612 130.15 79.545 133.131 89.1292 129.675C98.7102 126.221 97.6264 123.241 107.207 119.785C116.792 116.329 117.874 119.311 127.458 115.855C137.045 112.397 135.962 109.417 145.549 105.961C155.133 102.506 156.215 105.487 165.8 102.031C175.39 98.5734 174.306 95.5921 183.897 92.1346C193.487 88.6771 194.571 91.6567 204.162 88.1992" stroke="#FDF2A0" stroke-width="3" stroke-miterlimit="10"/>
<path d="M78.6152 172.926C88.1994 169.47 89.2833 172.451 98.8675 168.995C108.449 165.541 107.365 162.56 116.946 159.106C126.53 155.65 127.612 158.631 137.196 155.175C146.784 151.719 145.7 148.738 155.287 145.282C164.871 141.826 165.954 144.807 175.538 141.351C185.128 137.894 184.045 134.912 193.635 131.455C203.226 127.997 204.31 130.977 213.9 127.52" stroke="#FDF2A0" stroke-width="3" stroke-miterlimit="10"/>
<path d="M84.6426 217.576C94.2268 214.121 95.3106 217.102 104.895 213.646C114.476 210.192 113.392 207.21 122.973 203.756C132.557 200.3 133.639 203.281 143.224 199.825C152.811 196.369 151.727 193.388 161.315 189.932C170.899 186.476 171.981 189.458 181.565 186.002C191.156 182.544 190.072 179.563 199.663 176.105C209.253 172.648 210.337 175.627 219.928 172.17" stroke="#FDF2A0" stroke-width="3" stroke-miterlimit="10"/>
<path d="M103.369 247.484C111.788 244.552 112.839 247.545 121.256 244.613C129.673 241.681 128.625 238.688 137.042 235.758C145.463 232.826 146.513 235.818 154.934 232.884C163.358 229.951 162.307 226.958 170.731 224.025C179.152 221.093 180.202 224.084 188.624 221.151C197.051 218.216 196.001 215.225 204.428 212.29C212.855 209.355 213.905 212.347 222.332 209.412" stroke="#FDF2A0" stroke-width="3" stroke-miterlimit="10"/>
<path d="M81.2812 95.5598C87.4385 93.3135 88.532 96.29 94.6892 94.0437C100.847 91.7975 99.7515 88.8209 105.909 86.5762C112.068 84.33 113.161 87.3065 119.32 85.0602C125.48 82.8124 124.385 79.8374 130.548 77.5896C136.706 75.3433 137.801 78.3198 143.959 76.0735C150.122 73.8256 149.027 70.8491 155.189 68.6012C161.353 66.3534 162.446 69.3299 168.61 67.082" stroke="#FDF2A0" stroke-width="3" stroke-miterlimit="10"/>
<path d="M128.576 271.788C134.733 269.542 135.827 272.518 141.984 270.272C148.141 268.026 147.046 265.049 153.204 262.804C159.363 260.558 160.456 263.535 166.615 261.288C172.775 259.04 171.682 256.066 177.842 253.818C184.001 251.571 185.096 254.548 191.254 252.3C197.417 250.052 196.322 247.076 202.486 244.828C208.65 242.58 209.743 245.556 215.907 243.309" stroke="#FDF2A0" stroke-width="3" stroke-miterlimit="10"/>
<path d="M132.282 122.575C135.854 140.602 134.103 157.123 128.551 165.821C126.382 169.208 123.645 171.397 120.404 172.034C108.881 174.299 95.5139 155.826 90.5505 130.777C85.5871 105.728 90.9044 83.583 102.428 81.3176C105.495 80.7144 108.688 81.5764 111.805 83.629C120.454 89.3233 128.635 104.171 132.282 122.575Z" fill="white" stroke="black" stroke-width="3" stroke-miterlimit="10"/>
<path d="M111.801 83.6309C101.206 87.1852 96.1469 106.745 100.471 128.566C100.613 129.282 100.764 129.991 100.922 130.696L118.604 128.363L103.987 141.026C109.77 156.513 119.522 166.784 128.546 165.822C134.098 157.125 135.85 140.604 132.278 122.576C128.632 104.171 120.451 89.3235 111.801 83.6309Z" fill="black" stroke="black" stroke-width="3" stroke-miterlimit="10"/>
<path d="M208.194 107.655C211.766 125.682 210.015 142.203 204.463 150.901C202.292 154.288 199.557 156.477 196.317 157.114C184.793 159.379 171.426 140.906 166.463 115.857C161.499 90.8083 166.816 68.663 178.34 66.3977C181.407 65.7945 184.6 66.6565 187.717 68.7091C196.368 74.4033 204.548 89.2495 208.194 107.655Z" fill="white" stroke="black" stroke-width="3" stroke-miterlimit="10"/>
<path d="M187.719 68.709C177.124 72.2633 172.065 91.8226 176.389 113.644C176.531 114.36 176.682 115.07 176.84 115.773L194.521 113.439L179.905 126.103C185.69 141.59 195.44 151.861 204.464 150.899C210.016 142.201 211.768 125.68 208.196 107.653C204.549 89.2494 196.369 74.4033 187.719 68.709Z" fill="black" stroke="black" stroke-width="3" stroke-miterlimit="10"/>
<path d="M192.433 174.78C192.405 174.814 192.374 174.835 192.347 174.87C182.455 184.341 167.852 188.884 153.803 188.197C148.798 187.954 143.204 187.017 138.106 185.206C130.153 182.409 123.433 177.477 122.142 169.706C120.972 162.504 126.825 159.335 134.034 157.978C142.777 156.341 151.629 157.67 160.407 156.598C169.615 155.474 176.963 149.785 186.01 148.364C192.239 147.386 200.451 148.874 202.158 154.961C204.137 162.029 197.641 169.776 192.433 174.78Z" fill="black" stroke="black" stroke-width="3" stroke-miterlimit="10"/>
<path d="M192.432 174.78C192.404 174.815 192.373 174.836 192.346 174.871C182.455 184.342 167.851 188.885 153.802 188.198C148.797 187.955 143.203 187.018 138.105 185.207C142.235 177.5 151.453 171.062 163.022 168.838C174.636 166.594 185.652 169.134 192.432 174.78Z" fill="#EC4239" stroke="black" stroke-width="3" stroke-miterlimit="10"/>
<path d="M97.8652 159.153C116.715 156.159 129.842 163.605 130.711 173.736C131.58 183.869 120.583 193.076 106.149 194.303" fill="#F9DD06"/>
<path d="M97.8652 159.153C116.715 156.159 129.842 163.605 130.711 173.736C131.58 183.869 120.583 193.076 106.149 194.303" stroke="black" stroke-width="3" stroke-miterlimit="10"/>
<path d="M216.064 137.15C201.966 141.443 191.972 151.174 194.229 161.523C196.486 171.872 210.619 174.945 220.178 175.399" fill="#F9DD06"/>
<path d="M216.064 137.15C201.966 141.443 191.972 151.174 194.229 161.523C196.486 171.872 210.619 174.945 220.178 175.399" stroke="black" stroke-width="3" stroke-miterlimit="10"/>
<path d="M104.106 170.834C102.145 171.211 102.732 174.247 104.696 173.867C106.656 173.489 106.069 170.454 104.106 170.834Z" fill="black"/>
<path d="M120.151 168.628C118.19 169.006 118.777 172.041 120.74 171.662C122.701 171.284 122.114 168.249 120.151 168.628Z" fill="black"/>
<path d="M114.733 178.543C112.772 178.92 113.359 181.956 115.322 181.576C117.283 181.198 116.696 178.163 114.733 178.543Z" fill="black"/>
<path d="M204.313 152.988C202.352 153.365 202.939 156.401 204.903 156.021C206.861 155.643 206.277 152.61 204.313 152.988Z" fill="black"/>
<path d="M220.36 150.781C218.399 151.158 218.986 154.192 220.949 153.814C222.908 153.436 222.322 150.403 220.36 150.781Z" fill="black"/>
<path d="M214.94 160.697C212.979 161.074 213.566 164.11 215.529 163.73C217.49 163.354 216.903 160.319 214.94 160.697Z" fill="black"/>
<path d="M152.352 133.041L153.981 141.148C153.981 141.148 167.001 137.789 168.423 144.593C169.845 151.395 154.255 151.37 154.255 151.37" fill="#FC7ADA"/>
<path d="M152.352 133.041L153.981 141.148C153.981 141.148 167.001 137.789 168.423 144.593C169.845 151.395 154.255 151.37 154.255 151.37" stroke="black" stroke-width="3" stroke-miterlimit="10"/>
<path d="M126.964 254.304C117.452 259.044 107.597 263.105 97.2808 265.662C85.8126 268.504 71.74 270.044 62.8603 260.52C52.8808 249.816 55.2637 232.881 59.486 220.207C64.0446 206.522 72.6246 195.215 82.2869 184.696C87.6727 178.832 77.5131 171.714 72.1815 177.521C52.1619 199.317 28.8701 241.369 53.3255 268.439C73.3371 290.587 107.812 278.103 132.959 265.215C130.807 261.662 128.823 258.015 126.964 254.304Z" fill="black"/>
<path d="M182.482 198.048L192.532 191.912L195.653 202.572L184.652 204.637L182.482 198.048Z" fill="#409900" stroke="black" stroke-width="3" stroke-miterlimit="10"/>
<path d="M120.697 220.764L141.793 278.321L155.634 275.1L145.194 216.236L120.697 220.764Z" fill="#A782F9" stroke="black" stroke-width="3" stroke-miterlimit="10"/>
<path d="M185.565 201.534C187.025 207.449 178.93 214.891 165.727 221.006C161.966 222.755 157.77 224.4 153.263 225.843C150.196 226.854 146.976 227.78 143.644 228.591C140.838 229.272 138.073 229.864 135.373 230.34C131.061 231.104 126.893 231.634 122.99 231.899C107.196 233.009 95.4468 230.156 93.9103 223.909C92.4025 217.767 101.159 209.982 115.277 203.74C118.93 202.118 122.966 200.597 127.277 199.257C130.009 198.372 132.878 197.576 135.832 196.852C139.134 196.049 142.394 195.386 145.564 194.859C150.532 194.025 155.278 193.544 159.643 193.376C173.826 192.841 184.143 195.705 185.565 201.534Z" fill="#FC7ADA" stroke="black" stroke-width="3" stroke-miterlimit="10"/>
<path d="M165.726 221.007C161.964 222.756 157.769 224.401 153.261 225.844C153.911 210.603 150.076 200.921 145.562 194.86C150.531 194.026 155.276 193.545 159.642 193.377C163.309 199.351 166.127 208.16 165.726 221.007Z" fill="#B697FA" stroke="black" stroke-width="3" stroke-miterlimit="10"/>
<path d="M135.371 230.341C131.06 231.104 126.892 231.634 122.988 231.9C123.095 218.285 119.493 209.437 115.275 203.741C118.929 202.118 122.964 200.598 127.276 199.258C131.906 205.224 135.963 214.893 135.371 230.341Z" fill="#B697FA" stroke="black" stroke-width="3" stroke-miterlimit="10"/>
<path d="M90.358 218.932L95.0218 232.181L91.4227 233.227C90.0567 233.624 88.6206 232.865 88.1855 231.516L85.5492 223.35C85.0375 221.767 85.9652 220.079 87.5814 219.657L90.358 218.932Z" fill="#409900" stroke="black" stroke-width="3" stroke-miterlimit="10"/>
<path d="M97.6574 212.416L105.004 232.925L99.4314 234.576C97.3163 235.203 95.0832 234.037 94.3962 231.948L90.2377 219.307C89.4312 216.856 90.8561 214.234 93.357 213.565L97.6574 212.416Z" fill="#409900" stroke="black" stroke-width="3" stroke-miterlimit="10"/>
<path d="M120.145 251.294C120.145 251.294 113.947 249.876 113.505 254.615C113.064 259.354 121.333 277.243 127.728 276.065C131.811 275.313 131.976 272.153 131.976 272.153C154.797 275.138 166.64 257.46 161.38 253.24C160.803 252.777 160.4 252.589 160.4 252.589C162.041 244.906 156.179 244.474 156.179 244.474C157.113 240.794 155.86 239.042 154.431 238.208C153.101 237.434 151.499 237.807 150.514 238.982C144.486 246.168 129.924 246.69 129.924 246.69C129.924 246.69 128.313 234.472 122.463 235.711C118.882 236.47 119.229 245.49 120.534 251.937" fill="white"/>
<path d="M120.145 251.294C120.145 251.294 113.947 249.876 113.505 254.615C113.064 259.354 121.333 277.243 127.728 276.065C131.811 275.313 131.976 272.153 131.976 272.153C154.797 275.138 166.64 257.46 161.38 253.24C160.803 252.777 160.4 252.589 160.4 252.589C162.041 244.906 156.179 244.474 156.179 244.474C157.113 240.794 155.86 239.042 154.431 238.208C153.101 237.434 151.499 237.807 150.514 238.982C144.486 246.168 129.924 246.69 129.924 246.69C129.924 246.69 128.313 234.472 122.463 235.711C118.882 236.47 119.229 245.49 120.534 251.937" stroke="black" stroke-width="3" stroke-miterlimit="10"/>
<path d="M141.131 253.32C141.131 253.32 149.61 252.622 156.176 244.477" stroke="black" stroke-width="3" stroke-miterlimit="10"/>
<path d="M144.34 261.959C144.34 261.959 152.679 260.758 160.399 252.592" stroke="black" stroke-width="3" stroke-miterlimit="10"/>
<path d="M120.438 251.736L123.16 257.851" stroke="black" stroke-width="3" stroke-miterlimit="10"/>
<path d="M128.992 267.887L131.971 272.155" stroke="black" stroke-width="3" stroke-miterlimit="10"/>
<path d="M221.717 165.525C221.315 165.09 220.792 164.722 220.139 164.449C218.425 163.736 216.351 163.771 214.592 164.291C211.371 165.244 208.406 167.325 206.099 169.721C202.18 173.791 199.961 179.16 198.696 184.584C198.304 186.265 197.961 187.956 197.664 189.656C197.572 190.183 197.48 191.029 197.328 191.748C199.445 188.396 201.638 185.038 204.427 182.192C207.768 178.782 211.839 177.277 216.124 175.456C219.552 173.997 225.601 169.733 221.717 165.525Z" fill="#17B5E5" stroke="black" stroke-width="3" stroke-miterlimit="10"/>
<path d="M218.345 171.526C218.601 171.853 219.097 171.853 219.405 171.609C220.211 170.97 220.793 170.075 220.887 169.038C220.975 168.062 220.651 167.089 220.187 166.243C219.985 165.875 219.575 165.725 219.183 165.892C218.823 166.044 218.641 166.548 218.831 166.892C218.935 167.083 219.032 167.276 219.118 167.475C219.161 167.575 219.199 167.676 219.237 167.78C219.241 167.786 219.241 167.788 219.242 167.792C219.255 167.834 219.268 167.876 219.279 167.918C219.328 168.097 219.365 168.28 219.387 168.464C219.392 168.508 219.394 168.554 219.4 168.599C219.4 168.683 219.4 168.767 219.394 168.851C219.387 168.938 219.378 169.026 219.362 169.113C219.357 169.138 219.352 169.165 219.347 169.191C219.343 169.21 219.344 169.208 219.344 169.208C219.338 169.226 219.33 169.245 219.325 169.258C219.3 169.343 219.268 169.427 219.234 169.508C219.217 169.55 219.198 169.591 219.178 169.631L219.177 169.632C219.059 169.791 218.962 169.958 218.833 170.11C218.828 170.115 218.829 170.113 218.821 170.12C218.775 170.164 218.731 170.21 218.683 170.253C218.6 170.329 218.514 170.401 218.426 170.469C218.098 170.729 218.101 171.216 218.345 171.526Z" fill="white"/>
<path d="M233.927 217.495C234.224 216.982 234.42 216.376 234.484 215.672C234.651 213.831 233.994 211.872 232.968 210.356C231.087 207.583 228.203 205.392 225.217 203.922C220.141 201.423 214.332 200.928 208.758 201.357C207.032 201.488 205.307 201.672 203.59 201.901C203.058 201.973 202.22 202.138 201.486 202.211C205.334 203.214 209.207 204.289 212.773 206.081C217.041 208.229 219.706 211.643 222.74 215.166C225.162 217.985 231.065 222.449 233.927 217.495Z" fill="#17B5E5" stroke="black" stroke-width="3" stroke-miterlimit="10"/>
<path d="M227.166 216.095C226.93 216.436 227.08 216.908 227.405 217.127C228.259 217.702 229.291 217.984 230.312 217.762C231.273 217.552 232.109 216.952 232.78 216.257C233.071 215.954 233.09 215.52 232.815 215.198C232.56 214.901 232.024 214.881 231.752 215.163C231.602 215.319 231.446 215.47 231.28 215.611C231.197 215.682 231.111 215.749 231.023 215.816C231.017 215.82 231.017 215.82 231.012 215.824C230.975 215.849 230.939 215.873 230.902 215.897C230.746 215.997 230.582 216.087 230.413 216.163C230.371 216.182 230.328 216.197 230.288 216.216C230.207 216.241 230.127 216.267 230.045 216.286C229.958 216.306 229.872 216.322 229.785 216.335C229.759 216.338 229.732 216.341 229.707 216.344C229.687 216.346 229.689 216.346 229.689 216.346C229.67 216.344 229.649 216.343 229.636 216.343C229.547 216.343 229.458 216.34 229.369 216.332C229.324 216.327 229.279 216.321 229.235 216.316L229.233 216.314C229.045 216.249 228.855 216.208 228.672 216.13C228.666 216.127 228.669 216.128 228.659 216.124C228.602 216.093 228.546 216.065 228.49 216.033C228.393 215.978 228.299 215.917 228.207 215.855C227.854 215.622 227.389 215.77 227.166 216.095Z" fill="white"/>
<path d="M236.775 189.938C236.72 189.349 236.531 188.741 236.175 188.128C235.248 186.526 233.579 185.299 231.862 184.65C228.722 183.461 225.098 183.323 221.805 183.833C216.21 184.699 211.175 187.625 206.863 191.17C205.528 192.268 204.224 193.407 202.953 194.578C202.558 194.942 201.97 195.558 201.412 196.037C205.137 194.651 208.927 193.31 212.879 192.732C217.611 192.041 221.765 193.305 226.279 194.448C229.892 195.364 237.299 195.631 236.775 189.938Z" fill="#17B5E5" stroke="black" stroke-width="3" stroke-miterlimit="10"/>
<path d="M230.44 192.668C230.444 193.082 230.84 193.382 231.232 193.374C232.261 193.354 233.269 192.993 233.976 192.227C234.641 191.504 234.977 190.534 235.124 189.58C235.188 189.166 234.954 188.799 234.541 188.695C234.161 188.598 233.71 188.888 233.651 189.276C233.618 189.49 233.578 189.703 233.524 189.912C233.497 190.019 233.465 190.122 233.433 190.226C233.43 190.234 233.43 190.234 233.428 190.241C233.412 190.282 233.398 190.323 233.38 190.363C233.31 190.534 233.229 190.703 233.133 190.861C233.111 190.9 233.082 190.936 233.062 190.976C233.009 191.042 232.958 191.109 232.902 191.173C232.843 191.239 232.783 191.301 232.717 191.361C232.698 191.379 232.679 191.396 232.658 191.414C232.644 191.427 232.646 191.427 232.646 191.427C232.63 191.436 232.612 191.447 232.601 191.455C232.528 191.508 232.453 191.555 232.375 191.6C232.335 191.622 232.295 191.642 232.257 191.665C232.253 191.665 232.257 191.663 232.253 191.665C232.062 191.719 231.884 191.793 231.688 191.836C231.68 191.838 231.684 191.836 231.673 191.838C231.609 191.846 231.546 191.854 231.482 191.86C231.37 191.871 231.259 191.874 231.147 191.877C230.728 191.887 230.433 192.274 230.44 192.668Z" fill="white"/>
<path d="M74.3045 115.41C77.1879 120.76 79.6871 126.518 81.4707 132.425C82.8191 136.892 85.0809 143.491 81.2603 147.418C79.0878 149.652 75.6035 149.849 73.3832 147.745C70.7867 145.283 70.8313 140.832 70.86 137.362C70.9174 130.324 72.3121 123.171 74.0542 116.369C74.1355 116.05 74.2168 115.729 74.3045 115.41Z" fill="#17B5E5" stroke="black" stroke-width="3" stroke-miterlimit="10"/>
<path d="M78.0793 145.144C79.5936 142.993 79.9936 140.205 78.9735 137.837C78.7456 137.307 78.7918 136.673 79.3003 136.313C79.7195 136.014 80.4718 136.076 80.7013 136.61C81.4074 138.251 81.7023 139.975 81.4871 141.812C81.2815 143.561 80.5515 145.182 79.5569 146.593C79.219 147.074 78.4906 147.059 78.1192 146.693C77.6888 146.271 77.7398 145.627 78.0793 145.144Z" fill="white"/>
<path d="M190.478 218.396C192.314 223.322 193.771 228.553 194.599 233.827C195.225 237.814 196.377 243.741 192.635 246.655C190.507 248.313 187.496 248.071 185.843 246.007C183.91 243.591 184.477 239.78 184.914 236.808C185.8 230.782 187.845 224.815 190.147 219.189C190.258 218.925 190.367 218.66 190.478 218.396Z" fill="#17B5E5" stroke="black" stroke-width="3" stroke-miterlimit="10"/>
<path d="M190.18 244.331C191.734 242.665 192.409 240.322 191.816 238.173C191.683 237.692 191.798 237.155 192.276 236.905C192.672 236.698 193.309 236.839 193.443 237.324C193.853 238.814 193.902 240.327 193.499 241.876C193.115 243.353 192.295 244.656 191.277 245.748C190.929 246.12 190.308 246.021 190.032 245.664C189.712 245.251 189.833 244.704 190.18 244.331Z" fill="white"/>
<path d="M281.596 168.059C283.432 172.986 284.889 178.215 285.718 183.489C286.342 187.477 287.496 193.403 283.754 196.317C281.626 197.975 278.615 197.733 276.962 195.67C275.029 193.253 275.596 189.442 276.033 186.47C276.919 180.444 278.964 174.477 281.266 168.851C281.374 168.586 281.483 168.321 281.596 168.059Z" fill="#17B5E5" stroke="black" stroke-width="3" stroke-miterlimit="10"/>
<path d="M281.298 193.993C282.852 192.328 283.526 189.984 282.933 187.835C282.801 187.354 282.916 186.816 283.394 186.567C283.789 186.36 284.427 186.502 284.561 186.986C284.972 188.476 285.02 189.989 284.616 191.539C284.232 193.015 283.413 194.318 282.395 195.41C282.047 195.782 281.425 195.683 281.15 195.326C280.829 194.912 280.949 194.366 281.298 193.993Z" fill="white"/>
<path d="M33.5213 234.381C36.4047 239.731 38.9039 245.488 40.6875 251.395C42.0375 255.863 44.2977 262.463 40.4771 266.389C38.3046 268.623 34.8187 268.82 32.6 266.716C30.0035 264.254 30.0481 259.803 30.0768 256.332C30.1342 249.295 31.5289 242.142 33.271 235.341C33.3523 235.021 33.4336 234.7 33.5213 234.381Z" fill="#17B5E5" stroke="black" stroke-width="3" stroke-miterlimit="10"/>
<path d="M37.2959 264.115C38.8101 261.964 39.2102 259.176 38.1901 256.808C37.9622 256.277 38.0084 255.644 38.5169 255.284C38.9361 254.985 39.69 255.047 39.9195 255.58C40.6256 257.222 40.9205 258.946 40.7053 260.783C40.4997 262.532 39.7697 264.153 38.7767 265.564C38.4388 266.045 37.7103 266.029 37.3374 265.664C36.9054 265.242 36.9564 264.597 37.2959 264.115Z" fill="white"/>
</svg>
