<svg width="270" height="147" viewBox="0 0 270 147" fill="none" xmlns="http://www.w3.org/2000/svg">
<path d="M2.32733 44.293L85.6795 43.3061C85.6795 43.3061 86.3356 9.38651 64.2828 18.833C64.2828 18.833 64.0756 5.27536 47.5303 2.52482C41.2951 1.48811 34.9397 3.72731 30.467 8.89047C27.946 11.8017 25.8868 15.7445 25.75 20.9102C25.75 20.9102 -1.25519 9.27174 2.32733 44.293Z" fill="white" stroke="black" stroke-width="3" stroke-miterlimit="10"/>
<path d="M194.083 94.818L267.999 93.9432C267.999 93.9432 268.579 63.8645 249.025 72.2411C249.025 72.2411 248.84 60.2188 234.169 57.7781C228.64 56.8587 223.003 58.8441 219.038 63.4233C216.802 66.0042 214.976 69.502 214.856 74.0824C214.856 74.0824 190.906 63.7612 194.083 94.818Z" fill="white" stroke="black" stroke-width="3" stroke-miterlimit="10"/>
<path d="M3.20526 144.689L61.9568 143.994C61.9568 143.994 62.4186 120.085 46.876 126.744C46.876 126.744 46.7302 117.188 35.0681 115.249C30.6734 114.518 26.193 116.095 23.0415 119.736C21.265 121.788 19.8133 124.568 19.7174 128.208C19.7174 128.208 0.680484 120.004 3.20526 144.689Z" fill="white" stroke="black" stroke-width="3" stroke-miterlimit="10"/>
</svg>
