<svg width="207" height="269" viewBox="0 0 207 269" fill="none" xmlns="http://www.w3.org/2000/svg">
<path d="M123.493 226.82C121.405 226.769 109.329 227.048 105.088 226.945C97.4212 226.759 86.6967 224.79 82.2764 217.583C76.3149 207.862 86.7645 195.005 93.6366 188.874C99.7503 183.418 94.4181 173.994 88.2673 179.482C77.9508 188.686 68.1037 203.636 69.4147 216.56C70.1987 224.292 74.486 230.855 80.5779 234.198C86.5394 237.47 92.9946 238.42 99.6992 238.326C101.827 238.297 109.574 238.871 109.695 238.633C109.695 238.633 97.9175 261.797 115.276 267.001L123.493 226.82Z" fill="#F9DF15" stroke="#13120F" stroke-width="3" stroke-miterlimit="10"/>
<path d="M167.955 226.699L159.499 266.876C142.124 261.9 154.061 238.655 154.061 238.655C153.928 238.897 146.168 238.412 144.039 238.468C138.058 238.612 132.291 237.949 126.891 235.549C126.22 235.258 125.547 234.929 124.886 234.576C124.21 234.21 123.548 233.807 122.922 233.364C117.891 229.851 114.447 223.961 113.789 217.118C113.332 212.38 114.39 207.357 116.425 202.439C119.928 193.972 126.326 185.799 132.895 179.909C135.143 177.898 137.273 177.841 138.767 178.856L135.574 191.765C132.797 194.593 129.872 198.189 127.786 202.021C124.914 207.315 123.654 213.084 126.684 217.987C131.067 225.123 141.809 226.962 149.498 227.05C153.75 227.098 165.863 226.679 167.955 226.699Z" fill="#F9DF15" stroke="#13120F" stroke-width="3" stroke-miterlimit="10"/>
<path d="M171.833 104.761L130.205 206.577L71.7376 200.991L48.0566 101.098C56.612 106.507 75.4352 110.737 106.973 113.151C138.106 115.533 162.205 112.286 171.833 104.761Z" fill="#F9DF15" stroke="#13120F" stroke-width="3" stroke-miterlimit="10"/>
<path d="M72.6836 109.074L81.8221 202.288" stroke="#13120F" stroke-width="3" stroke-miterlimit="10"/>
<path d="M107.982 113.395L99.4023 203.492" stroke="#13120F" stroke-width="3" stroke-miterlimit="10"/>
<path d="M142.552 113.178L118.141 205.368" stroke="#13120F" stroke-width="3" stroke-miterlimit="10"/>
<path d="M52.6816 120.828C69.4431 123.832 87.7945 126.555 107.571 128.669C125.504 130.586 145.099 131.643 160.751 132.3" stroke="#13120F" stroke-width="3" stroke-miterlimit="10"/>
<path d="M57.6094 141.568C71.1043 144.495 86.7492 147.249 104.224 149.202C122.329 151.224 138.725 151.976 152.918 152.057" stroke="#13120F" stroke-width="3" stroke-miterlimit="10"/>
<path d="M62.4824 161.951C72.2746 165.121 85.8321 168.697 102.335 170.686C119.729 172.782 134.444 172.401 145.021 171.533" stroke="#13120F" stroke-width="3" stroke-miterlimit="10"/>
<path d="M67.8203 183.785C76.7747 186.505 87.8817 189.268 100.813 191.189C114.281 193.188 126.218 193.751 135.93 193.711" stroke="#13120F" stroke-width="3" stroke-miterlimit="10"/>
<path d="M157.143 139.472L157.119 139.47L142.45 175.353C132.62 176.966 119.572 177.604 102.452 175.989C86.5886 174.501 74.1297 171.772 64.4476 168.656L55.1261 129.336L55.089 129.332C30.8312 133.619 14.181 144.09 12.2625 161.534C9.27856 188.666 48.1555 211.851 98.385 216.883C148.616 221.915 191.433 206.917 194.161 179.756C195.87 162.75 180.963 148.758 157.143 139.472Z" fill="#409900" stroke="#13120F" stroke-width="3" stroke-miterlimit="10"/>
<path d="M33.957 151.537C33.957 151.537 48.4815 170.915 102.447 175.987C156.255 181.045 169.814 163.965 169.814 163.965" stroke="#13120F" stroke-width="3" stroke-miterlimit="10"/>
<path d="M44.0771 189.403C38.9457 187.131 34.0586 184.06 30.5464 179.62C27.0892 175.25 25.5595 169.814 25.4892 164.303C25.4585 161.858 21.6355 161.561 21.6662 164.021C21.7481 170.481 23.4632 176.662 27.432 181.84C31.3573 186.961 36.9888 190.432 42.8211 193.015C45.0799 194.014 46.3154 190.395 44.0771 189.403Z" fill="#BEDCA8"/>
<path d="M187.172 178.104C186.067 177.802 185.216 178.482 184.815 179.438C182.987 183.782 180.528 187.859 177.221 191.244C173.86 194.687 169.845 197.359 165.764 199.871C163.669 201.16 165.591 204.467 167.698 203.17C172.121 200.449 176.508 197.508 180.122 193.749C183.821 189.902 186.453 185.343 188.51 180.454C188.91 179.503 188.079 178.352 187.172 178.104Z" fill="#BEDCA8"/>
<path d="M160.999 201.527C158.533 201.527 158.53 205.348 160.999 205.348C163.465 205.349 163.469 201.527 160.999 201.527Z" fill="#BEDCA8"/>
<path d="M182.967 120.814C181.749 118.24 180.058 115.852 179.043 113.195C178.116 110.768 177.56 106.726 177.164 103.598C177.133 102.266 177.049 100.998 176.923 99.7879C177.019 99.0929 177.085 98.389 177.085 97.6647C177.095 84.6133 163.122 85.3657 163.122 85.3657C163.122 85.3657 174.138 76.7787 169.164 62.7964C164.19 48.8129 147.568 50.9386 147.568 50.9386C156.767 24.1396 132.519 20.6125 132.519 20.6125C134.667 8.1783 127.44 5.01333 127.44 5.01333C112.318 -3.89757 99.7208 9.79266 99.7208 9.79266C99.7208 9.79266 115.906 -0.71857 116.399 16.7972C116.33 23.2049 111.031 25.9669 105.544 26.982C98.6516 28.2571 91.507 27.7688 84.7986 30.1265C77.9917 32.5188 72.2553 37.4741 71.2052 45.046C70.755 48.2875 71.1822 51.5991 72.3563 54.6213C72.6083 55.2691 73.4652 57.9724 74.2352 58.2275C74.2211 58.2224 70.0963 57.507 65.1951 57.887C53.3322 58.8064 46.9257 72.8142 54.193 82.3091C54.2634 82.4009 54.335 82.4927 54.4079 82.5845C54.4079 82.5845 39.3974 80.1477 38.4778 94.158C38.3128 96.6764 39.0073 99.0878 40.5996 101.374C39.7721 108.709 35.811 119.91 41.2826 125.503C44.7181 129.016 46.9385 125.622 47.9681 122.176C48.3083 121.039 49.8904 113.63 52.1683 114.316C54.3977 114.988 51.8959 120.604 56.7549 119.556C59.7695 118.905 60.3758 116.262 61.7443 121.5C63.1653 126.941 62.05 134.858 65.8525 139.29C68.133 141.949 70.7908 141.091 73.5381 139.11C74.9169 138.116 75.6229 137.19 76.3328 135.606C77.402 133.22 77.8753 126.895 79.9434 125.228C81.6855 123.821 83.9864 124.753 85.8589 123.185C87.0637 122.176 87.7966 120.537 88.2967 118.98C93.0674 119.669 98.1975 120.294 103.727 120.845C116.019 122.07 127.3 122.179 137.147 121.286C136.929 125.137 137.261 130.313 141.825 129.615C145.218 129.096 145.273 122.281 147.574 122.465C149.648 122.631 149.547 129.494 149.564 130.541C149.637 135.067 148.802 140.226 150.956 144.651C155.907 154.823 161.371 142.905 162.002 138.197C162.265 136.241 162.393 129.331 165.437 129.168C169.102 128.971 166.225 137.203 171.468 137.161C174.183 137.139 175.476 131.49 176.07 126.558C178.293 128.628 182.13 130.438 183.847 127.343C184.842 125.546 183.805 122.585 182.967 120.814Z" fill="#FEBEED" stroke="#13120F" stroke-width="3" stroke-miterlimit="10"/>
<path d="M74.2363 58.2285C74.2363 58.2285 87.4473 67.7732 101.831 63.0971" stroke="#13120F" stroke-width="3" stroke-miterlimit="10"/>
<path d="M54.1934 82.3105C54.1934 82.3105 66.1266 92.174 87.247 93.0615" stroke="#13120F" stroke-width="3" stroke-miterlimit="10"/>
<path d="M130.623 54.1886C130.623 54.1886 141.31 56.503 147.569 50.9395" stroke="#13120F" stroke-width="3" stroke-miterlimit="10"/>
<path d="M130.23 94.3839C130.23 94.3839 150.965 96.7774 163.122 85.3672" stroke="#13120F" stroke-width="3" stroke-miterlimit="10"/>
<path d="M127.68 21.0969C127.68 21.0969 130.417 20.212 132.518 20.6149" stroke="#13120F" stroke-width="3" stroke-miterlimit="10"/>
<path d="M57.6898 108.901C57.6898 108.901 47.9923 108.46 40.5996 101.375" stroke="#13120F" stroke-width="3" stroke-miterlimit="10"/>
<path d="M176.924 99.7891C176.924 99.7891 172.189 112.341 151.414 114.557" stroke="#13120F" stroke-width="3" stroke-miterlimit="10"/>
<path d="M65.2058 61.5773C64.6239 60.5712 63.4139 60.357 62.4342 60.8708C56.8858 63.7859 54.0822 70.7802 55.6797 76.8028C55.9649 77.8752 57.1314 78.5154 58.1776 78.2042C59.243 77.888 59.8685 76.7199 59.5833 75.6437C59.4016 74.9589 59.3454 74.6363 59.307 74.1938C59.2533 73.5588 59.2533 72.9187 59.3032 72.2823C59.307 72.2339 59.3326 72.0209 59.3326 72.0018C59.3454 71.9113 59.3594 71.8207 59.3748 71.7302C59.426 71.4318 59.4886 71.1347 59.5615 70.8401C59.6344 70.5456 59.7176 70.2535 59.8109 69.9641C59.8634 69.8034 59.9197 69.6453 59.9772 69.4859C59.99 69.4489 59.9964 69.4298 60.0002 69.4158C60.0118 69.3903 60.0182 69.3762 60.0335 69.3431C60.2829 68.7884 60.5553 68.249 60.8751 67.7325C61.2716 67.0924 61.2549 67.1077 61.7512 66.5454C61.9725 66.2941 62.204 66.0531 62.447 65.8236C62.5442 65.7318 62.6427 65.6413 62.7424 65.5533C62.7655 65.5329 62.942 65.3875 63.0085 65.3314C63.0686 65.288 63.1773 65.2077 63.1939 65.1949C63.3295 65.098 63.4676 65.0037 63.6083 64.9131C63.891 64.7308 64.1826 64.5663 64.4793 64.4094C65.4578 63.8968 65.734 62.4916 65.2058 61.5773Z" fill="#FDA1E5"/>
<path d="M167.846 93.4531C167.856 93.4736 167.89 93.5197 167.938 93.5722C167.919 93.5427 167.91 93.5325 167.897 93.5133C167.88 93.4928 167.862 93.4749 167.846 93.4531Z" fill="#FDA1E5"/>
<path d="M169.141 89.2088C168.236 88.6579 166.869 89.0137 166.371 89.993C165.854 91.0094 166.139 92.2157 167.109 92.8048C167.191 92.8545 167.269 92.9081 167.349 92.9591C167.5 93.0994 167.653 93.2345 167.792 93.3888C167.81 93.4092 167.829 93.4309 167.846 93.4526C167.837 93.4347 167.856 93.4564 167.897 93.5138C167.931 93.5584 167.965 93.6056 168.004 93.6413C167.979 93.6196 167.959 93.5954 167.939 93.5724C167.943 93.5788 167.944 93.5788 167.948 93.5852C168.062 93.7561 168.167 93.9333 168.263 94.1144C168.313 94.2075 168.356 94.3031 168.403 94.3988C168.465 94.5862 168.538 94.7711 168.594 94.9611C168.66 95.1868 168.717 95.4163 168.763 95.6471C168.783 95.7441 168.799 95.841 168.816 95.9392C168.816 95.9417 168.816 95.943 168.816 95.943C168.854 96.4046 168.884 96.8598 168.871 97.3227C168.865 97.5382 168.847 97.7512 168.833 97.9667C168.818 98.0623 168.804 98.158 168.787 98.2536C168.706 98.7063 168.594 99.1551 168.444 99.59C168.431 99.6295 168.416 99.669 168.401 99.7073C168.435 99.627 168.446 99.6117 168.392 99.7315C168.369 99.7889 168.346 99.8463 168.329 99.9037C168.342 99.859 168.359 99.8106 168.376 99.7672C168.371 99.7787 168.371 99.7774 168.366 99.7915C168.278 99.984 168.18 100.171 168.075 100.356C167.54 101.294 167.844 102.667 168.813 103.168C169.791 103.674 171.01 103.387 171.582 102.384C173.927 98.2715 173.354 91.7706 169.141 89.2088Z" fill="#FDA1E5"/>
<path d="M168.399 99.707C168.39 99.7275 168.384 99.7429 168.375 99.7672C168.383 99.7493 168.385 99.7441 168.392 99.7301C168.394 99.7237 168.395 99.7147 168.399 99.707Z" fill="#FDA1E5"/>
<path d="M140.393 27.4438C139.448 26.8955 138.17 27.2589 137.624 28.2281C137.073 29.2049 137.413 30.489 138.362 31.0398C138.509 31.1253 138.656 31.2132 138.798 31.3076C138.851 31.342 138.901 31.3803 138.952 31.4173C138.963 31.4262 138.953 31.4198 138.973 31.4377C139.214 31.657 139.434 31.8814 139.656 32.1199C139.692 32.1582 139.715 32.1811 139.736 32.2028C139.745 32.2206 139.755 32.2398 139.775 32.2729C139.858 32.4081 139.951 32.5381 140.031 32.6746C140.112 32.8123 140.188 32.9526 140.26 33.0941C140.282 33.1388 140.333 33.251 140.368 33.3237C140.591 33.8962 140.759 34.4943 140.874 35.1C140.892 35.1905 140.914 35.3269 140.924 35.3741C140.941 35.5029 140.956 35.6304 140.969 35.7592C141.006 36.1367 141.029 36.5154 141.039 36.8954C141.061 37.6376 141.036 38.381 140.981 39.1219C140.957 39.4509 140.924 39.7786 140.888 40.1076C140.88 40.1764 140.869 40.2708 140.86 40.3409C140.837 40.5143 140.811 40.6878 140.786 40.8612C140.585 42.1886 140.31 43.5046 140.004 44.8117C139.75 45.8994 140.375 47.0394 141.451 47.3136C142.496 47.5801 143.669 46.9017 143.924 45.8101C145.33 39.7913 146.656 31.0794 140.393 27.4438Z" fill="#FDA1E5"/>
<path d="M70.145 134.192C70.1015 134.165 70.0618 134.134 70.0196 134.105C69.8764 133.983 69.7472 133.844 69.6219 133.703C69.5477 133.588 69.4786 133.468 69.416 133.345C69.3418 133.131 69.2817 132.913 69.2395 132.69C69.2228 132.431 69.2228 132.172 69.2407 131.913C69.3149 131.475 69.4211 131.044 69.5745 130.624C69.7459 130.156 69.6001 129.471 69.3635 129.062C69.1128 128.629 68.6217 128.224 68.128 128.122C67.6151 128.017 67.0459 128.052 66.5919 128.356L66.1813 128.683C65.9242 128.951 65.7477 129.265 65.6544 129.626C65.1428 131.023 65.0302 132.568 65.3461 134.014C65.6966 135.615 66.7492 136.954 68.1126 137.787C69.0169 138.34 70.3854 137.981 70.8817 137.003C71.3997 135.986 71.1119 134.785 70.145 134.192Z" fill="#FDA1E5"/>
<path d="M159.238 139.077C159.358 138.552 159.296 137.981 159.027 137.515C158.776 137.082 158.285 136.678 157.792 136.576C156.741 136.359 155.576 136.949 155.318 138.079C155.118 138.954 154.965 139.844 154.675 140.694C154.588 140.888 154.485 141.073 154.371 141.253C154.343 141.284 154.315 141.315 154.284 141.345C154.246 141.369 154.209 141.393 154.169 141.415C154.164 141.416 154.159 141.419 154.154 141.42C153.13 141.712 152.411 142.934 152.748 143.981C153.094 145.048 154.15 145.694 155.246 145.382C156.758 144.951 157.789 143.75 158.366 142.313C158.789 141.263 158.987 140.177 159.238 139.077Z" fill="#FDA1E5"/>
<path d="M44.2992 122.476C44.2954 122.263 44.2391 122.065 44.1458 121.879C44.0716 121.691 44.0255 121.494 43.9859 121.296C43.9718 121.116 43.9641 120.935 43.9795 120.754C44.0076 120.609 44.014 120.463 43.9808 120.319C43.9705 120.141 43.9168 119.976 43.8209 119.823C43.7365 119.664 43.6201 119.536 43.473 119.442C43.3387 119.32 43.1827 119.239 43.0011 119.2C42.6608 119.13 42.2835 119.154 41.9817 119.354C41.6952 119.545 41.424 119.841 41.3601 120.196C41.3102 120.475 41.2731 120.763 41.268 121.047C41.2629 121.337 41.3076 121.619 41.3498 121.904C41.4189 122.365 41.5903 122.801 41.7924 123.214C41.8768 123.373 41.9932 123.501 42.1403 123.595C42.2733 123.718 42.4306 123.798 42.6122 123.838C42.79 123.89 42.9665 123.895 43.143 123.85C43.3182 123.838 43.4807 123.781 43.6316 123.682C43.9232 123.487 44.1778 123.197 44.2532 122.84C44.2698 122.719 44.2839 122.598 44.2992 122.476Z" fill="#FDA1E5"/>
<path d="M172.317 133.498C172.314 133.285 172.257 133.088 172.164 132.9C172.09 132.713 172.044 132.515 172.004 132.318C171.989 132.138 171.982 131.957 171.998 131.777C172.026 131.632 172.032 131.486 171.999 131.341C171.989 131.162 171.936 130.998 171.84 130.845C171.756 130.685 171.64 130.558 171.493 130.464C171.36 130.341 171.202 130.261 171.021 130.221C170.68 130.151 170.303 130.175 170.001 130.376C169.715 130.567 169.444 130.863 169.38 131.217C169.33 131.496 169.293 131.785 169.288 132.069C169.282 132.358 169.327 132.64 169.369 132.926C169.438 133.386 169.61 133.822 169.812 134.235C169.896 134.395 170.013 134.522 170.16 134.617C170.293 134.739 170.45 134.82 170.632 134.859C170.81 134.911 170.986 134.916 171.161 134.872C171.336 134.859 171.499 134.803 171.65 134.703C171.941 134.508 172.196 134.219 172.271 133.862C172.288 133.742 172.302 133.62 172.317 133.498Z" fill="#FDA1E5"/>
<path d="M106.924 77.7441C106.929 80.705 109.34 83.1023 112.311 83.0972C115.281 83.0921 117.685 80.6884 117.68 77.7262C117.675 74.7653 115.264 72.368 112.293 72.3731C109.323 72.3782 106.92 74.7819 106.924 77.7441Z" fill="#EC4239" stroke="#13120F" stroke-width="3" stroke-miterlimit="10"/>
<path d="M129.761 108.339C129.734 108.362 129.71 108.372 129.683 108.394C120.931 113.922 109.848 114.578 100.172 111.19C96.7239 109.985 93.0007 108.108 89.793 105.637C84.7843 101.804 81.0509 96.5232 81.6635 90.0849C82.2481 84.1222 86.9535 82.7871 92.2512 83.1671C96.926 83.5076 102.079 85.1844 105.246 86.2198C107.997 87.0972 110.776 87.7819 113.673 87.8023C118.347 87.861 122.728 85.9967 127.347 85.8309C128.259 85.7965 129.289 85.8207 130.37 85.9597C133.484 86.3167 136.957 87.3764 138.834 89.4435C144.418 95.651 134.676 105.222 129.761 108.339Z" fill="#13120F" stroke="#13120F" stroke-width="3" stroke-miterlimit="10"/>
<path d="M129.761 108.338C129.734 108.361 129.71 108.371 129.683 108.393C120.931 113.921 109.848 114.578 100.172 111.189C96.7239 109.984 93.0007 108.107 89.793 105.636C94.1774 100.344 101.868 97.0911 110.379 97.6649C118.929 98.2298 126.126 102.477 129.761 108.338Z" fill="#FC7ADA" stroke="#13120F" stroke-width="3" stroke-miterlimit="10"/>
<path d="M124.915 65.8574C124.875 66.1621 124.763 68.0226 124.777 68.6385C124.957 77.2931 130.773 84.7503 138.907 87.1821C140.287 87.6029 141.73 87.8719 143.217 87.979C154.173 88.7697 163.7 80.5639 164.493 69.6395C165.296 58.7177 157.055 49.2189 146.098 48.4283C145.237 48.3659 144.376 48.3595 143.536 48.4028C137.319 48.742 131.78 51.9657 128.36 56.833C128.359 56.8419 128.359 56.8419 128.359 56.8419C128.249 56.9937 128.138 57.1556 128.028 57.3074C126.386 59.8093 125.283 62.7077 124.915 65.8574Z" fill="white" stroke="#13120F" stroke-width="3" stroke-miterlimit="10"/>
<path d="M126.925 77.563C130.091 83.3357 136.181 87.4252 142.933 87.9034C143.634 87.9531 144.338 87.9659 145.043 87.9391C146.891 87.8702 148.73 87.5438 150.49 86.9699C151.144 84.5331 147.992 83.6864 148.141 81.3388C148.271 79.3865 149.569 77.9711 148.508 76.168C147.664 74.7117 145.574 74.3496 144.109 73.434C141.225 71.6335 142.986 70.0573 142.948 66.8477C142.93 64.8024 141.998 63.9608 140.141 63.0273C137.987 61.9498 137.567 62.2622 137.9 59.8471C138.094 58.3959 139.029 56.6527 138.671 55.2807C138.147 53.3246 135.962 52.1603 133.458 52.6194C133.077 52.6882 132.692 52.7699 132.318 52.8566C127.397 56.654 124.668 62.4102 124.618 68.3078C124.661 68.4812 124.652 68.6598 124.61 68.874C124.419 69.838 124.772 71.1821 124.955 72.1308C125.324 74.0525 126 75.8798 126.925 77.563Z" fill="#13120F" stroke="#13120F" stroke-width="3" stroke-miterlimit="10"/>
<path d="M164.316 66.3173L172.13 64.2949" stroke="#13120F" stroke-width="3" stroke-miterlimit="10"/>
<path d="M162.197 58.4371L169.625 54.1309" stroke="#13120F" stroke-width="3" stroke-miterlimit="10"/>
<path d="M157.211 52.4285L162.789 46.2324" stroke="#13120F" stroke-width="3" stroke-miterlimit="10"/>
<path d="M64.8561 61.207C64.8165 61.5118 64.7039 63.3722 64.718 63.9881C64.8971 72.6427 70.714 80.0999 78.8485 82.5317C80.2286 82.9525 81.6714 83.2215 83.1588 83.3287C94.1149 84.1193 103.641 75.9135 104.434 64.9891C105.237 54.0673 96.9965 44.5686 86.0392 43.778C85.1784 43.7155 84.3176 43.7091 83.4786 43.7524C77.2613 44.0916 71.7231 47.3153 68.3031 52.1826C68.3018 52.1915 68.3018 52.1915 68.3018 52.1915C68.1918 52.3433 68.0805 52.5052 67.9705 52.657C66.327 55.1589 65.2232 58.0573 64.8561 61.207Z" fill="white" stroke="#13120F" stroke-width="3" stroke-miterlimit="10"/>
<path d="M66.8678 72.9126C70.0346 78.6853 76.124 82.7748 82.8759 83.253C83.5781 83.3027 84.2815 83.3155 84.9863 83.2887C86.8344 83.2198 88.6737 82.8934 90.4336 82.3196C91.0872 79.8827 87.9357 79.036 88.084 76.6884C88.2145 74.7361 89.5127 73.3194 88.4511 71.5176C87.607 70.0613 85.5171 69.6992 84.0526 68.7836C81.1684 66.9818 82.9296 65.407 82.8912 62.1974C82.8733 60.152 81.9409 59.3104 80.0838 58.3769C77.9299 57.2994 77.5104 57.6118 77.843 55.1967C78.0374 53.7455 78.9723 52.0024 78.6142 50.6303C78.0898 48.6742 75.9053 47.5099 73.401 47.969C73.0198 48.0391 72.6348 48.1207 72.2613 48.2062C67.3397 52.0036 64.6116 57.7598 64.5617 63.6574C64.6039 63.8321 64.5962 64.0094 64.5527 64.2236C64.3622 65.1876 64.7165 66.5317 64.8993 67.4804C65.269 69.4021 65.9443 71.2281 66.8678 72.9126Z" fill="#13120F" stroke="#13120F" stroke-width="3" stroke-miterlimit="10"/>
<path d="M71.5559 48.747L65.6699 43.2383" stroke="#13120F" stroke-width="3" stroke-miterlimit="10"/>
<path d="M66.5325 54.5583L58.916 50.5938" stroke="#13120F" stroke-width="3" stroke-miterlimit="10"/>
<path d="M64.6204 62.52L56.3887 61.125" stroke="#13120F" stroke-width="3" stroke-miterlimit="10"/>
<path d="M38.4001 115.468C27.4785 122.943 19.1637 133.277 19.6855 145.813C19.7584 147.851 20.0884 149.953 20.6627 152.12C21.2216 154.18 22.0261 156.304 23.0902 158.468C26.064 164.513 16.997 169.854 14.0118 163.794C11.762 159.219 10.263 154.546 9.58256 149.877C8.07716 139.76 10.4114 129.71 17.2157 120.715C23.2591 112.712 31.3731 106.59 40.302 101.961C40.3365 102.017 40.371 102.06 40.4055 102.117C39.9809 105.948 38.6763 110.881 38.4001 115.468Z" fill="#13120F"/>
<path d="M25.6187 150.295C25.6187 150.295 28.4901 146.052 24.3691 145.216C20.2481 144.379 1.43126 151.734 2.01321 157.834C2.3854 161.728 6.50514 159.522 6.50514 159.522C2.28056 180.65 16.938 193.332 21.0066 188.777C21.453 188.277 21.6448 187.916 21.6448 187.916C28.2624 190.141 29.0541 184.684 29.0541 184.684C32.2133 185.887 33.8364 184.87 34.6678 183.605C35.4403 182.428 35.2267 180.893 34.2662 179.863C28.3929 173.57 28.9621 159.871 28.9621 159.871C28.9621 159.871 40.0806 155.931 38.5956 152.549C37.7438 150.608 30.768 149.952 25.0253 150.6" fill="white"/>
<path d="M25.6187 150.295C25.6187 150.295 28.4901 146.052 24.3691 145.216C20.2481 144.379 1.43126 151.734 2.01321 157.834C2.3854 161.728 6.50514 159.522 6.50514 159.522C2.28056 180.65 16.938 193.332 21.0066 188.777C21.453 188.277 21.6448 187.916 21.6448 187.916C28.2624 190.141 29.0541 184.684 29.0541 184.684C32.2133 185.887 33.8364 184.87 34.6678 183.605C35.4403 182.428 35.2267 180.893 34.2662 179.863C28.3929 173.57 28.9621 159.871 28.9621 159.871C28.9621 159.871 40.0806 155.931 38.5956 152.549C37.7438 150.608 30.768 149.952 25.0253 150.6" stroke="#13120F" stroke-width="3" stroke-miterlimit="10"/>
<path d="M22.3652 169.789C22.3652 169.789 22.3793 177.801 29.0545 184.684" stroke="#13120F" stroke-width="3" stroke-miterlimit="10"/>
<path d="M14.5684 172.025C14.5684 172.025 15.0339 179.951 21.6451 187.917" stroke="#13120F" stroke-width="3" stroke-miterlimit="10"/>
<path d="M25.337 150.217L19.6582 152.536" stroke="#13120F" stroke-width="3" stroke-miterlimit="10"/>
<path d="M10.4561 157.109L6.50391 159.521" stroke="#13120F" stroke-width="3" stroke-miterlimit="10"/>
<path d="M198.78 167.573C197.183 172.014 194.781 176.295 191.663 180.333C187.528 185.68 179.706 178.648 183.827 173.312C185.302 171.403 186.513 169.494 187.474 167.574C188.482 165.578 189.212 163.583 189.703 161.588C192.865 148.84 186.029 136.515 176.096 126.831C176.114 126.649 176.146 126.466 176.163 126.284C178.39 128.327 182.231 130.108 183.922 127.101C184.904 125.354 183.862 122.455 183.005 120.72C182.326 119.321 181.494 117.998 180.746 116.631C187.493 122.5 193.263 129.42 197.118 137.479C201.992 147.644 202.275 157.955 198.78 167.573Z" fill="#13120F"/>
<path d="M182.983 164.802C182.983 164.802 181.014 160.075 185.221 160.072C189.426 160.07 206.4 171.011 204.612 176.873C203.47 180.617 199.873 177.636 199.873 177.636C199.796 199.18 182.902 208.701 179.825 203.431C179.487 202.853 179.371 202.46 179.371 202.46C172.441 203.329 172.754 197.824 172.754 197.824C169.419 198.377 168.031 197.057 167.468 195.652C166.945 194.346 167.462 192.884 168.609 192.065C175.621 187.063 177.796 173.525 177.796 173.525C177.796 173.525 167.687 167.458 169.815 164.438C171.038 162.705 178.005 163.445 183.503 165.22" fill="white"/>
<path d="M182.983 164.802C182.983 164.802 181.014 160.075 185.221 160.072C189.426 160.07 206.4 171.011 204.612 176.873C203.47 180.617 199.873 177.636 199.873 177.636C199.796 199.18 182.902 208.701 179.825 203.431C179.487 202.853 179.371 202.46 179.371 202.46C172.441 203.329 172.754 197.824 172.754 197.824C169.419 198.377 168.031 197.057 167.468 195.652C166.945 194.346 167.462 192.884 168.609 192.065C175.621 187.063 177.796 173.525 177.796 173.525C177.796 173.525 167.687 167.458 169.815 164.438C171.038 162.705 178.005 163.445 183.503 165.22" stroke="#13120F" stroke-width="3" stroke-miterlimit="10"/>
<path d="M182.281 184.553C182.281 184.553 180.668 192.401 172.754 197.823" stroke="#13120F" stroke-width="3" stroke-miterlimit="10"/>
<path d="M189.476 188.289C189.476 188.289 187.438 195.964 179.369 202.459" stroke="#13120F" stroke-width="3" stroke-miterlimit="10"/>
<path d="M183.273 164.779L188.377 168.18" stroke="#13120F" stroke-width="3" stroke-miterlimit="10"/>
<path d="M196.484 174.488L199.876 177.634" stroke="#13120F" stroke-width="3" stroke-miterlimit="10"/>
</svg>
