<svg width="246" height="57" viewBox="0 0 246 57" fill="none" xmlns="http://www.w3.org/2000/svg">
<path d="M2.34281 30.4765C2.5807 29.7088 3.00658 28.9539 3.64992 28.2398C5.33439 26.3704 7.89755 25.21 10.3609 24.8287C14.8682 24.1299 19.7195 24.9652 23.9492 26.5693C31.1334 29.2931 36.9913 34.5978 41.7134 40.5235C43.1753 42.3585 44.5848 44.2381 45.9419 46.1521C46.3627 46.7464 46.9715 47.7308 47.5765 48.5252C43.0219 45.637 38.3688 42.787 33.286 40.9099C27.1979 38.6618 21.3247 39.1757 15.005 39.4243C9.94654 39.6233 0.035462 37.8967 2.34281 30.4765Z" fill="#17B5E5" stroke="black" stroke-width="3" stroke-miterlimit="10"/>
<path d="M6.20747 31.6668C6.18444 31.4633 6.1934 31.5964 6.20747 31.6668V31.6668Z" fill="white"/>
<path d="M5.09549 29.7462C5.63267 29.7539 6.15067 30.1632 6.14811 30.7332C6.14683 30.9959 6.15706 31.2573 6.18648 31.5174C6.19416 31.5876 6.20695 31.6564 6.21462 31.7253C6.21079 31.6959 6.21078 31.6883 6.20822 31.6666C6.22997 31.7788 6.25684 31.8911 6.28754 32.002C6.31695 32.1091 6.35151 32.2149 6.38988 32.3195C6.40523 32.3616 6.42185 32.4024 6.43848 32.4432C6.5344 32.6332 6.63669 32.8168 6.75948 32.9915C6.78378 33.026 6.80938 33.0591 6.83368 33.0923C6.89891 33.1675 6.96543 33.2427 7.0345 33.3141C7.18926 33.4735 7.35423 33.6215 7.5269 33.7592C7.56143 33.7872 7.59596 33.814 7.63178 33.8408C7.73026 33.9084 7.82875 33.9772 7.92979 34.0423C8.15106 34.1838 8.37744 34.3152 8.60766 34.4414C9.07578 34.6977 9.29193 35.3595 9.00416 35.8262C8.71254 36.2993 8.11652 36.4957 7.61515 36.2215C6.61112 35.6732 5.67745 34.9935 5.01492 34.0499C4.35239 33.1063 4.10043 31.9293 4.10554 30.7931C4.10938 30.2627 4.53016 29.7373 5.09549 29.7462Z" fill="#99DEF4"/>
<path d="M32.6308 2.73556C33.3547 2.38234 34.1976 2.17195 35.1594 2.149C37.6791 2.08779 40.2857 3.15128 42.2541 4.67511C45.8571 7.46519 48.5763 11.5559 50.3081 15.7232C53.2498 22.8029 53.3995 30.6912 52.3161 38.1815C51.981 40.5023 51.5769 42.8129 51.11 45.1108C50.9655 45.8236 50.6649 46.9406 50.5 47.9251C49.4819 42.6395 48.3691 37.3106 46.251 32.3348C43.7135 26.376 39.3086 22.4701 34.7911 18.058C31.1753 14.5271 25.6333 6.1543 32.6308 2.73556Z" fill="#17B5E5" stroke="black" stroke-width="3" stroke-miterlimit="10"/>
<path d="M32.3183 4.78447C32.9168 4.15581 33.6804 3.83574 34.5271 3.71588C35.0579 3.64064 35.5862 4.19534 35.5798 4.70286C35.5708 5.30602 35.1577 5.67071 34.5898 5.75232C34.8533 5.71534 34.6333 5.74595 34.5719 5.76125C34.4939 5.77911 34.4171 5.80206 34.3417 5.82757C34.3122 5.83777 34.2841 5.84797 34.256 5.85817C34.2509 5.86072 34.2521 5.85944 34.2458 5.86327C34.2163 5.8773 34.1882 5.89387 34.16 5.90917C34.0948 5.94615 34.0334 5.9895 33.9695 6.02903C33.9644 6.03158 33.9682 6.02903 33.9644 6.03158C33.8736 6.11574 33.784 6.19863 33.7034 6.29299C33.6932 6.30447 33.683 6.31594 33.674 6.3287C33.6459 6.37205 33.6024 6.42945 33.5934 6.44348C33.5231 6.55442 33.4592 6.66917 33.4029 6.78776C33.3965 6.80051 33.3466 6.94079 33.3261 6.96247L33.3249 6.96757C33.2763 7.10783 33.2353 7.25064 33.2008 7.39474C33.1688 7.5299 33.142 7.66636 33.1202 7.8028C33.1151 7.83723 33.0716 8.08079 33.1036 7.90991C33.1356 7.73649 33.0972 8.01959 33.0946 8.05402C33.0793 8.332 33.0831 8.61254 33.1087 8.88925C33.1151 8.95811 33.1215 9.02569 33.1304 9.09455C33.1343 9.12898 33.1394 9.16213 33.1445 9.19528C33.156 9.27179 33.1509 9.23991 33.1292 9.1022C33.0972 9.1481 33.2008 9.43758 33.2136 9.49113C33.2456 9.61483 33.2839 9.7385 33.3261 9.85964C33.3466 9.91702 33.3709 9.97313 33.3927 10.0305C33.3991 10.0433 33.4054 10.0573 33.4118 10.0701C33.6497 10.547 33.5819 11.1884 33.0703 11.4689C32.6201 11.7163 31.9218 11.6372 31.6672 11.1284C31.006 9.8061 30.8627 8.2083 31.249 6.78011C31.4447 6.04689 31.79 5.33789 32.3183 4.78447Z" fill="#99DEF4"/>
<path d="M243.601 38.7665C243.52 37.9669 243.254 37.1419 242.766 36.3143C241.488 34.1478 239.208 32.5028 236.87 31.6395C232.591 30.0609 227.671 29.9168 223.206 30.65C215.621 31.8946 208.822 35.9305 203.013 40.8016C201.213 42.3102 199.457 43.8723 197.746 45.479C197.215 45.9776 196.422 46.8217 195.67 47.481C200.711 45.5542 205.838 43.6835 211.195 42.8521C217.61 41.8562 223.263 43.5241 229.407 45.0225C234.323 46.2224 244.381 46.4965 243.601 38.7665Z" fill="#17B5E5" stroke="black" stroke-width="3" stroke-miterlimit="10"/>
<path d="M239.576 39.1663C239.603 39.0997 239.639 38.9705 239.576 39.1663V39.1663Z" fill="white"/>
<path d="M241.05 37.5053C240.521 37.4058 239.932 37.7042 239.822 38.264C239.771 38.5216 239.708 38.7753 239.627 39.0253C239.606 39.0916 239.58 39.1566 239.558 39.2242C239.567 39.1949 239.57 39.1885 239.576 39.1681C239.531 39.2739 239.483 39.3785 239.432 39.4818C239.38 39.5812 239.327 39.6782 239.268 39.7738C239.245 39.812 239.221 39.849 239.195 39.8847C239.063 40.0518 238.926 40.2124 238.772 40.3591C238.741 40.3884 238.71 40.4152 238.678 40.4432C238.599 40.5045 238.52 40.5644 238.437 40.6205C238.254 40.7455 238.062 40.8577 237.865 40.9597C237.825 40.9801 237.785 40.9992 237.746 41.0184C237.636 41.0655 237.526 41.1127 237.413 41.1561C237.169 41.2517 236.92 41.3346 236.669 41.4124C236.159 41.5705 235.815 42.1762 236.004 42.6914C236.196 43.2116 236.739 43.5228 237.287 43.3545C238.38 43.0166 239.43 42.5358 240.268 41.7426C241.106 40.9495 241.588 39.8465 241.809 38.7307C241.913 38.2079 241.605 37.6085 241.05 37.5053Z" fill="#99DEF4"/>
<path d="M219.454 5.57196C218.816 5.0823 218.032 4.70868 217.093 4.49573C214.636 3.93593 211.869 4.46129 209.636 5.56432C205.55 7.58291 202.067 11.0539 199.538 14.794C195.242 21.1482 193.522 28.8489 193.089 36.4056C192.955 38.7455 192.89 41.0906 192.889 43.4356C192.889 44.1637 192.96 45.3165 192.924 46.3137C194.977 41.3354 197.131 36.3329 200.2 31.8787C203.875 26.5422 208.971 23.5876 214.28 20.1599C218.528 17.417 225.629 10.3105 219.454 5.57196Z" fill="#17B5E5" stroke="black" stroke-width="3" stroke-miterlimit="10"/>
<path d="M219.352 7.6415C218.89 6.90701 218.206 6.44156 217.4 6.15592C216.895 5.97739 216.267 6.41478 216.172 6.91465C216.061 7.5076 216.392 7.94754 216.933 8.13882C216.682 8.04956 216.892 8.12352 216.95 8.1503C217.022 8.18345 217.093 8.22042 217.162 8.26123C217.189 8.27653 217.214 8.29311 217.24 8.30841C217.245 8.31224 217.242 8.31097 217.249 8.31479C217.274 8.3352 217.299 8.35559 217.323 8.37727C217.379 8.427 217.43 8.48185 217.485 8.53285C217.489 8.53668 217.487 8.53284 217.491 8.53667C217.562 8.63741 217.634 8.73688 217.694 8.84527C217.702 8.85802 217.709 8.87204 217.716 8.88607C217.735 8.93452 217.766 8.99828 217.772 9.01486C217.819 9.13727 217.858 9.26352 217.891 9.38977C217.895 9.40379 217.916 9.55171 217.932 9.57594L217.933 9.58103C217.952 9.72768 217.964 9.87561 217.969 10.0248C217.974 10.1638 217.973 10.3028 217.965 10.4405C217.964 10.4749 217.957 10.7223 217.96 10.5489C217.964 10.3729 217.945 10.6573 217.939 10.6917C217.9 10.9671 217.84 11.2413 217.759 11.5078C217.74 11.5741 217.718 11.6392 217.696 11.7042C217.685 11.7361 217.675 11.7692 217.662 11.8011C217.636 11.8738 217.647 11.8432 217.696 11.7119C217.719 11.7629 217.56 12.0268 217.535 12.0765C217.479 12.1913 217.418 12.3048 217.351 12.4145C217.32 12.4667 217.285 12.5165 217.253 12.5688C217.244 12.5802 217.235 12.593 217.226 12.6045C216.897 13.024 216.836 13.6667 217.281 14.0429C217.673 14.3757 218.373 14.4369 218.723 13.988C219.635 12.8225 220.095 11.2847 220.001 9.80929C219.955 9.05184 219.758 8.28802 219.352 7.6415Z" fill="#99DEF4"/>
</svg>
