<svg width="58" height="53" viewBox="0 0 58 53" fill="none" xmlns="http://www.w3.org/2000/svg">
<g id="water-drop-right">
<g id="Group">
<path id="Vector" d="M55.7124 36.4969C55.6318 35.6974 55.3658 34.8724 54.8772 34.0448C53.5994 31.8783 51.3189 30.2333 48.9809 29.37C44.7026 27.7913 39.7822 27.6472 35.3172 28.3805C27.7326 29.625 20.9334 33.661 15.1241 38.5321C13.3245 40.0406 11.5684 41.6027 9.85711 43.2094C9.32632 43.708 8.53331 44.5522 7.78125 45.2114C12.8218 43.2847 17.9494 41.414 23.3059 40.5826C29.7215 39.5867 35.3747 41.2546 41.5179 42.7529C46.4344 43.9529 56.4926 44.227 55.7124 36.4969Z" fill="#17B5E5" stroke="black" stroke-width="3" stroke-miterlimit="10"/>
<g id="Group_2">
<path id="Vector_2" d="M51.6875 36.8968C51.7144 36.8302 51.7502 36.7009 51.6875 36.8968V36.8968Z" fill="white"/>
<path id="Vector_3" d="M53.1609 35.2357C52.6326 35.1363 52.043 35.4346 51.933 35.9945C51.8819 36.252 51.8192 36.5058 51.7386 36.7557C51.7169 36.822 51.6913 36.8871 51.6695 36.9547C51.6785 36.9253 51.681 36.9189 51.6874 36.8985C51.6427 37.0044 51.5941 37.109 51.5429 37.2122C51.4917 37.3117 51.438 37.4086 51.3792 37.5043C51.3562 37.5425 51.3319 37.5795 51.3063 37.6152C51.1745 37.7822 51.0377 37.9429 50.8829 38.0896C50.8522 38.1189 50.8216 38.1457 50.7896 38.1737C50.7103 38.2349 50.631 38.2948 50.5478 38.351C50.3649 38.4759 50.1731 38.5881 49.9761 38.6902C49.9365 38.7106 49.8968 38.7297 49.8572 38.7488C49.7472 38.796 49.6372 38.8432 49.5247 38.8865C49.2804 38.9822 49.031 39.0651 48.7803 39.1428C48.2699 39.301 47.9259 39.9067 48.1152 40.4218C48.307 40.9421 48.8506 41.2533 49.398 41.0849C50.4915 40.747 51.5417 40.2663 52.3794 39.4731C53.2172 38.68 53.6993 37.5769 53.9206 36.4612C54.0242 35.9383 53.716 35.339 53.1609 35.2357Z" fill="#99DEF4"/>
</g>
</g>
<g id="Group_3">
<path id="Vector_4" d="M31.5651 3.30243C30.9269 2.81277 30.1429 2.43915 29.2041 2.22619C26.7471 1.66639 23.9806 2.19176 21.7474 3.29478C17.661 5.31338 14.1782 8.78438 11.6496 12.5245C7.35336 18.8786 5.63309 26.5794 5.20078 34.1361C5.06649 36.476 5.00128 38.821 5 41.1661C5 41.8942 5.07161 43.047 5.03579 44.0441C7.08861 39.0659 9.2425 34.0634 12.3109 29.6092C15.9867 24.2726 21.0823 21.318 26.3915 17.8904C30.6391 15.1475 37.7402 8.04097 31.5651 3.30243Z" fill="#17B5E5" stroke="black" stroke-width="3" stroke-miterlimit="10"/>
<path id="Vector_5" d="M31.4629 5.37197C31.0011 4.63747 30.3169 4.17203 29.5111 3.88639C29.0059 3.70786 28.3778 4.14525 28.2832 4.64512C28.1719 5.23807 28.5032 5.67801 29.0442 5.86929C28.7935 5.78003 29.0033 5.85399 29.0608 5.88077C29.1337 5.91392 29.2041 5.95089 29.2732 5.9917C29.3 6.007 29.3256 6.02358 29.3512 6.03888C29.3563 6.04271 29.3537 6.04144 29.3601 6.04526C29.3857 6.06567 29.41 6.08606 29.4343 6.10774C29.4906 6.15747 29.5418 6.21232 29.5967 6.26332C29.6006 6.26715 29.598 6.26331 29.6019 6.26714C29.6735 6.36788 29.7451 6.46734 29.8052 6.57573C29.8129 6.58849 29.8206 6.60251 29.827 6.61654C29.8461 6.66499 29.8769 6.72875 29.8832 6.74533C29.9306 6.86774 29.969 6.99399 30.0022 7.12023C30.0061 7.13426 30.0278 7.28218 30.0431 7.3064L30.0444 7.3115C30.0636 7.45815 30.0751 7.60608 30.0802 7.75527C30.0853 7.89426 30.0841 8.03324 30.0764 8.17096C30.0751 8.20539 30.0687 8.45278 30.0713 8.27936C30.0751 8.10339 30.0559 8.38775 30.0508 8.42218C30.0112 8.69762 29.951 8.97178 29.8704 9.23829C29.8513 9.3046 29.8295 9.36964 29.8078 9.43467C29.7963 9.46655 29.786 9.49969 29.7733 9.53157C29.7477 9.60426 29.7579 9.57366 29.8078 9.44232C29.8308 9.49333 29.6709 9.75728 29.6466 9.80701C29.5904 9.92178 29.5289 10.0353 29.4624 10.1449C29.4317 10.1972 29.3959 10.2469 29.364 10.2992C29.355 10.3107 29.3461 10.3235 29.3371 10.3349C29.0084 10.7545 28.947 11.3972 29.3921 11.7733C29.7848 12.1062 30.4844 12.1674 30.8348 11.7185C31.7468 10.553 32.206 9.01513 32.1126 7.53976C32.0665 6.78231 31.8696 6.01848 31.4629 5.37197Z" fill="#99DEF4"/>
</g>
</g>
</svg>
