<svg width="55" height="57" viewBox="0 0 55 57" fill="none" xmlns="http://www.w3.org/2000/svg">
<g id="water-drop-left">
<g id="Group">
<path id="Vector" d="M2.34281 30.33C2.5807 29.5623 3.00658 28.8074 3.64992 28.0933C5.33439 26.2239 7.89755 25.0635 10.3609 24.6822C14.8682 23.9835 19.7195 24.8187 23.9492 26.4229C31.1334 29.1466 36.9913 34.4513 41.7134 40.377C43.1753 42.212 44.5848 44.0916 45.9419 46.0057C46.3627 46.5999 46.9715 47.5843 47.5765 48.3788C43.0219 45.4905 38.3688 42.6405 33.286 40.7634C27.1979 38.5153 21.3247 39.0292 15.005 39.2779C9.94654 39.4768 0.035462 37.7502 2.34281 30.33Z" fill="#17B5E5" stroke="black" stroke-width="3" stroke-miterlimit="10"/>
<g id="Group_2">
<path id="Vector_2" d="M6.20747 31.5203C6.18444 31.3168 6.1934 31.4499 6.20747 31.5203V31.5203Z" fill="white"/>
<path id="Vector_3" d="M5.09549 29.5997C5.63267 29.6074 6.15067 30.0167 6.14811 30.5867C6.14683 30.8494 6.15706 31.1108 6.18648 31.3709C6.19416 31.4411 6.20695 31.5099 6.21462 31.5788C6.21079 31.5495 6.21078 31.5418 6.20822 31.5201C6.22997 31.6324 6.25684 31.7446 6.28754 31.8555C6.31695 31.9626 6.35151 32.0685 6.38988 32.173C6.40523 32.2151 6.42185 32.2559 6.43848 32.2967C6.5344 32.4867 6.63669 32.6704 6.75948 32.845C6.78378 32.8795 6.80938 32.9126 6.83368 32.9458C6.89891 33.021 6.96543 33.0962 7.0345 33.1677C7.18926 33.3271 7.35423 33.475 7.5269 33.6127C7.56143 33.6407 7.59596 33.6675 7.63178 33.6943C7.73026 33.7619 7.82875 33.8307 7.92979 33.8958C8.15106 34.0373 8.37744 34.1687 8.60766 34.2949C9.07578 34.5512 9.29193 35.213 9.00416 35.6797C8.71254 36.1528 8.11652 36.3492 7.61515 36.075C6.61112 35.5267 5.67745 34.8471 5.01492 33.9034C4.35239 32.9598 4.10043 31.7828 4.10554 30.6467C4.10938 30.1162 4.53016 29.5908 5.09549 29.5997Z" fill="#99DEF4"/>
</g>
</g>
<g id="Group_3">
<path id="Vector_4" d="M32.6308 2.58908C33.3547 2.23586 34.1976 2.02546 35.1594 2.00251C37.6791 1.9413 40.2857 3.0048 42.2541 4.52863C45.8571 7.3187 48.5763 11.4095 50.3081 15.5767C53.2498 22.6565 53.3995 30.5447 52.3161 38.035C51.981 40.3558 51.5769 42.6664 51.11 44.9643C50.9655 45.6771 50.6649 46.7942 50.5 47.7786C49.4819 42.493 48.3691 37.1641 46.251 32.1884C43.7135 26.2295 39.3086 22.3236 34.7911 17.9115C31.1753 14.3806 25.6333 6.00781 32.6308 2.58908Z" fill="#17B5E5" stroke="black" stroke-width="3" stroke-miterlimit="10"/>
<path id="Vector_5" d="M32.3183 4.63798C32.9168 4.00932 33.6804 3.68926 34.5271 3.56939C35.0579 3.49416 35.5862 4.04886 35.5798 4.55638C35.5708 5.15953 35.1577 5.52423 34.5898 5.60584C34.8533 5.56886 34.6333 5.59947 34.5719 5.61477C34.4939 5.63262 34.4171 5.65558 34.3417 5.68108C34.3122 5.69128 34.2841 5.70149 34.256 5.71169C34.2509 5.71424 34.2521 5.71296 34.2458 5.71679C34.2163 5.73081 34.1882 5.74738 34.16 5.76269C34.0948 5.79967 34.0334 5.84301 33.9695 5.88254C33.9644 5.8851 33.9682 5.88254 33.9644 5.88509C33.8736 5.96926 33.784 6.05214 33.7034 6.14651C33.6932 6.15798 33.683 6.16946 33.674 6.18221C33.6459 6.22557 33.6024 6.28296 33.5934 6.29699C33.5231 6.40793 33.4592 6.52268 33.4029 6.64127C33.3965 6.65403 33.3466 6.79431 33.3261 6.81598L33.3249 6.82108C33.2763 6.96135 33.2353 7.10416 33.2008 7.24825C33.1688 7.38342 33.142 7.51987 33.1202 7.65632C33.1151 7.69075 33.0716 7.9343 33.1036 7.76343C33.1356 7.59001 33.0972 7.8731 33.0946 7.90753C33.0793 8.18552 33.0831 8.46606 33.1087 8.74277C33.1151 8.81163 33.1215 8.87921 33.1304 8.94807C33.1343 8.98249 33.1394 9.01564 33.1445 9.0488C33.156 9.12531 33.1509 9.09343 33.1292 8.95571C33.0972 9.00162 33.2008 9.29109 33.2136 9.34465C33.2456 9.46834 33.2839 9.59202 33.3261 9.71316C33.3466 9.77054 33.3709 9.82665 33.3927 9.88403C33.3991 9.89678 33.4054 9.91082 33.4118 9.92357C33.6497 10.4005 33.5819 11.0419 33.0703 11.3224C32.6201 11.5698 31.9218 11.4908 31.6672 10.982C31.006 9.65961 30.8627 8.06182 31.249 6.63363C31.4447 5.9004 31.79 5.19141 32.3183 4.63798Z" fill="#99DEF4"/>
</g>
</g>
</svg>
