<svg width="1728" height="98" viewBox="0 0 1728 98" fill="none" xmlns="http://www.w3.org/2000/svg">
<rect x="-21.0918" width="43.7273" height="49" fill="#3D405B"/>
<rect x="328.727" width="43.7273" height="49" fill="#3D405B"/>
<rect x="678.545" width="43.7273" height="49" fill="#3D405B"/>
<rect x="1028.36" width="43.7273" height="49" fill="#3D405B"/>
<rect x="1378.18" width="43.7273" height="49" fill="#3D405B"/>
<rect x="22.6367" y="49" width="43.7273" height="49" fill="#3D405B"/>
<rect x="372.453" y="49" width="43.7273" height="49" fill="#3D405B"/>
<rect x="722.271" y="49" width="43.7273" height="49" fill="#3D405B"/>
<rect x="1072.09" y="49" width="43.7273" height="49" fill="#3D405B"/>
<rect x="1421.91" y="49" width="43.7273" height="49" fill="#3D405B"/>
<rect x="66.3633" width="43.7273" height="49" fill="#3D405B"/>
<rect x="416.182" width="43.7273" height="49" fill="#3D405B"/>
<rect x="766" width="43.7273" height="49" fill="#3D405B"/>
<rect x="1115.82" width="43.7273" height="49" fill="#3D405B"/>
<rect x="1465.64" width="43.7273" height="49" fill="#3D405B"/>
<rect x="110.09" y="49" width="43.7273" height="49" fill="#3D405B"/>
<rect x="459.908" y="49" width="43.7273" height="49" fill="#3D405B"/>
<rect x="809.727" y="49" width="43.7273" height="49" fill="#3D405B"/>
<rect x="1159.54" y="49" width="43.7273" height="49" fill="#3D405B"/>
<rect x="1509.36" y="49" width="43.7273" height="49" fill="#3D405B"/>
<rect x="153.816" width="43.7273" height="49" fill="#3D405B"/>
<rect x="503.637" width="43.7273" height="49" fill="#3D405B"/>
<rect x="853.453" width="43.7273" height="49" fill="#3D405B"/>
<rect x="1203.27" width="43.7273" height="49" fill="#3D405B"/>
<rect x="1553.09" width="43.7273" height="49" fill="#3D405B"/>
<rect x="197.545" y="49" width="43.7273" height="49" fill="#3D405B"/>
<rect x="547.363" y="49" width="43.7273" height="49" fill="#3D405B"/>
<rect x="897.182" y="49" width="43.7273" height="49" fill="#3D405B"/>
<rect x="1247" y="49" width="43.7273" height="49" fill="#3D405B"/>
<rect x="1596.82" y="49" width="43.7273" height="49" fill="#3D405B"/>
<rect x="241.271" width="43.7273" height="49" fill="#3D405B"/>
<rect x="591.09" width="43.7273" height="49" fill="#3D405B"/>
<rect x="940.908" width="43.7273" height="49" fill="#3D405B"/>
<rect x="1290.73" width="43.7273" height="49" fill="#3D405B"/>
<rect x="1640.54" width="43.7273" height="49" fill="#3D405B"/>
<rect x="285" y="49" width="43.7273" height="49" fill="#3D405B"/>
<rect x="634.816" y="49" width="43.7273" height="49" fill="#3D405B"/>
<rect x="984.637" y="49" width="43.7273" height="49" fill="#3D405B"/>
<rect x="1334.45" y="49" width="43.7273" height="49" fill="#3D405B"/>
<rect x="1684.27" y="49" width="43.7273" height="49" fill="#3D405B"/>
</svg>
