<svg width="210" height="210" viewBox="0 0 210 210" fill="none" xmlns="http://www.w3.org/2000/svg">
<path d="M1.25592 34.9531L66.4249 34.1791C66.4249 34.1791 66.9379 7.5791 49.6959 14.9871C49.6959 14.9871 49.5339 4.3551 36.5979 2.1981C31.7229 1.3851 26.7539 3.1411 23.2569 7.1901C21.2859 9.4731 19.6759 12.5651 19.5689 16.6161C19.5689 16.6161 -1.54508 7.4891 1.25592 34.9531Z" fill="white" stroke="black" stroke-width="0.4994" stroke-miterlimit="10"/>
<path d="M151.18 74.5761L208.971 73.8901C208.971 73.8901 209.425 50.3021 194.136 56.8711C194.136 56.8711 193.992 47.4431 182.521 45.5291C178.198 44.8081 173.791 46.3651 170.691 49.9561C168.943 51.9801 167.515 54.7231 167.421 58.3151C167.421 58.3151 148.696 50.2211 151.18 74.5761Z" fill="white" stroke="black" stroke-width="0.4994" stroke-miterlimit="10"/>
<path d="M1.94205 113.684L47.8771 113.139C47.8771 113.139 48.2381 94.3901 36.0861 99.6121C36.0861 99.6121 35.9721 92.1181 26.8541 90.5971C23.4181 90.0241 19.9151 91.2611 17.4511 94.1161C16.0621 95.7251 14.9271 97.9051 14.8521 100.76C14.8521 100.76 -0.0319462 94.3261 1.94205 113.684Z" fill="white" stroke="black" stroke-width="0.4994" stroke-miterlimit="10"/>
<path d="M15.7036 191.938C15.8896 191.336 16.2225 190.744 16.7255 190.184C18.0425 188.718 20.0466 187.808 21.9726 187.509C25.4966 186.961 29.2895 187.616 32.5965 188.874C38.2135 191.01 42.7936 195.17 46.4856 199.817C47.6286 201.256 48.7306 202.73 49.7916 204.231C50.1206 204.697 50.5966 205.469 51.0696 206.092C47.5086 203.827 43.8706 201.592 39.8966 200.12C35.1366 198.357 30.5446 198.76 25.6036 198.955C21.6486 199.111 13.8996 197.757 15.7036 191.938Z" fill="#17B5E5" stroke="black" stroke-width="0.5061" stroke-miterlimit="10"/>
<path d="M18.7259 192.872C18.7079 192.713 18.7149 192.817 18.7259 192.872V192.872Z" fill="white"/>
<path d="M17.8561 191.366C18.2761 191.372 18.6811 191.693 18.6791 192.14C18.6781 192.346 18.6861 192.551 18.7091 192.755C18.7151 192.81 18.7251 192.864 18.7311 192.918C18.7281 192.895 18.7281 192.889 18.7261 192.872C18.7431 192.96 18.7641 193.048 18.7881 193.135C18.8111 193.219 18.8381 193.302 18.8681 193.384C18.8801 193.417 18.8931 193.449 18.9061 193.481C18.9811 193.63 19.0611 193.774 19.1571 193.911C19.1761 193.938 19.1961 193.964 19.2151 193.99C19.2661 194.049 19.3181 194.108 19.3721 194.164C19.4931 194.289 19.6221 194.405 19.7571 194.513C19.7841 194.535 19.8111 194.556 19.8391 194.577C19.9161 194.63 19.9931 194.684 20.0721 194.735C20.2451 194.846 20.4221 194.949 20.6021 195.048C20.9681 195.249 21.1371 195.768 20.9121 196.134C20.6841 196.505 20.2181 196.659 19.8261 196.444C19.0411 196.014 18.3111 195.481 17.7931 194.741C17.2751 194.001 17.0781 193.078 17.0821 192.187C17.0851 191.771 17.4141 191.359 17.8561 191.366Z" fill="#99DEF4"/>
<path d="M39.3843 170.183C39.9503 169.906 40.6093 169.741 41.3613 169.723C43.3313 169.675 45.3693 170.509 46.9083 171.704C49.7253 173.892 51.8513 177.1 53.2053 180.368C55.5053 185.92 55.6223 192.106 54.7753 197.98C54.5133 199.8 54.1973 201.612 53.8323 203.414C53.7193 203.973 53.4843 204.849 53.3553 205.621C52.5593 201.476 51.6893 197.297 50.0333 193.395C48.0493 188.722 44.6053 185.659 41.0733 182.199C38.2463 179.43 33.9133 172.864 39.3843 170.183Z" fill="#17B5E5" stroke="black" stroke-width="0.5061" stroke-miterlimit="10"/>
<path d="M39.1403 171.789C39.6083 171.296 40.2054 171.045 40.8674 170.951C41.2824 170.892 41.6954 171.327 41.6904 171.725C41.6834 172.198 41.3603 172.484 40.9163 172.548C41.1223 172.519 40.9504 172.543 40.9024 172.555C40.8414 172.569 40.7813 172.587 40.7223 172.607C40.6993 172.615 40.6774 172.623 40.6554 172.631C40.6514 172.633 40.6524 172.632 40.6474 172.635C40.6244 172.646 40.6023 172.659 40.5803 172.671C40.5293 172.7 40.4814 172.734 40.4314 172.765C40.4274 172.767 40.4304 172.765 40.4274 172.767C40.3564 172.833 40.2863 172.898 40.2233 172.972C40.2153 172.981 40.2073 172.99 40.2003 173C40.1783 173.034 40.1443 173.079 40.1373 173.09C40.0823 173.177 40.0324 173.267 39.9884 173.36C39.9834 173.37 39.9444 173.48 39.9284 173.497L39.9274 173.501C39.8894 173.611 39.8573 173.723 39.8303 173.836C39.8053 173.942 39.7843 174.049 39.7673 174.156C39.7633 174.183 39.7293 174.374 39.7543 174.24C39.7793 174.104 39.7494 174.326 39.7474 174.353C39.7354 174.571 39.7383 174.791 39.7583 175.008C39.7633 175.062 39.7683 175.115 39.7753 175.169C39.7783 175.196 39.7824 175.222 39.7864 175.248C39.7954 175.308 39.7913 175.283 39.7743 175.175C39.7493 175.211 39.8303 175.438 39.8403 175.48C39.8653 175.577 39.8954 175.674 39.9284 175.769C39.9444 175.814 39.9634 175.858 39.9804 175.903C39.9854 175.913 39.9903 175.924 39.9953 175.934C40.1813 176.308 40.1283 176.811 39.7283 177.031C39.3763 177.225 38.8303 177.163 38.6313 176.764C38.1143 175.727 38.0023 174.474 38.3043 173.354C38.4573 172.779 38.7273 172.223 39.1403 171.789Z" fill="#99DEF4"/>
<path d="M204.33 198.438C204.267 197.811 204.059 197.164 203.677 196.515C202.678 194.816 200.895 193.526 199.067 192.849C195.722 191.611 191.875 191.498 188.384 192.073C182.454 193.049 177.138 196.214 172.596 200.034C171.189 201.217 169.816 202.442 168.478 203.702C168.063 204.093 167.443 204.755 166.855 205.272C170.796 203.761 174.805 202.294 178.993 201.642C184.009 200.861 188.429 202.169 193.232 203.344C197.076 204.285 204.94 204.5 204.33 198.438Z" fill="#17B5E5" stroke="black" stroke-width="0.5061" stroke-miterlimit="10"/>
<path d="M201.184 198.752C201.205 198.7 201.233 198.599 201.184 198.752V198.752Z" fill="white"/>
<path d="M202.336 197.449C201.923 197.371 201.462 197.605 201.376 198.044C201.336 198.246 201.287 198.445 201.224 198.641C201.207 198.693 201.187 198.744 201.17 198.797C201.177 198.774 201.179 198.769 201.184 198.753C201.149 198.836 201.111 198.918 201.071 198.999C201.031 199.077 200.989 199.153 200.943 199.228C200.925 199.258 200.906 199.287 200.886 199.315C200.783 199.446 200.676 199.572 200.555 199.687C200.531 199.71 200.507 199.731 200.482 199.753C200.42 199.801 200.358 199.848 200.293 199.892C200.15 199.99 200 200.078 199.846 200.158C199.815 200.174 199.784 200.189 199.753 200.204C199.667 200.241 199.581 200.278 199.493 200.312C199.302 200.387 199.107 200.452 198.911 200.513C198.512 200.637 198.243 201.112 198.391 201.516C198.541 201.924 198.966 202.168 199.394 202.036C200.249 201.771 201.07 201.394 201.725 200.772C202.38 200.15 202.757 199.285 202.93 198.41C203.011 198 202.77 197.53 202.336 197.449Z" fill="#99DEF4"/>
<path d="M185.452 172.406C184.953 172.022 184.34 171.729 183.606 171.562C181.685 171.123 179.522 171.535 177.776 172.4C174.581 173.983 171.858 176.705 169.881 179.638C166.522 184.621 165.177 190.66 164.839 196.586C164.734 198.421 164.683 200.26 164.682 202.099C164.682 202.67 164.738 203.574 164.71 204.356C166.315 200.452 167.999 196.529 170.398 193.036C173.272 188.851 177.256 186.534 181.407 183.846C184.728 181.695 190.28 176.122 185.452 172.406Z" fill="#17B5E5" stroke="black" stroke-width="0.5061" stroke-miterlimit="10"/>
<path d="M185.372 174.029C185.011 173.453 184.476 173.088 183.846 172.864C183.451 172.724 182.96 173.067 182.886 173.459C182.799 173.924 183.058 174.269 183.481 174.419C183.285 174.349 183.449 174.407 183.494 174.428C183.551 174.454 183.606 174.483 183.66 174.515C183.681 174.527 183.701 174.54 183.721 174.552C183.725 174.555 183.723 174.554 183.728 174.557C183.748 174.573 183.767 174.589 183.786 174.606C183.83 174.645 183.87 174.688 183.913 174.728C183.916 174.731 183.914 174.728 183.917 174.731C183.973 174.81 184.029 174.888 184.076 174.973C184.082 174.983 184.088 174.994 184.093 175.005C184.108 175.043 184.132 175.093 184.137 175.106C184.174 175.202 184.204 175.301 184.23 175.4C184.233 175.411 184.25 175.527 184.262 175.546L184.263 175.55C184.278 175.665 184.287 175.781 184.291 175.898C184.295 176.007 184.294 176.116 184.288 176.224C184.287 176.251 184.282 176.445 184.284 176.309C184.287 176.171 184.272 176.394 184.268 176.421C184.237 176.637 184.19 176.852 184.127 177.061C184.112 177.113 184.095 177.164 184.078 177.215C184.069 177.24 184.061 177.266 184.051 177.291C184.031 177.348 184.039 177.324 184.078 177.221C184.096 177.261 183.971 177.468 183.952 177.507C183.908 177.597 183.86 177.686 183.808 177.772C183.784 177.813 183.756 177.852 183.731 177.893C183.724 177.902 183.717 177.912 183.71 177.921C183.453 178.25 183.405 178.754 183.753 179.049C184.06 179.31 184.607 179.358 184.881 179.006C185.594 178.092 185.953 176.886 185.88 175.729C185.844 175.135 185.69 174.536 185.372 174.029Z" fill="#99DEF4"/>
<path d="M114.195 177.307C112.563 177.267 103.121 177.486 99.8053 177.405C93.8113 177.259 85.4264 175.715 81.9704 170.063C77.3094 162.44 85.4793 152.357 90.8523 147.549C95.6323 143.271 91.4633 135.88 86.6543 140.184C78.5883 147.402 70.8894 159.126 71.9144 169.261C72.5274 175.324 75.8794 180.471 80.6424 183.093C85.3034 185.659 90.3503 186.404 95.5923 186.33C97.2563 186.307 103.313 186.757 103.407 186.571C103.407 186.571 94.1994 204.736 107.771 208.817L114.195 177.307Z" fill="#F9DF15" stroke="black" stroke-miterlimit="10"/>
<path d="M148.958 177.212L142.347 208.719C128.762 204.817 138.095 186.588 138.095 186.588C137.991 186.778 131.924 186.397 130.259 186.441C125.583 186.554 121.074 186.034 116.852 184.152C116.327 183.924 115.801 183.666 115.284 183.389C114.756 183.102 114.238 182.786 113.749 182.439C109.815 179.684 107.123 175.065 106.608 169.698C106.251 165.983 107.078 162.044 108.669 158.187C111.408 151.547 116.41 145.138 121.546 140.519C123.304 138.942 124.969 138.897 126.137 139.693L123.641 149.816C121.47 152.034 119.183 154.854 117.552 157.859C115.306 162.011 114.321 166.535 116.69 170.38C120.117 175.976 128.516 177.418 134.527 177.487C137.852 177.525 147.322 177.196 148.958 177.212Z" fill="#F9DF15" stroke="black" stroke-miterlimit="10"/>
<path d="M151.99 81.5871L119.443 161.432L73.7299 157.051L55.2148 78.7141C61.9038 82.9561 76.6208 86.2731 101.279 88.1661C125.62 90.0341 144.462 87.4881 151.99 81.5871Z" fill="#F9DF15" stroke="black" stroke-width="0.5018" stroke-miterlimit="10"/>
<path d="M74.4688 84.9691L81.6137 158.068" stroke="black" stroke-miterlimit="10"/>
<path d="M102.067 88.3572L95.3594 159.012" stroke="black" stroke-miterlimit="10"/>
<path d="M129.096 88.1881L110.01 160.484" stroke="black" stroke-miterlimit="10"/>
<path d="M58.8301 94.1871C71.9351 96.5431 86.2831 98.6781 101.745 100.336C115.766 101.839 131.087 102.668 143.324 103.183" stroke="black" stroke-miterlimit="10"/>
<path d="M62.6836 110.45C73.2346 112.745 85.4666 114.905 99.1296 116.436C113.285 118.022 126.104 118.612 137.201 118.675" stroke="black" stroke-miterlimit="10"/>
<path d="M66.4922 126.435C74.1482 128.921 84.7482 131.725 97.6512 133.285C111.25 134.929 122.755 134.63 131.025 133.949" stroke="black" stroke-miterlimit="10"/>
<path d="M70.666 143.558C77.667 145.691 86.351 147.858 96.461 149.364C106.991 150.932 116.324 151.373 123.918 151.342" stroke="black" stroke-miterlimit="10"/>
<path d="M140.502 108.808L140.483 108.806L129.014 136.946C121.329 138.211 111.127 138.711 97.7424 137.445C85.3394 136.278 75.5984 134.138 68.0284 131.694L60.7404 100.859L60.7114 100.856C41.7454 104.218 28.7274 112.429 27.2274 126.109C24.8944 147.386 55.2904 165.568 94.5624 169.514C133.835 173.46 167.312 161.699 169.445 140.399C170.781 127.063 159.126 116.09 140.502 108.808Z" fill="#409900" stroke="black" stroke-miterlimit="10"/>
<path d="M44.1895 118.269C44.1895 118.269 55.5454 133.465 97.7384 137.443C139.808 141.409 150.409 128.015 150.409 128.015" stroke="black" stroke-miterlimit="10"/>
<path d="M52.1022 147.964C48.0902 146.182 44.2692 143.774 41.5232 140.292C38.8202 136.865 37.6242 132.602 37.5692 128.28C37.5452 126.363 34.5562 126.13 34.5802 128.059C34.6442 133.125 35.9852 137.972 39.0882 142.033C42.1572 146.049 46.5602 148.771 51.1202 150.796C52.8862 151.58 53.8522 148.742 52.1022 147.964Z" fill="#BEDCA8"/>
<path d="M163.98 139.103C163.116 138.866 162.451 139.4 162.137 140.149C160.708 143.556 158.785 146.753 156.2 149.408C153.572 152.108 150.433 154.203 147.242 156.173C145.604 157.184 147.107 159.777 148.754 158.76C152.212 156.626 155.642 154.32 158.468 151.372C161.36 148.355 163.418 144.78 165.026 140.946C165.339 140.2 164.689 139.298 163.98 139.103Z" fill="#BEDCA8"/>
<path d="M143.517 157.472C141.589 157.472 141.586 160.468 143.517 160.468C145.445 160.469 145.448 157.472 143.517 157.472Z" fill="#BEDCA8"/>
<path d="M160.696 94.1751C159.744 92.1561 158.422 90.2841 157.628 88.2001C156.903 86.2971 156.469 83.1271 156.159 80.6741C156.135 79.6291 156.069 78.6351 155.971 77.6861C156.046 77.1411 156.097 76.5891 156.097 76.0211C156.105 65.7861 145.18 66.3761 145.18 66.3761C145.18 66.3761 153.793 59.6421 149.904 48.6771C146.015 37.7111 133.019 39.3781 133.019 39.3781C140.212 18.3621 121.253 15.5961 121.253 15.5961C122.933 5.84507 117.282 3.36308 117.282 3.36308C105.459 -3.62492 95.6102 7.11107 95.6102 7.11107C95.6102 7.11107 108.264 -1.13193 108.65 12.6041C108.596 17.6291 104.453 19.7951 100.163 20.5911C94.7742 21.5911 89.1882 21.2081 83.9432 23.0571C78.6212 24.9331 74.1362 28.8191 73.3152 34.7571C72.9632 37.2991 73.2972 39.8961 74.2152 42.2661C74.4122 42.7741 75.0822 44.8941 75.6842 45.0941C75.6732 45.0901 72.4482 44.5291 68.6162 44.8271C59.3412 45.5481 54.3322 56.5331 60.0142 63.9791C60.0692 64.0511 60.1252 64.1231 60.1822 64.1951C60.1822 64.1951 48.4462 62.2841 47.7272 73.2711C47.5982 75.2461 48.1412 77.1371 49.3862 78.9301C48.7392 84.6821 45.6422 93.4661 49.9202 97.8521C52.6062 100.607 54.3422 97.9451 55.1472 95.2431C55.4132 94.3511 56.6502 88.5411 58.4312 89.0791C60.1742 89.6061 58.2182 94.0101 62.0172 93.1881C64.3742 92.6781 64.8482 90.6051 65.9182 94.7131C67.0292 98.9801 66.1572 105.188 69.1302 108.664C70.9132 110.749 72.9912 110.076 75.1392 108.523C76.2172 107.743 76.7692 107.017 77.3242 105.775C78.1602 103.904 78.5302 98.9441 80.1472 97.6361C81.5092 96.5331 83.3082 97.2641 84.7722 96.0341C85.7142 95.2431 86.2872 93.9581 86.6782 92.7371C90.4082 93.2771 94.4192 93.7671 98.7422 94.1991C108.353 95.1601 117.173 95.2451 124.872 94.5451C124.701 97.5651 124.961 101.624 128.529 101.077C131.182 100.67 131.225 95.3251 133.024 95.4701C134.646 95.6001 134.567 100.982 134.58 101.803C134.637 105.352 133.984 109.398 135.668 112.868C139.539 120.845 143.811 111.499 144.305 107.807C144.51 106.273 144.61 100.854 146.99 100.726C149.856 100.572 147.606 107.027 151.706 106.994C153.828 106.977 154.839 102.547 155.304 98.6791C157.042 100.303 160.042 101.722 161.384 99.2951C162.162 97.8861 161.351 95.5641 160.696 94.1751Z" fill="#FEBEED" stroke="black" stroke-miterlimit="10"/>
<path d="M75.6855 45.0941C75.6855 45.0941 86.0146 52.5791 97.2606 48.9121" stroke="black" stroke-miterlimit="10"/>
<path d="M60.0156 63.9791C60.0156 63.9791 69.3456 71.7141 85.8586 72.4101" stroke="black" stroke-miterlimit="10"/>
<path d="M119.771 41.9262C119.771 41.9262 128.127 43.7412 133.02 39.3782" stroke="black" stroke-miterlimit="10"/>
<path d="M119.465 73.4481C119.465 73.4481 135.676 75.3251 145.181 66.3771" stroke="black" stroke-miterlimit="10"/>
<path d="M117.471 15.9751C117.471 15.9751 119.611 15.2811 121.254 15.5971" stroke="black" stroke-miterlimit="10"/>
<path d="M62.7487 84.8322C62.7487 84.8322 55.1667 84.4862 49.3867 78.9302" stroke="black" stroke-miterlimit="10"/>
<path d="M155.972 77.6862C155.972 77.6862 152.27 87.5292 136.027 89.2672" stroke="black" stroke-miterlimit="10"/>
<path d="M68.6243 47.7211C68.1693 46.9321 67.2233 46.7641 66.4573 47.1671C62.1193 49.4531 59.9273 54.9381 61.1763 59.6611C61.3993 60.5021 62.3113 61.0041 63.1293 60.7601C63.9623 60.5121 64.4513 59.5961 64.2283 58.7521C64.0863 58.2151 64.0423 57.9621 64.0123 57.6151C63.9703 57.1171 63.9703 56.6151 64.0093 56.1161C64.0123 56.0781 64.0323 55.9111 64.0323 55.8961C64.0423 55.8251 64.0533 55.7541 64.0653 55.6831C64.1053 55.4491 64.1543 55.2161 64.2113 54.9851C64.2683 54.7541 64.3333 54.5251 64.4063 54.2981C64.4473 54.1721 64.4913 54.0481 64.5363 53.9231C64.5463 53.8941 64.5513 53.8791 64.5543 53.8681C64.5633 53.8481 64.5683 53.8371 64.5803 53.8111C64.7753 53.3761 64.9883 52.9531 65.2383 52.5481C65.5483 52.0461 65.5353 52.0581 65.9233 51.6171C66.0963 51.4201 66.2773 51.2311 66.4673 51.0511C66.5433 50.9791 66.6203 50.9081 66.6983 50.8391C66.7163 50.8231 66.8543 50.7091 66.9063 50.6651C66.9533 50.6311 67.0383 50.5681 67.0513 50.5581C67.1573 50.4821 67.2653 50.4081 67.3753 50.3371C67.5963 50.1941 67.8243 50.0651 68.0563 49.9421C68.8213 49.5401 69.0373 48.4381 68.6243 47.7211Z" fill="#FDA1E5"/>
<path d="M148.873 72.7201C148.881 72.7361 148.908 72.7721 148.945 72.8131C148.93 72.7901 148.923 72.7821 148.913 72.7671C148.9 72.7511 148.886 72.7371 148.873 72.7201Z" fill="#FDA1E5"/>
<path d="M149.886 69.3911C149.178 68.9591 148.109 69.2381 147.72 70.0061C147.316 70.8031 147.539 71.7491 148.297 72.2111C148.361 72.2501 148.422 72.2921 148.485 72.3321C148.603 72.4421 148.722 72.5481 148.831 72.6691C148.845 72.6851 148.86 72.7021 148.873 72.7191C148.866 72.7051 148.881 72.7221 148.913 72.7671C148.94 72.8021 148.966 72.8391 148.997 72.8671C148.977 72.8501 148.962 72.8311 148.946 72.8131C148.949 72.8181 148.95 72.8181 148.953 72.8231C149.042 72.9571 149.124 73.0961 149.199 73.2381C149.238 73.3111 149.272 73.3861 149.309 73.4611C149.357 73.6081 149.414 73.7531 149.458 73.9021C149.51 74.0791 149.554 74.2591 149.59 74.4401C149.606 74.5161 149.618 74.5921 149.632 74.6691C149.632 74.6711 149.632 74.6721 149.632 74.6721C149.661 75.0341 149.685 75.3911 149.675 75.7541C149.67 75.9231 149.656 76.0901 149.645 76.2591C149.633 76.3341 149.622 76.4091 149.609 76.4841C149.546 76.8391 149.458 77.1911 149.341 77.5321C149.331 77.5631 149.319 77.5941 149.307 77.6241C149.334 77.5611 149.342 77.5491 149.3 77.6431C149.282 77.6881 149.264 77.7331 149.251 77.7781C149.261 77.7431 149.274 77.7051 149.288 77.6711C149.284 77.6801 149.284 77.6791 149.28 77.6901C149.211 77.8411 149.134 77.9881 149.052 78.1331C148.634 78.8681 148.872 79.9451 149.629 80.3381C150.394 80.7351 151.347 80.5101 151.794 79.7231C153.628 76.4981 153.18 71.4001 149.886 69.3911Z" fill="#FDA1E5"/>
<path d="M149.306 77.624C149.299 77.64 149.294 77.652 149.287 77.671C149.293 77.657 149.295 77.653 149.3 77.642C149.302 77.637 149.303 77.63 149.306 77.624Z" fill="#FDA1E5"/>
<path d="M127.409 20.9541C126.67 20.5241 125.671 20.8091 125.244 21.5691C124.813 22.3351 125.079 23.3421 125.821 23.7741C125.936 23.8411 126.051 23.9101 126.162 23.9841C126.203 24.0111 126.242 24.0411 126.282 24.0701C126.291 24.0771 126.283 24.0721 126.299 24.0861C126.487 24.2581 126.659 24.4341 126.833 24.6211C126.861 24.6511 126.879 24.6691 126.895 24.6861C126.902 24.7001 126.91 24.7151 126.926 24.7411C126.991 24.8471 127.063 24.9491 127.126 25.0561C127.189 25.1641 127.249 25.2741 127.305 25.3851C127.322 25.4201 127.362 25.5081 127.389 25.5651C127.564 26.0141 127.695 26.4831 127.785 26.9581C127.799 27.0291 127.816 27.1361 127.824 27.1731C127.837 27.2741 127.849 27.3741 127.859 27.4751C127.888 27.7711 127.906 28.0681 127.914 28.3661C127.931 28.9481 127.912 29.5311 127.869 30.1121C127.85 30.3701 127.824 30.6271 127.796 30.8851C127.79 30.9391 127.781 31.0131 127.774 31.0681C127.756 31.2041 127.736 31.3401 127.716 31.4761C127.559 32.5171 127.344 33.5491 127.105 34.5741C126.906 35.4271 127.395 36.3211 128.236 36.5361C129.053 36.7451 129.97 36.2131 130.17 35.3571C131.269 30.6371 132.306 23.8051 127.409 20.9541Z" fill="#FDA1E5"/>
<path d="M72.4854 104.667C72.4514 104.646 72.4205 104.621 72.3875 104.599C72.2755 104.503 72.1745 104.394 72.0765 104.283C72.0185 104.193 71.9645 104.099 71.9155 104.003C71.8575 103.835 71.8105 103.664 71.7775 103.489C71.7645 103.286 71.7644 103.083 71.7784 102.88C71.8364 102.536 71.9195 102.198 72.0395 101.869C72.1735 101.502 72.0595 100.965 71.8745 100.644C71.6785 100.304 71.2945 99.9871 70.9085 99.9071C70.5075 99.8241 70.0625 99.8521 69.7075 100.09L69.3865 100.347C69.1855 100.557 69.0475 100.803 68.9745 101.086C68.5745 102.182 68.4865 103.393 68.7335 104.527C69.0075 105.783 69.8305 106.833 70.8965 107.486C71.6035 107.92 72.6735 107.638 73.0615 106.871C73.4665 106.074 73.2414 105.132 72.4854 104.667Z" fill="#FDA1E5"/>
<path d="M142.144 108.499C142.238 108.087 142.189 107.639 141.979 107.274C141.783 106.934 141.399 106.617 141.013 106.537C140.192 106.367 139.281 106.83 139.079 107.716C138.923 108.402 138.803 109.1 138.576 109.767C138.508 109.919 138.428 110.064 138.339 110.205C138.317 110.229 138.295 110.254 138.271 110.277C138.241 110.296 138.212 110.315 138.181 110.332C138.177 110.333 138.173 110.335 138.169 110.336C137.368 110.565 136.806 111.523 137.07 112.344C137.34 113.181 138.166 113.688 139.023 113.443C140.205 113.105 141.011 112.163 141.462 111.036C141.793 110.213 141.948 109.361 142.144 108.499Z" fill="#FDA1E5"/>
<path d="M52.2785 95.4791C52.2755 95.3121 52.2315 95.1571 52.1585 95.0111C52.1005 94.8641 52.0645 94.7091 52.0335 94.5541C52.0225 94.4131 52.0165 94.2711 52.0285 94.1291C52.0505 94.0151 52.0555 93.9011 52.0295 93.7881C52.0215 93.6481 51.9795 93.5191 51.9045 93.3991C51.8385 93.2741 51.7475 93.1741 51.6325 93.1001C51.5275 93.0041 51.4055 92.9411 51.2635 92.9101C50.9975 92.8551 50.7025 92.8741 50.4665 93.0311C50.2425 93.1811 50.0305 93.4131 49.9805 93.6911C49.9415 93.9101 49.9125 94.1361 49.9085 94.3591C49.9045 94.5861 49.9395 94.8071 49.9725 95.0311C50.0265 95.3921 50.1605 95.7341 50.3185 96.0581C50.3845 96.1831 50.4755 96.2831 50.5905 96.3571C50.6945 96.4531 50.8175 96.5161 50.9595 96.5471C51.0985 96.5881 51.2365 96.5921 51.3745 96.5571C51.5115 96.5471 51.6385 96.5031 51.7565 96.4251C51.9845 96.2721 52.1835 96.0451 52.2425 95.7651C52.2555 95.6701 52.2665 95.5751 52.2785 95.4791Z" fill="#FDA1E5"/>
<path d="M152.369 104.122C152.366 103.955 152.322 103.8 152.249 103.653C152.191 103.506 152.155 103.351 152.124 103.196C152.112 103.055 152.107 102.913 152.119 102.772C152.141 102.658 152.146 102.544 152.12 102.43C152.112 102.29 152.071 102.161 151.996 102.041C151.93 101.916 151.839 101.816 151.724 101.742C151.62 101.646 151.497 101.583 151.355 101.552C151.089 101.497 150.794 101.516 150.558 101.673C150.334 101.823 150.122 102.055 150.072 102.333C150.033 102.552 150.004 102.778 150 103.001C149.996 103.228 150.031 103.449 150.064 103.673C150.118 104.034 150.252 104.376 150.41 104.7C150.476 104.825 150.567 104.925 150.682 104.999C150.786 105.095 150.909 105.158 151.051 105.189C151.19 105.23 151.328 105.234 151.465 105.199C151.602 105.189 151.729 105.145 151.847 105.067C152.075 104.914 152.274 104.687 152.333 104.407C152.346 104.313 152.357 104.217 152.369 104.122Z" fill="#FDA1E5"/>
<path d="M101.24 60.4011C101.244 62.7231 103.129 64.6031 105.452 64.5991C107.774 64.5951 109.654 62.7101 109.65 60.3871C109.646 58.0651 107.761 56.1851 105.438 56.1891C103.116 56.1931 101.237 58.0781 101.24 60.4011Z" fill="#EC4239" stroke="black" stroke-width="0.5143" stroke-miterlimit="10"/>
<path d="M119.096 84.3931C119.075 84.4111 119.056 84.4191 119.035 84.4361C112.192 88.7711 103.527 89.2861 95.9619 86.6291C93.2659 85.6841 90.355 84.2121 87.847 82.2741C83.931 79.2681 81.012 75.1271 81.491 70.0781C81.948 65.4021 85.627 64.3551 89.769 64.6531C93.424 64.9201 97.453 66.2351 99.929 67.0471C102.08 67.7351 104.253 68.2721 106.518 68.2881C110.172 68.3341 113.597 66.8721 117.209 66.7421C117.922 66.7151 118.727 66.7341 119.572 66.8431C122.007 67.1231 124.722 67.9541 126.19 69.5751C130.556 74.4431 122.939 81.9491 119.096 84.3931Z" fill="black" stroke="black" stroke-width="0.5143" stroke-miterlimit="10"/>
<path d="M119.097 84.3931C119.076 84.4111 119.057 84.4191 119.036 84.4361C112.193 88.7711 103.528 89.2861 95.9626 86.6291C93.2666 85.6841 90.3557 84.2121 87.8477 82.2741C91.2757 78.1241 97.2887 75.5731 103.943 76.0231C110.628 76.4661 116.255 79.7971 119.097 84.3931Z" fill="#FC7ADA" stroke="black" stroke-width="0.5143" stroke-miterlimit="10"/>
<path d="M115.306 51.0791C115.275 51.3181 115.187 52.7771 115.198 53.2601C115.339 60.0471 119.886 65.8951 126.246 67.8021C127.325 68.1321 128.453 68.3431 129.616 68.4271C138.182 69.0471 145.63 62.6121 146.25 54.0451C146.878 45.4801 140.435 38.0311 131.868 37.4111C131.195 37.3621 130.522 37.3571 129.865 37.3911C125.004 37.6571 120.674 40.1851 118 44.0021C117.999 44.0091 117.999 44.0091 117.999 44.0091C117.913 44.1281 117.826 44.2551 117.74 44.3741C116.456 46.3361 115.594 48.6091 115.306 51.0791Z" fill="white" stroke="black" stroke-width="0.5143" stroke-miterlimit="10"/>
<path d="M116.878 60.2591C119.354 64.7861 124.115 67.9931 129.394 68.3681C129.942 68.4071 130.493 68.4171 131.044 68.3961C132.489 68.3421 133.927 68.0861 135.303 67.6361C135.814 65.7251 133.35 65.0611 133.466 63.2201C133.568 61.6891 134.583 60.5791 133.753 59.1651C133.093 58.0231 131.459 57.7391 130.314 57.0211C128.059 55.6091 129.436 54.3731 129.406 51.8561C129.392 50.2521 128.663 49.5921 127.211 48.8601C125.527 48.0151 125.199 48.2601 125.459 46.3661C125.611 45.2281 126.342 43.8611 126.062 42.7851C125.652 41.2511 123.944 40.3381 121.986 40.6981C121.688 40.7521 121.387 40.8161 121.095 40.8841C117.247 43.8621 115.114 48.3761 115.075 53.0011C115.108 53.1371 115.101 53.2771 115.068 53.4451C114.919 54.2011 115.195 55.2551 115.338 55.9991C115.627 57.5061 116.155 58.9391 116.878 60.2591Z" fill="black" stroke="black" stroke-width="0.5143" stroke-miterlimit="10"/>
<path d="M146.113 51.439L152.222 49.853" stroke="black" stroke-width="0.5143" stroke-miterlimit="10"/>
<path d="M144.457 45.2591L150.264 41.8821" stroke="black" stroke-width="0.5143" stroke-miterlimit="10"/>
<path d="M140.559 40.5481L144.92 35.6891" stroke="black" stroke-width="0.5143" stroke-miterlimit="10"/>
<path d="M68.3511 47.4311C68.3201 47.6701 68.2321 49.1291 68.2431 49.6121C68.3831 56.3991 72.9311 62.2471 79.2911 64.1541C80.3701 64.4841 81.4981 64.6951 82.6611 64.7791C91.2271 65.3991 98.6751 58.9641 99.2951 50.3971C99.9231 41.8321 93.4801 34.3831 84.9131 33.7631C84.2401 33.7141 83.5671 33.7091 82.9111 33.7431C78.0501 34.0091 73.7201 36.5371 71.0461 40.3541C71.0451 40.3611 71.0451 40.3611 71.0451 40.3611C70.9591 40.4801 70.8721 40.6071 70.7861 40.7261C69.5011 42.6881 68.6381 44.9611 68.3511 47.4311Z" fill="white" stroke="black" stroke-width="0.5143" stroke-miterlimit="10"/>
<path d="M69.9231 56.6111C72.3991 61.1381 77.1601 64.3451 82.4391 64.7201C82.9881 64.7591 83.5381 64.7691 84.0891 64.7481C85.5341 64.6941 86.9721 64.4381 88.3481 63.9881C88.8591 62.0771 86.3951 61.4131 86.5111 59.5721C86.6131 58.0411 87.6281 56.9301 86.7981 55.5171C86.1381 54.3751 84.5041 54.0911 83.3591 53.3731C81.1041 51.9601 82.4811 50.7251 82.4511 48.2081C82.4371 46.6041 81.708 45.9441 80.2561 45.2121C78.5721 44.3671 78.2441 44.6121 78.5041 42.7181C78.6561 41.5801 79.3871 40.2131 79.1071 39.1371C78.6971 37.6031 76.9891 36.6901 75.0311 37.0501C74.7331 37.1051 74.4321 37.1691 74.1401 37.2361C70.2921 40.2141 68.1591 44.7281 68.1201 49.3531C68.1531 49.4901 68.1471 49.6291 68.1131 49.7971C67.9641 50.5531 68.2411 51.6071 68.3841 52.3511C68.6731 53.8581 69.2011 55.2901 69.9231 56.6111Z" fill="black" stroke="black" stroke-width="0.5143" stroke-miterlimit="10"/>
<path d="M73.5883 37.6601L68.9863 33.3401" stroke="black" stroke-width="0.5143" stroke-miterlimit="10"/>
<path d="M69.662 42.2181L63.707 39.1091" stroke="black" stroke-width="0.5143" stroke-miterlimit="10"/>
<path d="M68.1665 48.4611L61.7305 47.3671" stroke="black" stroke-width="0.5143" stroke-miterlimit="10"/>
<path d="M47.6664 89.9831C39.1274 95.8451 32.6265 103.949 33.0345 113.78C33.0915 115.378 33.3495 117.027 33.7985 118.726C34.2355 120.342 34.8644 122.007 35.6964 123.704C38.0214 128.445 30.9325 132.633 28.5985 127.881C26.8395 124.293 25.6674 120.629 25.1354 116.967C23.9584 109.033 25.7835 101.152 31.1035 94.0981C35.8285 87.8221 42.1724 83.0211 49.1534 79.3911C49.1804 79.4351 49.2074 79.4691 49.2344 79.5131C48.9024 82.5181 47.8824 86.3861 47.6664 89.9831Z" fill="black"/>
<path d="M37.6734 117.294C37.6734 117.294 39.9184 113.967 36.6964 113.311C33.4744 112.655 18.7624 118.423 19.2174 123.206C19.5084 126.26 22.7294 124.53 22.7294 124.53C19.4264 141.099 30.8864 151.044 34.0674 147.472C34.4164 147.08 34.5664 146.797 34.5664 146.797C39.7404 148.542 40.3594 144.262 40.3594 144.262C42.8294 145.206 44.0984 144.408 44.7484 143.416C45.3524 142.493 45.1854 141.289 44.4344 140.482C39.8424 135.547 40.2874 124.804 40.2874 124.804C40.2874 124.804 48.9804 121.714 47.8194 119.062C47.1534 117.54 41.6994 117.025 37.2094 117.533" fill="white"/>
<path d="M37.6734 117.294C37.6734 117.294 39.9184 113.967 36.6964 113.311C33.4744 112.655 18.7624 118.423 19.2174 123.206C19.5084 126.26 22.7294 124.53 22.7294 124.53C19.4264 141.099 30.8864 151.044 34.0674 147.472C34.4164 147.08 34.5664 146.797 34.5664 146.797C39.7404 148.542 40.3594 144.262 40.3594 144.262C42.8294 145.206 44.0984 144.408 44.7484 143.416C45.3524 142.493 45.1854 141.289 44.4344 140.482C39.8424 135.547 40.2874 124.804 40.2874 124.804C40.2874 124.804 48.9804 121.714 47.8194 119.062C47.1534 117.54 41.6994 117.025 37.2094 117.533" stroke="black" stroke-miterlimit="10"/>
<path d="M35.1289 132.581C35.1289 132.581 35.1399 138.864 40.3589 144.262" stroke="black" stroke-miterlimit="10"/>
<path d="M29.0332 134.335C29.0332 134.335 29.3972 140.55 34.5662 146.797" stroke="black" stroke-miterlimit="10"/>
<path d="M37.4537 117.232L33.0137 119.051" stroke="black" stroke-miterlimit="10"/>
<path d="M25.8185 122.639L22.7285 124.53" stroke="black" stroke-miterlimit="10"/>
<path d="M173.058 130.844C171.809 134.327 169.931 137.684 167.493 140.851C164.26 145.044 158.145 139.529 161.367 135.345C162.52 133.848 163.467 132.351 164.218 130.845C165.006 129.28 165.577 127.715 165.961 126.151C168.433 116.154 163.088 106.488 155.322 98.8941C155.336 98.7511 155.361 98.6081 155.375 98.4651C157.116 100.067 160.119 101.464 161.441 99.1061C162.209 97.7361 161.394 95.4621 160.724 94.1021C160.193 93.0051 159.543 91.9671 158.958 90.8951C164.233 95.4981 168.744 100.924 171.758 107.244C175.569 115.216 175.79 123.302 173.058 130.844Z" fill="black"/>
<path d="M160.708 128.671C160.708 128.671 159.169 124.964 162.458 124.962C165.746 124.96 179.017 133.54 177.619 138.137C176.726 141.073 173.914 138.736 173.914 138.736C173.854 155.631 160.645 163.097 158.239 158.964C157.975 158.511 157.884 158.203 157.884 158.203C152.466 158.884 152.711 154.567 152.711 154.567C150.103 155.001 149.018 153.966 148.578 152.864C148.169 151.84 148.573 150.693 149.47 150.051C154.952 146.128 156.653 135.512 156.653 135.512C156.653 135.512 148.749 130.754 150.413 128.386C151.369 127.027 156.816 127.607 161.115 128.999" fill="white"/>
<path d="M160.708 128.671C160.708 128.671 159.169 124.964 162.458 124.962C165.746 124.96 179.017 133.54 177.619 138.137C176.726 141.073 173.914 138.736 173.914 138.736C173.854 155.631 160.645 163.097 158.239 158.964C157.975 158.511 157.884 158.203 157.884 158.203C152.466 158.884 152.711 154.567 152.711 154.567C150.103 155.001 149.018 153.966 148.578 152.864C148.169 151.84 148.573 150.693 149.47 150.051C154.952 146.128 156.653 135.512 156.653 135.512C156.653 135.512 148.749 130.754 150.413 128.386C151.369 127.027 156.816 127.607 161.115 128.999" stroke="black" stroke-miterlimit="10"/>
<path d="M160.16 144.159C160.16 144.159 158.899 150.314 152.711 154.566" stroke="black" stroke-miterlimit="10"/>
<path d="M165.785 147.09C165.785 147.09 164.192 153.109 157.883 158.202" stroke="black" stroke-miterlimit="10"/>
<path d="M160.936 128.653L164.926 131.32" stroke="black" stroke-miterlimit="10"/>
<path d="M171.264 136.268L173.916 138.735" stroke="black" stroke-miterlimit="10"/>
</svg>
