<svg width="223" height="127" viewBox="0 0 223 127" fill="none" xmlns="http://www.w3.org/2000/svg">
<path d="M172.419 54.1599C172.463 54.454 172.505 54.7273 172.53 55.0238C177.12 88.3881 154.055 119.348 120.642 124.411C108.375 126.269 96.3816 124.379 85.8616 119.587C79.8892 116.879 74.3918 113.236 69.5801 108.797L69.5778 108.778C61.6779 101.511 55.6175 92.1678 52.3556 81.4099C51.4961 78.5821 50.8267 75.6501 50.3726 72.6485C48.5332 60.5127 50.3563 48.6849 55.0128 38.2606C57.8531 31.9124 61.7451 26.0807 66.5058 21.0341C75.6358 11.3371 87.9767 4.5257 102.148 2.37877C111.741 0.926637 121.177 1.76271 129.853 4.50949C145.31 9.35687 158.413 20.1819 166.023 34.6823C169.148 40.6113 171.358 47.1679 172.419 54.1599Z" fill="#F1ED94"/>
<path d="M98.4357 44.0205C106.639 43.3952 114.717 41.7045 122.367 38.916C124.25 38.2374 125.559 36.373 125.443 34.2562C125.295 31.6762 123.085 29.6891 120.504 29.8373L120.428 29.8304C113.035 30.238 105.747 29.9763 98.5863 29.1888C91.4185 28.3643 84.3943 26.9956 77.6436 24.9644C73.8234 23.8574 70.1052 22.5488 66.5027 21.0342C61.742 26.0807 57.85 31.9124 55.0098 38.2606C61.1119 40.4631 67.3645 42.0426 73.6612 43.0547C81.9086 44.3331 90.2231 44.7014 98.4357 44.0205Z" fill="#EAB6C1"/>
<path d="M121.958 93.8005L121.886 93.8121C114.535 94.6273 107.233 94.7593 100.04 94.3865C92.8395 93.9603 85.7436 92.9945 78.884 91.3548C72.0336 89.7707 65.3987 87.5195 59.1344 84.7403C56.8247 83.7051 54.5567 82.5887 52.3535 81.4053C55.6131 92.1654 61.6734 101.508 69.5756 108.773L69.5779 108.792C71.6907 109.146 73.8128 109.424 75.9256 109.647C84.2308 110.448 92.5708 110.346 100.73 109.204C108.882 108.12 116.854 105.976 124.328 102.763C126.176 101.978 127.379 100.035 127.136 97.9392C126.858 95.3615 124.538 93.5226 121.958 93.8005Z" fill="#EAB6C1"/>
<path d="M172.419 54.1599C171.36 47.1679 169.148 40.6113 166.02 34.6824C159.819 39.3653 153.033 43.409 145.807 46.6376C138.378 50.0096 130.462 52.5202 122.298 54.1483C114.127 55.7232 105.694 56.4389 97.1226 56.1077L97.067 56.1169C94.9936 56.0359 93.0406 57.3629 92.4198 59.4427C91.6715 61.9139 93.0777 64.5287 95.5496 65.2605C104.615 67.9864 114.238 69.1884 123.857 68.892C133.483 68.6326 143.111 66.9118 152.401 63.9496C159.36 61.6777 166.122 58.7062 172.53 55.0215C172.505 54.7273 172.463 54.4517 172.419 54.1599Z" fill="#EAB6C1"/>
<path opacity="0.5" d="M172.419 54.1598C177.527 87.8576 154.349 119.304 120.641 124.411C108.375 126.268 96.3813 124.379 85.8613 119.587C100.5 111.995 113.43 101.05 122.004 87.0563C131.514 71.5738 135.29 52.9879 134.636 34.849C134.261 24.5891 132.535 14.4404 129.85 4.51172C151.638 11.3393 168.768 30.0711 172.419 54.1598Z" fill="#EAB6C1"/>
<path d="M68.7144 69.9829L68.7122 70.0061C68.5407 72.1321 65.4919 72.3637 65.0101 70.2793C60.0987 48.9953 74.5803 25.0895 95.3932 19.3621C97.3253 18.8317 98.5091 21.4395 96.8341 22.5419C93.7854 25.7125 71.4365 36.0211 68.7144 69.9829Z" fill="white"/>
<path d="M222.017 44.2612C220.412 33.6609 187.485 33.1931 167.487 33.8925C159.764 19.1905 146.23 7.90237 130.354 2.92297C121.143 0.00480891 111.565 -0.734002 101.896 0.732026C87.7292 2.87664 75.071 9.50272 65.2877 19.89C60.3787 25.094 56.4102 31.0462 53.4866 37.5796C51.4386 42.1606 49.9908 46.9432 49.0873 51.8253C29.618 57.1197 -1.54579 67.3008 0.0596618 77.8826C1.01876 84.2076 13.0399 87.7349 35.7919 88.3695C38.1433 88.4343 40.5735 88.4668 43.0778 88.4668C46.2957 88.4668 49.671 88.3926 53.1159 88.2884C56.5909 96.4268 61.7432 103.806 68.304 109.876C68.348 109.927 68.3943 109.975 68.443 110.022C73.3937 114.589 79.0209 118.318 85.1647 121.104C93.419 124.865 102.32 126.783 111.322 126.783C114.505 126.783 117.7 126.542 120.885 126.06C149.865 121.671 171.474 97.8952 174.417 69.9364C180.338 68.299 185.891 66.6037 190.99 64.8644C212.54 57.518 222.979 50.5862 222.017 44.2612ZM35.8915 85.0391C12.6623 84.3906 3.85665 80.6595 3.36088 77.3847C2.6682 72.8083 16.4338 64.3155 48.5127 55.4522C47.7899 61.2074 47.8409 67.0715 48.7235 72.8986C49.1845 75.9372 49.8703 78.9642 50.7599 81.8939C51.0796 82.9454 51.4456 83.9783 51.8186 85.0089C46.196 85.1595 40.8561 85.1757 35.8915 85.0391ZM120.392 122.762C108.841 124.513 97.1349 122.889 86.5501 118.068C80.7839 115.453 75.4996 111.965 70.8431 107.694C70.799 107.643 70.7527 107.595 70.7041 107.551C64.7433 102.069 59.9802 95.4587 56.6767 88.161C74.0192 87.4616 93.7781 85.5115 114.274 82.4081C134.739 79.3093 154.192 75.3327 170.946 70.8721C167.633 96.8252 147.388 118.672 120.392 122.762ZM189.92 61.7077C185.215 63.3104 180.106 64.8783 174.688 66.3976C174.868 62.6063 174.725 58.7548 174.192 54.8708C174.162 54.5582 174.12 54.2664 174.074 53.956L172.42 54.1598L170.777 54.4447C170.814 54.6902 170.849 54.9241 170.881 55.2484C171.442 59.3222 171.569 63.3613 171.305 67.324C154.405 71.8819 134.63 75.9534 113.778 79.1124C92.9162 82.2714 72.8145 84.24 55.3144 84.8885C54.8164 83.5846 54.3554 82.2622 53.9499 80.9212C53.1044 78.1443 52.4557 75.2748 52.0178 72.3937C50.2896 60.9851 51.8487 49.4167 56.5307 38.9368C59.3014 32.7461 63.0637 27.1043 67.7155 22.1712C76.9822 12.3306 88.9756 6.0542 102.396 4.02307C111.561 2.63578 120.626 3.3329 129.353 6.0982C144.404 10.8205 157.232 21.5204 164.548 35.4581C167.668 41.3778 169.762 47.7538 170.773 54.4076L172.42 54.1598L174.069 53.9143C174.069 53.912 174.067 53.9097 174.067 53.9097C173.186 48.0919 171.474 42.4941 169.054 37.1859C202.353 36.146 218.03 40.192 218.723 44.7615C219.221 48.0363 211.914 54.2085 189.92 61.7077Z" fill="#0A1640"/>
</svg>
