<svg width="483" height="542" viewBox="0 0 483 542" fill="none" xmlns="http://www.w3.org/2000/svg">
<path d="M202.952 200.878C281.037 200.713 344.291 178.044 344.232 150.244C344.174 122.444 280.825 100.04 202.74 100.205C124.654 100.369 61.4009 123.039 61.4595 150.839C61.518 178.639 124.866 201.042 202.952 200.878Z" fill="#EC4239" stroke="black" stroke-width="2" stroke-miterlimit="10"/>
<path d="M263.834 105.313C246.427 101.955 225.214 100.189 202.77 100.232C179.556 100.279 159.313 101.98 140.825 105.442C145.017 78.0268 172.66 58.3601 205.234 60.0646C234.943 61.6061 258.857 80.8988 263.834 105.313Z" fill="#EC4239" stroke="black" stroke-width="2" stroke-miterlimit="10"/>
<path d="M207.381 472.827C207.381 472.827 196.244 465.849 216.422 462.737C238.056 459.4 225.502 470.205 225.502 470.205L228.994 471.635C228.994 471.635 250.066 450.236 261.136 467.414C272.207 484.593 247.384 490.957 231.959 493.208C216.532 495.459 200.385 501.097 207.381 472.827Z" fill="#A782F9" stroke="black" stroke-width="2" stroke-miterlimit="10"/>
<path d="M207.383 472.827C207.383 472.827 211.016 474.165 216.369 472.987L207.383 472.827Z" fill="white"/>
<path d="M207.383 472.827C207.383 472.827 211.016 474.165 216.369 472.987" stroke="black" stroke-width="2" stroke-miterlimit="10"/>
<path d="M222.069 471.72C222.069 471.72 223.284 471.681 225.499 470.204L222.069 471.72Z" fill="white"/>
<path d="M222.069 471.72C222.069 471.72 223.284 471.681 225.499 470.204" stroke="black" stroke-width="2" stroke-miterlimit="10"/>
<path d="M228.993 471.634L222.757 479.115" stroke="black" stroke-width="2" stroke-miterlimit="10"/>
<path d="M228.994 471.635L229.392 479.699" stroke="black" stroke-width="2" stroke-miterlimit="10"/>
<path d="M249.206 463.979C250.848 463.935 252.47 464.39 253.973 465.114C255.478 465.849 256.784 467.009 257.829 468.356C258.743 469.783 259.531 471.353 259.707 473.028C259.882 473.849 259.798 474.688 259.835 475.502C259.737 476.318 259.609 477.127 259.422 477.909L259.324 477.902C259.32 477.113 259.362 476.321 259.319 475.533C259.196 474.755 259.21 473.952 258.965 473.198C258.668 471.646 257.936 470.208 257.039 468.933C255.217 466.352 252.261 464.7 249.189 464.076L249.206 463.979Z" fill="white"/>
<path d="M206.812 388.386C218.377 395.887 224.61 405.7 226.438 419.609C228.264 433.505 225.554 450.342 221.519 463.688C218.924 472.276 205.351 468.832 207.968 460.177C211.048 449.991 212.867 438.017 212.91 427.403C212.955 416.073 209.48 406.769 199.939 400.578C192.419 395.701 199.229 383.468 206.812 388.386Z" fill="black" stroke="black" stroke-width="2" stroke-miterlimit="10"/>
<path d="M70.1125 382.761C70.1125 382.761 82.5597 382.193 68.506 395.507C53.4394 409.781 57.397 394.582 57.397 394.582L53.904 395.353C53.904 395.353 49.0212 423.406 31.1203 415.985C13.2195 408.564 29.1405 390.209 39.9524 380.133C50.7659 370.053 60.3122 356.946 70.1125 382.761Z" fill="#A782F9" stroke="black" stroke-width="2" stroke-miterlimit="10"/>
<path d="M70.1137 382.761C70.1137 382.761 66.5577 383.678 63.0213 387.484L70.1137 382.761Z" fill="white"/>
<path d="M70.1137 382.761C70.1137 382.761 66.5577 383.678 63.0213 387.484" stroke="black" stroke-width="2" stroke-miterlimit="10"/>
<path d="M59.2518 391.548C59.2518 391.548 58.3261 392.233 57.3951 394.582L59.2518 391.548Z" fill="white"/>
<path d="M59.2518 391.548C59.2518 391.548 58.3261 392.233 57.3951 394.582" stroke="black" stroke-width="2" stroke-miterlimit="10"/>
<path d="M53.9047 395.35L54.7285 386.155" stroke="black" stroke-width="2" stroke-miterlimit="10"/>
<path d="M53.9039 395.351L49.2422 389.278" stroke="black" stroke-width="2" stroke-miterlimit="10"/>
<path d="M42.2704 412.227C41.0205 413.164 39.5091 413.693 37.9423 413.947C36.3661 414.194 34.718 413.992 33.1686 413.507C31.6803 412.884 30.2142 412.08 29.1742 410.859C28.5948 410.311 28.2089 409.606 27.7444 408.989C27.3845 408.293 27.0522 407.592 26.7845 406.877L26.8685 406.827C27.2986 407.44 27.6921 408.081 28.1486 408.671C28.6637 409.212 29.0856 409.845 29.6847 410.3C30.7529 411.351 32.0997 412.076 33.4872 412.585C36.2971 413.616 39.4924 413.31 42.224 412.14L42.2704 412.227Z" fill="white"/>
<path d="M132.615 373.536C134.097 363.435 120.764 364.286 119.291 374.325C117.865 384.05 111.381 399.266 103.44 403.948C89.3433 412.258 78.3198 396.382 74.9241 390.659C73.9831 389.072 72.2772 388.057 70.4324 388.116C68.2367 388.186 66.1179 389.116 64.608 390.777C62.4922 393.106 61.9107 396.497 63.1169 399.468C65.0602 403.482 70.6543 412.809 81.4425 418.58C89.0241 422.635 97.6733 423.605 106.174 419.182C120.386 411.786 130.133 390.474 132.615 373.536Z" fill="black" stroke="black" stroke-width="0.978952" stroke-miterlimit="10"/>
<path d="M366.17 297.258C337.039 293.113 308.931 285.131 281.95 273.397C273.501 269.723 267.741 282.834 276.207 286.515C304.303 298.732 333.786 307.117 364.119 311.433C373.231 312.731 375.323 298.56 366.17 297.258Z" fill="black"/>
<path d="M391.797 309.929C391.797 309.929 422.89 313.801 421.72 303.706C420.812 295.881 390.607 296.823 390.607 296.823C390.607 296.823 381.544 278.545 361.872 293.15C361.872 293.15 357.36 287.317 353.628 291.916C352.23 293.639 346.362 303.833 347.389 312.674C347.817 316.369 350.802 319.253 354.49 319.744L357.216 320.107C357.216 320.107 358.009 328.845 367.388 329.424C367.388 329.424 385.996 343.635 389.638 326.388C390.621 326.38 393.07 326.22 395.369 324.524C395.855 324.166 399.679 321.251 399.187 316.96C398.79 313.535 395.791 310.578 391.797 309.929Z" fill="white" stroke="black" stroke-width="2" stroke-miterlimit="10"/>
<path d="M389.637 326.392C385.332 325.989 380.227 324.71 377.13 321.523C375.435 319.779 374.71 317.496 375.056 315.088C375.49 312.056 376.777 309.266 379.962 308.583C384.426 307.624 389.767 309.126 393.944 310.672" fill="white"/>
<path d="M389.637 326.392C385.332 325.989 380.227 324.71 377.13 321.523C375.435 319.779 374.71 317.496 375.056 315.088C375.49 312.056 376.777 309.266 379.962 308.583C384.426 307.624 389.767 309.126 393.944 310.672" stroke="black" stroke-width="2" stroke-miterlimit="10"/>
<path d="M368.176 329.966C367.824 329.474 366.765 327.453 366.807 325.272C366.817 324.732 366.915 322.895 368.172 321.268C370.564 318.171 374.919 318.725 375.114 318.753" fill="white"/>
<path d="M368.176 329.966C367.824 329.474 366.765 327.453 366.807 325.272C366.817 324.732 366.915 322.895 368.172 321.268C370.564 318.171 374.919 318.725 375.114 318.753" stroke="black" stroke-width="2" stroke-miterlimit="10"/>
<path d="M390.607 296.823C391.079 299.446 391.316 302.131 391.363 304.795C391.458 310.202 391.579 319.371 384.479 319.962C377.515 320.542 376.568 309.903 376.407 302.566C376.407 302.566 375.632 312.732 364.268 311.951" fill="white"/>
<path d="M390.607 296.823C391.079 299.446 391.316 302.131 391.363 304.795C391.458 310.202 391.579 319.371 384.479 319.962C377.515 320.542 376.568 309.903 376.407 302.566C376.407 302.566 375.632 312.732 364.268 311.951" stroke="black" stroke-width="2" stroke-miterlimit="10"/>
<path d="M357.211 320.108C357.211 320.108 355.326 318.647 355.709 312.846L357.211 320.108Z" fill="white"/>
<path d="M357.211 320.108C357.211 320.108 355.326 318.647 355.709 312.846" stroke="black" stroke-width="2" stroke-miterlimit="10"/>
<path d="M357.187 301.583C357.187 301.583 357.633 297.592 361.87 293.15L357.187 301.583Z" fill="white"/>
<path d="M357.187 301.583C357.187 301.583 357.633 297.592 361.87 293.15" stroke="black" stroke-width="2" stroke-miterlimit="10"/>
<path d="M155.756 395.91C154.865 395.803 153.961 395.671 153.06 395.522C58.2323 380.343 43.5284 284.622 85.8451 228.833C85.8451 228.833 95.8516 205.731 103.915 179.491C111.976 153.251 142.836 115.026 199.019 118.908C203.299 119.195 207.684 119.777 212.089 120.618C209.971 120.344 207.857 120.129 205.763 119.996C149.581 116.112 118.699 154.353 110.642 180.574C102.58 206.815 92.5681 229.935 92.5681 229.935C50.8646 284.912 64.5379 378.682 155.756 395.91Z" fill="#F9DD06" stroke="black" stroke-width="2" stroke-miterlimit="10"/>
<path d="M92.562 229.927C92.562 229.927 102.578 206.819 110.637 180.584C118.698 154.349 149.568 116.121 205.753 119.993C257.359 123.549 322.62 166.446 302.639 252.983C281.954 342.566 254.617 411.812 159.791 396.619C64.9616 381.428 50.2543 285.72 92.562 229.927Z" fill="#F9DD06" stroke="black" stroke-width="2" stroke-miterlimit="10"/>
<path d="M118.028 183.952C130.491 184.519 130.314 188.411 142.777 188.978C155.235 189.545 155.411 185.654 167.871 186.219C180.334 186.786 180.155 190.677 192.618 191.244C205.085 191.81 205.261 187.919 217.728 188.487C230.191 189.054 230.012 192.946 242.475 193.512C254.946 194.08 255.123 190.187 267.594 190.755C280.065 191.323 279.889 195.214 292.359 195.781" stroke="#FDF2A0" stroke-width="2" stroke-miterlimit="10"/>
<path d="M110.543 233.156C123.006 233.723 122.829 237.615 135.292 238.182C147.751 238.749 147.928 234.856 160.386 235.423C172.849 235.989 172.671 239.881 185.134 240.448C197.6 241.016 197.777 237.123 210.243 237.691C222.706 238.258 222.528 242.15 234.991 242.716C247.462 243.284 247.638 239.391 260.109 239.959C272.58 240.527 272.404 244.417 284.875 244.985" stroke="#FDF2A0" stroke-width="2" stroke-miterlimit="10"/>
<path d="M96.3558 286.673C108.819 287.239 108.642 291.132 121.105 291.698C133.563 292.265 133.74 288.373 146.199 288.939C158.662 289.506 158.483 293.398 170.946 293.964C183.413 294.532 183.589 290.64 196.056 291.208C208.519 291.774 208.34 295.666 220.803 296.233C233.274 296.8 233.451 292.908 245.922 293.476C258.393 294.043 258.217 297.934 270.688 298.502" stroke="#FDF2A0" stroke-width="2" stroke-miterlimit="10"/>
<path d="M103.462 329.402C114.361 330.017 114.141 333.907 125.038 334.522C135.936 335.136 136.157 331.247 147.054 331.864C157.955 332.48 157.735 336.37 168.636 336.984C179.541 337.6 179.761 333.71 190.666 334.326C201.567 334.942 201.348 338.83 212.251 339.447C223.16 340.063 223.379 336.175 234.289 336.79C245.198 337.406 244.979 341.295 255.888 341.911" stroke="#FDF2A0" stroke-width="2" stroke-miterlimit="10"/>
<path d="M149.95 146.569C157.969 146.904 157.805 150.795 165.824 151.13C173.843 151.464 174.005 147.572 182.023 147.908C190.044 148.243 189.88 152.135 197.901 152.47C205.924 152.804 206.085 148.913 214.111 149.248C222.131 149.583 221.969 153.476 229.988 153.81C238.015 154.146 238.177 150.253 246.202 150.588C254.229 150.924 254.065 154.815 262.092 155.151" stroke="#FDF2A0" stroke-width="2" stroke-miterlimit="10"/>
<path d="M120.531 368.803C128.55 369.137 128.386 373.029 136.405 373.363C144.424 373.697 144.586 369.805 152.604 370.141C160.625 370.476 160.461 374.368 168.482 374.703C176.506 375.037 176.669 371.147 184.692 371.482C192.713 371.817 192.551 375.709 200.57 376.042C208.597 376.377 208.759 372.485 216.786 372.82C224.813 373.156 224.649 377.048 232.676 377.383" stroke="#FDF2A0" stroke-width="2" stroke-miterlimit="10"/>
<path d="M194.913 201.135C190.472 223.275 180.72 241.211 170.352 248.485C166.305 251.315 162.181 252.518 158.217 251.723C144.121 248.896 137.697 221.66 143.867 190.896C150.038 160.132 166.467 137.481 180.563 140.308C184.315 141.06 187.519 143.534 190.079 147.325C197.18 157.842 199.447 178.532 194.913 201.135Z" fill="white" stroke="black" stroke-width="0.949494" stroke-miterlimit="10"/>
<path d="M190.074 147.326C176.422 146.397 161.501 166.233 156.126 193.034C155.949 193.913 155.787 194.79 155.634 195.664L176.724 201.298L154.241 208.827C153.494 229.12 159.689 245.349 170.346 248.485C180.715 241.211 190.467 223.275 194.908 201.135C199.444 178.531 197.177 157.841 190.074 147.326Z" fill="black" stroke="black" stroke-width="0.949494" stroke-miterlimit="10"/>
<path d="M287.767 219.761C283.326 241.901 273.574 259.837 263.205 267.111C259.157 269.94 255.034 271.144 251.071 270.349C236.974 267.521 230.55 240.286 236.721 209.522C242.891 178.758 259.321 156.107 273.417 158.934C277.168 159.686 280.373 162.16 282.933 165.951C290.035 176.469 292.301 197.156 287.767 219.761Z" fill="white" stroke="black" stroke-width="0.949494" stroke-miterlimit="10"/>
<path d="M282.933 165.951C269.281 165.023 254.36 184.859 248.985 211.66C248.809 212.539 248.646 213.415 248.494 214.288L269.585 219.922L247.101 227.451C246.356 247.745 252.549 263.973 263.206 267.109C273.575 259.835 283.327 241.899 287.768 219.759C292.302 197.156 290.036 176.469 282.933 165.951Z" fill="black" stroke="black" stroke-width="0.949494" stroke-miterlimit="10"/>
<path d="M238.373 288.584C238.324 288.61 238.28 288.62 238.233 288.647C222.593 294.765 203.943 293.082 188.38 285.719C182.835 283.099 176.95 279.414 172.038 274.97C164.36 268.068 159.082 259.32 161.277 249.893C163.343 241.168 171.451 240.312 180.241 242.149C190.897 244.387 200.282 250.042 210.711 252.938C221.652 255.976 232.637 252.959 243.535 255.585C251.039 257.393 259.624 262.929 258.691 270.64C257.605 279.591 246.615 285.343 238.373 288.584Z" fill="black" stroke="black" stroke-width="0.949494" stroke-miterlimit="10"/>
<path d="M238.372 288.584C238.323 288.61 238.279 288.619 238.232 288.646C222.591 294.765 203.942 293.081 188.379 285.719C182.834 283.098 176.949 279.414 172.037 274.969C180.332 268.154 193.783 265.164 207.91 268.059C222.1 270.952 233.361 278.996 238.372 288.584Z" fill="#EC4239" stroke="black" stroke-width="0.949494" stroke-miterlimit="10"/>
<path d="M138.789 226.542C161.511 231.974 172.853 246.577 169.069 258.486C165.285 270.397 148.52 275.699 131.621 270.329" fill="#F9DD06"/>
<path d="M138.789 226.542C161.511 231.974 172.853 246.577 169.069 258.486C165.285 270.397 148.52 275.699 131.621 270.329" stroke="black" stroke-width="2" stroke-miterlimit="10"/>
<path d="M282.792 256.937C264.832 255.206 248.954 261.572 246.638 274.378C244.322 287.185 258.857 297.296 269.452 302.289" fill="#F9DD06"/>
<path d="M282.792 256.937C264.832 255.206 248.954 261.572 246.638 274.378C244.322 287.185 258.857 297.296 269.452 302.289" stroke="black" stroke-width="2" stroke-miterlimit="10"/>
<path d="M140.35 242.727C137.955 242.237 137.191 245.958 139.59 246.447C141.984 246.937 142.749 243.216 140.35 242.727Z" fill="black"/>
<path d="M159.53 247.739C157.135 247.25 156.371 250.971 158.77 251.46C161.164 251.949 161.929 248.229 159.53 247.739Z" fill="black"/>
<path d="M148.741 256.459C146.346 255.969 145.582 259.69 147.981 260.179C150.375 260.669 151.14 256.948 148.741 256.459Z" fill="black"/>
<path d="M262.053 269.411C259.659 268.921 258.894 272.642 261.293 273.131C263.686 273.62 264.451 269.902 262.053 269.411Z" fill="black"/>
<path d="M281.237 274.425C278.842 273.935 278.079 277.654 280.477 278.145C282.869 278.634 283.633 274.915 281.237 274.425Z" fill="black"/>
<path d="M270.442 283.143C268.047 282.653 267.283 286.374 269.682 286.863C272.076 287.355 272.84 283.634 270.442 283.143Z" fill="black"/>
<path d="M212.684 222.42L210.712 232.387C210.712 232.387 227.015 234.674 225.422 243.064C223.83 251.453 206.214 244.121 206.214 244.121" fill="#FC7ADA"/>
<path d="M212.684 222.42L210.712 232.387C210.712 232.387 227.015 234.674 225.422 243.064C223.83 251.453 206.214 244.121 206.214 244.121" stroke="black" stroke-width="0.949494" stroke-miterlimit="10"/>
<path d="M126.935 348.203C113.949 349.128 100.895 349.121 88.0277 347.192C73.7235 345.045 57.0866 340.2 51.5256 325.228C45.2766 308.4 55.9373 290.289 66.6736 277.878C78.2651 264.477 93.286 255.659 109.159 248.244C118.008 244.109 109.868 231.268 101.108 235.363C68.2184 250.73 22.1001 287.561 37.0195 329.751C49.2289 364.272 94.0834 366.25 128.581 363.398C127.819 358.357 127.291 353.287 126.935 348.203Z" fill="black"/>
<path d="M216.172 310.343L230.422 308.086L228.937 321.65L215.526 318.841L216.172 310.343Z" fill="#409900" stroke="black" stroke-width="2" stroke-miterlimit="10"/>
<path d="M135.624 307.189L132.403 382.418L149.57 385.246L165.454 313.525L135.624 307.189Z" fill="#A782F9" stroke="black" stroke-width="2" stroke-miterlimit="10"/>
<path d="M218.018 315.746C216.886 323.146 204.231 327.802 186.426 328.559C181.35 328.783 175.833 328.685 170.057 328.211C166.114 327.923 162.038 327.465 157.888 326.825C154.395 326.284 150.99 325.66 147.712 324.936C142.478 323.783 137.516 322.432 132.977 320.904C114.596 314.765 102.653 306.022 103.854 298.21C105.038 290.53 118.602 285.794 137.501 285.322C142.395 285.191 147.674 285.355 153.18 285.854C156.686 286.128 160.304 286.57 163.984 287.131C168.096 287.767 172.094 288.54 175.927 289.427C181.937 290.809 187.528 292.486 192.544 294.34C208.833 300.377 219.152 308.462 218.018 315.746Z" fill="#FC7ADA" stroke="black" stroke-width="2" stroke-miterlimit="10"/>
<path d="M186.423 328.56C181.347 328.784 175.83 328.686 170.054 328.212C177.959 311.213 178.177 298.424 175.924 289.428C181.933 290.81 187.525 292.487 192.541 294.341C193.878 302.841 192.921 314.162 186.423 328.56Z" fill="#B697FA" stroke="black" stroke-width="2" stroke-miterlimit="10"/>
<path d="M147.71 324.935C142.475 323.782 137.513 322.432 132.974 320.904C139.499 305.497 139.588 293.763 137.499 285.321C142.393 285.19 147.672 285.355 153.177 285.853C155.606 294.796 155.645 307.674 147.71 324.935Z" fill="#B697FA" stroke="black" stroke-width="2" stroke-miterlimit="10"/>
<path d="M102.181 290.894L101.222 308.121L96.6605 307.623C94.9292 307.433 93.6623 305.899 93.805 304.163L94.6652 293.657C94.8311 291.62 96.6739 290.139 98.7 290.417L102.181 290.894Z" fill="#409900" stroke="black" stroke-width="2" stroke-miterlimit="10"/>
<path d="M113.499 286.916L112.158 313.642L105.081 312.906C102.394 312.627 100.417 310.258 100.623 307.564L101.867 291.264C102.108 288.104 104.953 285.794 108.096 286.207L113.499 286.916Z" fill="#409900" stroke="black" stroke-width="2" stroke-miterlimit="10"/>
<path d="M120.64 341.59C120.64 341.59 114.298 337.076 111.57 342.249C108.842 347.422 109.777 371.606 117.562 373.265C122.533 374.324 124.205 370.814 124.205 370.814C148.607 384.894 170.313 370.372 166.351 363.117C165.916 362.321 165.548 361.919 165.548 361.919C171.019 353.965 164.593 350.728 164.593 350.728C167.38 346.988 166.788 344.412 165.563 342.796C164.425 341.293 162.438 340.966 160.771 341.839C150.575 347.173 133.863 340.944 133.863 340.944C133.863 340.944 137.789 326.317 130.591 324.984C126.184 324.167 122.334 334.571 120.778 342.502" fill="white"/>
<path d="M120.64 341.59C120.64 341.59 114.298 337.076 111.57 342.249C108.842 347.422 109.777 371.606 117.562 373.265C122.533 374.324 124.205 370.814 124.205 370.814C148.607 384.894 170.313 370.372 166.351 363.117C165.916 362.321 165.548 361.919 165.548 361.919C171.019 353.965 164.593 350.728 164.593 350.728C167.38 346.988 166.788 344.412 165.563 342.796C164.425 341.293 162.438 340.966 160.771 341.839C150.575 347.173 133.863 340.944 133.863 340.944C133.863 340.944 137.789 326.317 130.591 324.984C126.184 324.167 122.334 334.571 120.778 342.502" stroke="black" stroke-width="2" stroke-miterlimit="10"/>
<path d="M143.416 353.722C143.416 353.722 153.333 356.902 164.588 350.73" stroke="black" stroke-width="2" stroke-miterlimit="10"/>
<path d="M142.982 365.033C142.982 365.033 152.977 367.575 165.547 361.921" stroke="black" stroke-width="2" stroke-miterlimit="10"/>
<path d="M120.762 342.229L120.964 350.447" stroke="black" stroke-width="2" stroke-miterlimit="10"/>
<path d="M122.84 364.573L124.2 370.815" stroke="black" stroke-width="2" stroke-miterlimit="10"/>
<path d="M275.835 291.8C275.586 291.118 275.168 290.455 274.557 289.839C272.955 288.227 270.594 287.295 268.359 287.062C264.269 286.634 259.937 287.608 256.203 289.247C249.856 292.032 244.822 297.088 240.839 302.653C239.605 304.378 238.422 306.137 237.287 307.928C236.935 308.484 236.432 309.401 235.923 310.146C239.893 307.332 243.953 304.547 248.446 302.622C253.827 300.316 259.138 300.515 264.839 300.455C269.402 300.405 278.248 298.398 275.835 291.8Z" fill="#17B5E5" stroke="black" stroke-width="0.949494" stroke-miterlimit="10"/>
<path d="M269.199 297.033C269.336 297.525 269.896 297.757 270.359 297.624C271.571 297.277 272.65 296.533 273.244 295.4C273.802 294.333 273.894 293.076 273.768 291.899C273.712 291.386 273.319 291.024 272.797 291.03C272.318 291.034 271.876 291.52 271.929 292C271.956 292.265 271.975 292.53 271.979 292.796C271.981 292.93 271.976 293.063 271.971 293.198C271.972 293.207 271.971 293.209 271.97 293.215C271.965 293.268 271.96 293.322 271.953 293.374C271.924 293.601 271.88 293.826 271.818 294.045C271.803 294.098 271.783 294.151 271.769 294.204C271.73 294.3 271.69 294.395 271.643 294.488C271.595 294.584 271.543 294.679 271.484 294.77C271.467 294.797 271.449 294.825 271.431 294.852C271.417 294.871 271.42 294.87 271.42 294.87C271.404 294.887 271.386 294.905 271.375 294.917C271.306 295.003 271.23 295.083 271.154 295.159C271.115 295.198 271.074 295.236 271.034 295.272L271.031 295.273C270.823 295.398 270.635 295.542 270.417 295.654C270.409 295.657 270.412 295.656 270.4 295.66C270.327 295.689 270.255 295.72 270.18 295.746C270.051 295.794 269.92 295.835 269.789 295.871C269.295 296.013 269.069 296.568 269.199 297.033Z" fill="white"/>
<path d="M265.196 356.523C265.773 356.08 266.279 355.483 266.682 354.715C267.738 352.702 267.917 350.171 267.469 347.969C266.647 343.939 264.417 340.101 261.731 337.032C257.168 331.818 250.831 328.534 244.327 326.409C242.313 325.75 240.277 325.151 238.228 324.606C237.592 324.438 236.567 324.233 235.703 323.972C239.582 326.914 243.456 329.948 246.645 333.654C250.461 338.092 251.868 343.217 253.641 348.638C255.054 352.974 259.629 360.807 265.196 356.523Z" fill="#17B5E5" stroke="black" stroke-width="0.949494" stroke-miterlimit="10"/>
<path d="M258.209 351.766C257.782 352.043 257.729 352.648 257.994 353.049C258.69 354.102 259.723 354.906 260.983 355.132C262.168 355.345 263.395 355.055 264.481 354.58C264.953 354.372 265.178 353.889 265.018 353.394C264.869 352.937 264.274 352.663 263.833 352.856C263.59 352.963 263.342 353.061 263.088 353.143C262.961 353.186 262.832 353.221 262.702 353.256C262.692 353.258 262.693 353.258 262.686 353.259C262.632 353.271 262.58 353.281 262.527 353.291C262.303 353.331 262.075 353.357 261.848 353.364C261.792 353.367 261.737 353.363 261.683 353.366C261.579 353.356 261.477 353.348 261.374 353.331C261.267 353.314 261.162 353.292 261.057 353.265C261.027 353.257 260.995 353.247 260.965 353.239C260.942 353.232 260.944 353.233 260.944 353.233C260.923 353.222 260.9 353.21 260.886 353.204C260.785 353.163 260.686 353.117 260.588 353.066C260.54 353.04 260.493 353.012 260.445 352.986L260.443 352.983C260.261 352.821 260.066 352.685 259.896 352.511C259.89 352.505 259.893 352.508 259.884 352.498C259.834 352.437 259.784 352.378 259.736 352.316C259.652 352.207 259.574 352.095 259.499 351.981C259.21 351.551 258.614 351.501 258.209 351.766Z" fill="white"/>
<path d="M281.379 326.57C281.595 325.876 281.666 325.097 281.553 324.235C281.257 321.982 279.947 319.807 278.312 318.265C275.32 315.444 271.287 313.59 267.324 312.625C260.59 310.988 253.52 311.951 246.977 313.956C244.95 314.577 242.941 315.258 240.953 315.993C240.335 316.221 239.38 316.645 238.524 316.928C243.388 317.099 248.305 317.352 253.044 318.547C258.72 319.98 262.823 323.361 267.389 326.773C271.044 329.506 279.294 333.279 281.379 326.57Z" fill="#17B5E5" stroke="black" stroke-width="0.949494" stroke-miterlimit="10"/>
<path d="M272.931 326.703C272.741 327.176 273.047 327.701 273.494 327.876C274.668 328.335 275.977 328.398 277.138 327.859C278.229 327.35 279.066 326.407 279.68 325.392C279.947 324.952 279.855 324.425 279.437 324.113C279.054 323.825 278.407 323.944 278.158 324.356C278.02 324.584 277.874 324.807 277.715 325.019C277.634 325.127 277.549 325.229 277.464 325.333C277.457 325.341 277.457 325.341 277.452 325.347C277.414 325.387 277.379 325.427 277.34 325.464C277.18 325.626 277.009 325.778 276.826 325.914C276.783 325.947 276.734 325.975 276.692 326.01C276.601 326.061 276.512 326.113 276.419 326.159C276.321 326.207 276.223 326.249 276.121 326.287C276.091 326.298 276.061 326.308 276.03 326.319C276.007 326.326 276.009 326.327 276.009 326.327C275.987 326.33 275.962 326.335 275.945 326.339C275.838 326.364 275.731 326.383 275.621 326.397C275.566 326.403 275.511 326.408 275.457 326.415C275.454 326.414 275.458 326.413 275.454 326.414C275.212 326.385 274.975 326.386 274.733 326.343C274.724 326.341 274.73 326.342 274.716 326.338C274.64 326.317 274.565 326.297 274.49 326.274C274.358 326.234 274.231 326.186 274.103 326.137C273.624 325.951 273.109 326.253 272.931 326.703Z" fill="white"/>
<path d="M132.726 165.842C133.47 173.267 133.588 180.975 132.826 188.517C132.249 194.22 131.703 202.772 125.535 205.441C122.028 206.959 117.995 205.55 116.474 202.122C114.696 198.11 116.841 193.077 118.506 189.151C121.881 181.188 126.823 173.72 131.992 166.813C132.234 166.489 132.477 166.163 132.726 165.842Z" fill="#17B5E5" stroke="black" stroke-width="0.949494" stroke-miterlimit="10"/>
<path d="M123.007 201.368C125.731 199.635 127.495 196.658 127.456 193.491C127.447 192.782 127.798 192.085 128.542 191.914C129.156 191.771 129.978 192.194 129.987 192.907C130.013 195.101 129.535 197.197 128.428 199.181C127.373 201.071 125.785 202.569 123.996 203.706C123.388 204.093 122.572 203.734 122.324 203.146C122.036 202.465 122.396 201.757 123.007 201.368Z" fill="white"/>
<path d="M215.645 337.191C215.404 343.644 214.591 350.265 213.045 356.64C211.878 361.461 210.393 368.728 204.79 370.284C201.605 371.169 198.314 369.484 197.416 366.367C196.366 362.718 198.8 358.657 200.692 355.487C204.529 349.061 209.648 343.244 214.897 337.935C215.147 337.688 215.395 337.438 215.645 337.191Z" fill="#17B5E5" stroke="black" stroke-width="0.949494" stroke-miterlimit="10"/>
<path d="M203.107 366.495C205.648 365.333 207.513 362.988 207.853 360.27C207.93 359.662 208.312 359.107 208.971 359.046C209.515 358.997 210.169 359.456 210.093 360.068C209.855 361.953 209.199 363.693 208.014 365.263C206.885 366.76 205.346 367.855 203.681 368.618C203.113 368.877 202.456 368.474 202.313 367.94C202.144 367.321 202.539 366.756 203.107 366.495Z" fill="white"/>
<path d="M342.354 322.729C342.112 329.184 341.3 335.803 339.756 342.179C338.587 346.999 337.104 354.268 331.501 355.823C328.316 356.708 325.025 355.024 324.126 351.906C323.077 348.257 325.511 344.196 327.403 341.026C331.24 334.6 336.359 328.783 341.608 323.474C341.855 323.224 342.103 322.974 342.354 322.729Z" fill="#17B5E5" stroke="black" stroke-width="0.949494" stroke-miterlimit="10"/>
<path d="M329.819 352.034C332.359 350.871 334.224 348.527 334.565 345.809C334.641 345.201 335.024 344.644 335.682 344.585C336.226 344.536 336.881 344.995 336.804 345.607C336.568 347.492 335.911 349.232 334.726 350.802C333.597 352.298 332.057 353.394 330.392 354.157C329.824 354.416 329.168 354.013 329.024 353.478C328.857 352.858 329.249 352.294 329.819 352.034Z" fill="white"/>
<path d="M30.6463 281.806C31.3901 289.231 31.5077 296.939 30.7459 304.481C30.1711 310.185 29.6218 318.738 23.455 321.405C19.9478 322.923 15.9136 321.514 14.3942 318.086C12.6164 314.074 14.7607 309.041 16.4256 305.115C19.8007 297.152 24.7426 289.685 29.9115 282.78C30.1543 282.454 30.3971 282.128 30.6463 281.806Z" fill="#17B5E5" stroke="black" stroke-width="0.949494" stroke-miterlimit="10"/>
<path d="M20.9271 317.332C23.6511 315.6 25.4148 312.622 25.3754 309.455C25.3671 308.747 25.7174 308.049 26.4618 307.878C27.0762 307.736 27.8995 308.159 27.9082 308.872C27.9345 311.067 27.4569 313.162 26.3496 315.147C25.2942 317.036 23.7064 318.535 21.9197 319.672C21.3113 320.059 20.4951 319.7 20.2451 319.111C19.9554 318.429 20.3162 317.721 20.9271 317.332Z" fill="white"/>
<path d="M406.028 135.364L363.674 145.43L365.633 153.675L407.987 143.609L406.028 135.364Z" fill="#409900"/>
<path d="M363.759 235.805L360.15 243.468L396.402 260.54L400.011 252.876L363.759 235.805Z" fill="#409900"/>
<path d="M414.703 192.735L367.967 192.045L367.842 200.517L414.578 201.207L414.703 192.735Z" fill="#409900"/>
</svg>
