<svg width="92" height="91" viewBox="0 0 92 91" fill="none" xmlns="http://www.w3.org/2000/svg">
<path d="M31.7288 58.0226L3.82507 47.5226C1.95675 46.8192 1.95675 44.1774 3.82507 43.474L31.7288 32.9741C32.3111 32.7553 32.7723 32.2943 32.9911 31.712L43.4942 3.81637C44.1977 1.94858 46.8403 1.94858 47.5439 3.81637L58.0469 31.712C58.2657 32.2943 58.7269 32.7553 59.3093 32.9741L87.213 43.474C89.0813 44.1774 89.0813 46.8192 87.213 47.5226L59.3093 58.0226C58.7269 58.2413 58.2657 58.7024 58.0469 59.2846L47.5439 87.1803C46.8403 89.0481 44.1977 89.0481 43.4942 87.1803L32.9911 59.2846C32.7723 58.7024 32.3111 58.2413 31.7288 58.0226Z" fill="#F1ED94"/>
<path d="M45.5165 91C43.5875 91 41.9044 89.8322 41.2243 88.0317L30.7617 60.2471L2.96913 49.7909C1.1614 49.1111 -0.00335907 47.425 7.27755e-06 45.4967C7.27755e-06 43.5717 1.16813 41.8855 2.97249 41.2091L30.8728 30.7091L41.2243 2.96823C41.9044 1.16775 43.5875 0 45.5165 0C47.4454 0 49.1286 1.16775 49.8086 2.96823L60.3116 30.8606L88.0638 41.2091C89.8681 41.8855 91.0363 43.5683 91.0363 45.4967C91.0363 47.425 89.8715 49.1111 88.0671 49.7909L60.1634 60.2909L49.8119 88.0351C49.1286 89.8355 47.4454 91 45.5165 91ZM5.3222 45.5L32.5829 55.7577C32.5829 55.761 32.5863 55.761 32.5863 55.761C33.8218 56.2288 34.7946 57.2048 35.2592 58.4399L45.5198 85.6894L55.7805 58.4366C56.245 57.2048 57.2179 56.2288 58.4534 55.761L85.7174 45.5033L58.4567 35.249C57.2246 34.788 56.245 33.8121 55.7805 32.5736L45.5198 5.32404L35.2592 32.5769C34.7946 33.8153 33.815 34.788 32.5762 35.2524L5.3222 45.5Z" fill="#0A1640"/>
</svg>
