<svg width="221" height="88" viewBox="0 0 221 88" fill="none" xmlns="http://www.w3.org/2000/svg">
<path d="M217.211 40.4825L150.818 2.15965C148.397 0.763099 145.371 2.50936 145.371 5.30245V81.9459C145.371 84.7389 148.397 86.4852 150.818 85.0887L217.211 46.7658C219.632 45.3716 219.632 41.879 217.211 40.4825Z" fill="#F1ED94"/>
<path d="M149.001 87.2518C148.091 87.2518 147.183 87.0133 146.353 86.5339C144.692 85.5774 143.703 83.8612 143.703 81.9482V5.3048C143.703 3.39178 144.695 1.67563 146.353 0.719118C148.014 -0.239706 149.993 -0.239706 151.652 0.719118L218.045 39.0397C219.704 39.9962 220.695 41.7123 220.695 43.6253C220.695 45.5383 219.704 47.2545 218.045 48.211L151.652 86.5315C150.82 87.0133 149.91 87.2518 149.001 87.2518ZM149.011 3.33389C148.557 3.33389 148.198 3.50063 148.017 3.60485C147.72 3.77392 147.035 4.28112 147.035 5.3048V81.9482C147.035 82.9719 147.723 83.4768 148.017 83.6481C148.311 83.8195 149.092 84.1623 149.981 83.6481L216.375 45.3253C217.262 44.8134 217.359 43.9658 217.359 43.6253C217.359 43.2849 217.264 42.4372 216.375 41.9254L149.981 3.60254C149.636 3.40336 149.305 3.33389 149.011 3.33389Z" fill="#13120F"/>
<path d="M169.309 40.4825L102.915 2.15965C100.494 0.763099 97.4688 2.50936 97.4688 5.30245V81.9459C97.4688 84.7389 100.494 86.4852 102.915 85.0887L169.309 46.7658C171.73 45.3716 171.73 41.879 169.309 40.4825Z" fill="#E07A5F"/>
<path d="M101.099 87.2518C100.191 87.2518 99.2824 87.0133 98.4507 86.5339C96.792 85.5774 95.8027 83.8612 95.8027 81.9482V5.3048C95.8027 3.38946 96.7943 1.67563 98.4507 0.719118C100.107 -0.239706 102.088 -0.239706 103.747 0.719118L170.142 39.0397C171.801 39.9962 172.79 41.7123 172.79 43.6253C172.79 45.5383 171.801 47.2545 170.142 48.211L103.747 86.5315C102.917 87.0133 102.009 87.2518 101.099 87.2518ZM101.11 3.33389C100.656 3.33389 100.299 3.50063 100.119 3.60254C99.8245 3.77392 99.1387 4.27881 99.1387 5.30248V81.9459C99.1387 82.9696 99.8245 83.4768 100.121 83.6458C100.415 83.8172 101.196 84.16 102.083 83.6458L168.479 45.323C169.366 44.8111 169.461 43.9635 169.461 43.623C169.461 43.2826 169.366 42.4326 168.479 41.9231L102.083 3.60022C101.733 3.40336 101.402 3.33389 101.11 3.33389Z" fill="#13120F"/>
<path d="M121.408 40.4825L55.0149 2.15965C52.594 0.763099 49.5684 2.50936 49.5684 5.30245V81.9459C49.5684 84.7389 52.594 86.4852 55.0149 85.0887L121.408 46.7658C123.827 45.3716 123.827 41.879 121.408 40.4825Z" fill="#B2D4F3"/>
<path d="M53.1967 87.2518C52.2886 87.2518 51.3804 87.0133 50.5487 86.5339C48.89 85.5774 47.8984 83.8612 47.8984 81.9482V5.3048C47.8984 3.38946 48.89 1.67563 50.5487 0.719118C52.2051 -0.239706 54.1859 -0.239706 55.8447 0.719118L122.24 39.0397C123.899 39.9962 124.888 41.7123 124.888 43.6253C124.888 45.5383 123.899 47.2545 122.24 48.211L55.8447 86.5315C55.0176 87.0133 54.1071 87.2518 53.1967 87.2518ZM53.2083 3.33389C52.7542 3.33389 52.3974 3.50063 52.2144 3.60254C51.9202 3.77392 51.2344 4.27881 51.2344 5.30248V81.9459C51.2344 82.9696 51.9202 83.4768 52.2167 83.6458C52.5086 83.8172 53.2916 84.16 54.1789 83.6458L120.575 45.323C121.46 44.8111 121.557 43.9635 121.557 43.623C121.557 43.2826 121.462 42.4326 120.575 41.9231L54.1789 3.60022C53.8314 3.40336 53.5002 3.33389 53.2083 3.33389Z" fill="#13120F"/>
<path d="M73.5082 40.4825L7.11253 2.15965C4.69161 0.763099 1.66602 2.50936 1.66602 5.30245V81.9459C1.66602 84.7389 4.69161 86.4852 7.11253 85.0887L73.5082 46.7658C75.9291 45.3716 75.9291 41.879 73.5082 40.4825Z" fill="#3D405B"/>
<path d="M5.29826 87.2518C4.39012 87.2518 3.48198 87.0133 2.6503 86.5339C0.991562 85.5774 0 83.8612 0 81.9482V5.3048C0 3.38946 0.991562 1.67563 2.6503 0.719118C4.30671 -0.239706 6.28749 -0.239706 7.94622 0.719118L74.3418 39.0397C76.0006 39.9962 76.9898 41.7123 76.9898 43.6253C76.9898 45.5383 76.0006 47.2545 74.3418 48.211L7.94622 86.5315C7.11685 87.0133 6.20639 87.2518 5.29826 87.2518ZM5.30752 3.33389C4.85345 3.33389 4.49667 3.50063 4.31597 3.60254C4.02175 3.77392 3.33601 4.27881 3.33601 5.30248V81.9459C3.33601 82.9696 4.02176 83.4768 4.3183 83.6458C4.61251 83.8172 5.3932 84.16 6.28048 83.6458L72.6762 45.323C73.5634 44.8111 73.6584 43.9635 73.6584 43.623C73.6584 43.2826 73.5634 42.4326 72.6762 41.9231L6.28048 3.60022C5.93298 3.40336 5.60174 3.33389 5.30752 3.33389Z" fill="#13120F"/>
</svg>
